<?xml version="1.0" standalone="no"?>
<!DOCTYPE svg PUBLIC "-//W3C//DTD SVG 1.1//EN" "http://www.w3.org/Graphics/SVG/1.1/DTD/svg11.dtd" >
<svg xmlns="http://www.w3.org/2000/svg">
<metadata></metadata>
<defs>
<font id="BroadwayRegular" horiz-adv-x="1324" >
<font-face units-per-em="2048" ascent="1638" descent="-410" />
<missing-glyph horiz-adv-x="512" />
<glyph horiz-adv-x="0" />
<glyph horiz-adv-x="512" />
<glyph unicode=" "  horiz-adv-x="512" />
<glyph unicode="&#x09;" horiz-adv-x="512" />
<glyph unicode="&#xa0;" horiz-adv-x="512" />
<glyph unicode="!" horiz-adv-x="786" d="M415 552h-63q-19 102 -43 151t-145 233q-75 113 -75 222.5t83.5 178.5t224.5 69t221 -75.5t80 -179.5q0 -58 -19.5 -108.5t-92.5 -159t-109 -175.5t-62 -156zM181 30.5q-85 61.5 -85 160.5t80.5 160t210.5 61.5t215.5 -62.5t85.5 -161.5t-79.5 -159t-211 -60.5 t-216.5 61.5z" />
<glyph unicode="&#x22;" horiz-adv-x="792" d="M130 816l-41 549h266l-41 -549h-184zM478 816l-41 549h266l-41 -549h-184z" />
<glyph unicode="#" d="M788 1365l-43 -380l-2 -21h224l36 379q6 36 40 36t34 -33q0 -18 -4 -44l-33 -290l-3 -24l-2 -24h168q37 0 50.5 -6.5t13.5 -25.5q0 -40 -71 -40h-169l-3 -31l-37 -352h168q37 0 50.5 -6.5t13.5 -25.5q0 -40 -71 -40h-169l-38 -388q-4 -42 -10.5 -52.5t-28.5 -10.5 q-37 0 -37 34q0 12 6 55l38 339l2 23h-223l-44 -437h-402l27 225l20 189l3 23h-163q-71 0 -71 40q0 19 13.5 25.5t50.5 6.5h178l3 33l37 350h-163q-71 0 -71 40q0 19 13.5 25.5t50.5 6.5h177l20 200l13 148l6 53h402zM695 509h224l41 383h-225l-4 -42l-33 -306z" />
<glyph unicode="$" d="M932 1265l-132 -311l21 -23q201 -235 246 -295q107 -145 107 -292q0 -69 -33.5 -137t-91.5 -113q-153 -124 -401 -124q-135 0 -242 35l-35 -82q-16 -38 -23 -46.5t-23.5 -8.5t-27.5 8.5t-11 19t12 40.5l37 91q-198 90 -198 181q0 17 11.5 29t30.5 12t44 -35 q62 -86 144 -120l142 329q-141 166 -209 257q-136 185 -136 324q0 177 144 282t361 105q114 0 224 -34l39 94q12 30 29.5 30t30 -10t12.5 -24.5t-43 -114.5q156 -79 156 -123q0 -14 -13 -27t-29.5 -13t-63 41.5t-79.5 54.5zM716 1321q-98 0 -98 -70q0 -56 135 -240l117 284 q-90 26 -154 26zM432 69q91 -32 192.5 -32t101.5 69q0 32 -47.5 105.5t-120.5 154.5z" />
<glyph unicode="%" horiz-adv-x="1574" d="M596 1304q118 -102 118 -282.5t-97.5 -281.5t-239 -101t-235.5 110t-94 270.5t97 261.5t228 102t223 -79zM367 1325v-628h16q106 0 177 63q95 85 95 240t-72 240.5t-187 85.5q-9 0 -29 -1zM1083 1192l-549 -1102q-21 -40 -26 -54q-25 -60 -53 -60q-12 0 -22 9.5t-10 20.5 t29 68l603 1210q39 79 48 92t22.5 13t23 -9.5t9.5 -23t-75 -164.5zM1066 12q-198 90 -198 346q0 163 99.5 263.5t235.5 101.5t233.5 -101t97.5 -280t-118 -282q-91 -79 -210 -79q-72 0 -140 31zM1187 666v-625q17 -1 26 -1q109 0 185 80.5t76 227.5q0 219 -158 294 q-53 25 -82 25t-47 -1z" />
<glyph unicode="&#x26;" horiz-adv-x="1563" d="M1154 455q158 -227 375 -455h-701q-49 42 -97 94q-143 -117 -318 -117q-86 0 -164 31.5t-125 84.5q-76 88 -76 209t65.5 211t207.5 169q-67 127 -91.5 198.5t-24.5 139.5q0 157 113 256q141 123 362 123t330 -93q74 -62 74 -163q0 -160 -212 -266q55 -100 241 -369 q230 228 351 228q51 0 51 -45q0 -23 -12.5 -30t-62 -12t-112.5 -48t-174 -146zM685 144q-94 114 -155 202t-177 279q-131 -78 -184 -148t-53 -173t68 -173q38 -41 101 -65t129 -24q146 0 271 102zM834 932q182 84 182 209q0 91 -83.5 141t-235.5 50q-28 0 -49 -3 q39 -153 186 -397z" />
<glyph unicode="'" horiz-adv-x="444" d="M130 816l-41 549h266l-41 -549h-184z" />
<glyph unicode="(" horiz-adv-x="748" d="M563 1408q48 0 48 -32q0 -13 -7 -19t-40 -22.5t-57 -56t-32 -90.5q-21 -134 -21 -662.5t39 -623.5q28 -67 103 -96q14 -6 14 -25q0 -34 -46 -34q-84 0 -170.5 43.5t-147.5 116.5q-103 123 -129 302q-15 104 -15 346.5t8 332.5q27 306 230 446q107 73 223 74z" />
<glyph unicode=")" horiz-adv-x="748" d="M184 1408q84 0 170.5 -43.5t147.5 -116.5q103 -123 129 -302q15 -104 15 -346.5t-8 -331.5q-27 -305 -230 -447q-107 -74 -223 -74q-48 0 -48 32q0 13 7 19t40 22.5t57 56t32 90.5q21 134 21 662.5t-39 623.5q-28 67 -103 96q-14 6 -14 25q0 34 46 34z" />
<glyph unicode="*" horiz-adv-x="808" d="M332 1126l-14 239h178l-14 -239l223 87l55 -169l-231 -61l151 -185l-143 -104l-130 201l-129 -201l-144 104l152 185l-232 61l55 169z" />
<glyph unicode="+" d="M890 645l-1 -60l2 -131l4 -174h-461l4 174l2 133l-1 58l-90 -1h-46l-54 1l-87 -2q-64 0 -64 40t64 40l89 -2l52 1h136l1 59l-2 131l-4 174h461l-4 -174l-2 -133l1 -57h135l72 -1l73 2q56 0 56 -40t-56 -40l-87 2l-58 -1h-45z" />
<glyph unicode="," horiz-adv-x="771" d="M638 97q-98 -128 -289 -128q-104 0 -188.5 52t-84.5 147t60 156q94 96 242 96t233 -79t85 -212q0 -85 -36 -157.5t-101 -115.5q-95 -65 -261 -65q-74 0 -74 30q0 25 37 25l32 -2h20q236 0 304 165q10 23 21 88z" />
<glyph unicode="-" horiz-adv-x="716" d="M501 527l-144 -1l-292 -3q-65 0 -65 37.5t63 37.5l71 -2l179 -4l260 6l78 1q65 0 65 -37.5t-66 -37.5l-72 2z" />
<glyph unicode="." horiz-adv-x="771" d="M171 350.5q80 61.5 214 62.5t215 -58t81 -159t-82 -163.5t-230 -63.5t-230 92q-48 54 -48 126q0 102 80 163.5z" />
<glyph unicode="/" horiz-adv-x="955" d="M815 1387q11 19 30.5 20t33 -10.5t13.5 -24.5t-22.5 -61.5t-156.5 -330.5l-513 -1084q-31 -65 -38 -84q-26 -64 -61 -64q-16 0 -28 11t-12 25.5t24 63.5l643 1355q76 165 87 184z" />
<glyph unicode="0" d="M681 1400q257 0 426.5 -206t169.5 -527.5t-197 -528.5q-166 -176 -399 -176q-160 0 -314.5 89.5t-242.5 274.5q-70 147 -70 355q0 335 192 533q85 88 198.5 136.5t236.5 49.5zM661 1333l-5 -650l4 -536l1 -118q187 -2 310 100q240 199 240 551q0 304 -157 483 q-70 80 -163 126t-184 46q-15 0 -46 -2z" />
<glyph unicode="1" d="M1000 1387l-8 -571l8 -783v-33h-577v33l8 795l2 294v42l-165 -51q-22 -8 -38 -8q-30 0 -30 34q0 25 15.5 34t90.5 28l345 90z" />
<glyph unicode="2" d="M840 1210q0 121 -185 121q-93 0 -190.5 -31t-163.5 -81t-104.5 -119.5t-38.5 -126.5t12.5 -89.5t38.5 -70.5t26 -52.5t-12 -26t-26 -11.5q-40 0 -75 72.5t-35 169t72.5 204.5t213 169.5t333.5 61.5t318 -60q232 -113 232 -342q0 -79 -28 -160q-69 -194 -371 -609 l-119 -165h37q272 1 350.5 12t99.5 11q32 0 32 -36t-35 -46q-16 -5 -60 -5h-1135q317 381 507 663.5t248 388.5t58 158z" />
<glyph unicode="3" d="M605 1332q-242 3 -368 -138q-43 -45 -63.5 -45t-32 14.5t-11.5 33.5q0 38 81 92q165 111 444 111q209 0 347 -78q76 -42 117 -111.5t41 -153.5q0 -141 -109 -220t-264 -97q-82 -9 -104 -14l165 -23q186 -23 283.5 -112t97.5 -213.5t-86 -223.5q-166 -192 -548 -192 q-291 0 -462 115q-113 75 -113 141q0 17 12.5 28.5t32 11.5t30.5 -11t36 -54q34 -62 117 -100q143 -66 312 -66l45 1v667h-151q-50 0 -62.5 5.5t-12.5 28.5t12.5 29t63.5 6h150v568z" />
<glyph unicode="4" d="M1098 276v-276h-563l3 140l1 112v20h-27l-96 1l-223 -3l-59 -1q-53 0 -73.5 9.5t-20.5 31t19.5 46t105.5 116.5l935 1001l-1 -72l-3 -337l-2 -409l3 -310q12 -2 18.5 -2t19.5 4l108 4l29 2q32 0 32 -35t-26 -39q-6 -2 -74 -3h-106zM540 341v433l-401 -431q97 -4 191 -4z " />
<glyph unicode="5" d="M617 994q-44 3 -74 3q-181 0 -271 -76q-21 -17 -31 -17t-21.5 12t-11.5 20t5 20l30 83q29 76 68 199l42 125l302 -4l132 -1l268 6q38 0 38 -25.5t-17.5 -44t-39 -18.5t-152 7.5t-468.5 9.5h-20l-87 -260q94 30 250 30t300 -46q201 -64 297 -209q80 -121 80 -278.5 t-81 -288.5q-172 -280 -544 -280q-254 0 -414 130.5t-160 341.5q0 135 67 233q33 47 56 47t36.5 -15t13.5 -29.5t-6.5 -23t-43.5 -48.5q-57 -60 -57 -177.5t68 -210t188.5 -138.5t213.5 -46q10 0 44 3v966z" />
<glyph unicode="6" d="M665 1326l-4 -706l4 -592q29 -2 45 -2q85 0 181.5 39.5t166.5 103.5q153 140 153 335t-130 284q-79 55 -155 55t-125 -26.5t-59 -26.5q-26 0 -26 31t63.5 59t138.5 28q141 0 251.5 -105.5t110.5 -292.5q0 -246 -201 -411q-169 -137 -387.5 -137t-380.5 123 q-254 191 -254 569q0 298 174 501q107 125 247 185t293.5 60t278.5 -94q91 -68 91 -125q0 -17 -13 -30t-36.5 -13t-45.5 42q-44 81 -114 118.5t-184 37.5q-37 0 -83 -10z" />
<glyph unicode="7" d="M1276 1365l-445 -1365h-692l229 471l397 830h-238q-314 -2 -405 -34q-27 -10 -44 -10q-30 0 -30 55.5t43 55.5l150 -4h99l462 1h474z" />
<glyph unicode="8" d="M1009 845q89 -59 134 -104q115 -114 115 -272.5t-97 -280t-279 -182.5q-133 -45 -272 -45q-258 0 -424 132q-54 43 -86.5 107t-32.5 139q0 152 197 257q-162 158 -162 352.5t169.5 323t411 128.5t374.5 -97q106 -78 106 -214q0 -77 -36 -133.5t-118 -110.5zM936 878 q81 46 115 93.5t34 114.5q0 116 -97 177q-115 71 -271 71t-234.5 -31.5t-78.5 -83.5q0 -66 171 -166q84 -48 261 -128zM312 547q-66 -34 -96 -61q-75 -65 -75 -157q0 -58 30.5 -112.5t82.5 -89.5q147 -101 353 -101q128 0 216.5 34t88.5 85t-90 107q-56 35 -212 114.5 t-298 180.5z" />
<glyph unicode="9" d="M660 35l4 707l-4 592q-32 2 -45 2q-86 0 -182 -39.5t-166 -103.5q-153 -141 -153 -335.5t131 -284.5q79 -55 154.5 -55t124 26.5t58.5 26.5q26 0 26 -31t-63.5 -59t-138.5 -28q-139 0 -250 106t-111 293q0 246 201 410q169 138 387 138t381 -123q254 -192 254 -570 q0 -298 -174 -501q-107 -125 -247.5 -184.5t-294 -59.5t-278.5 93q-91 69 -91 125q0 17 13.5 30t36.5 13t45 -42q44 -81 114.5 -118t183.5 -37q38 0 84 9z" />
<glyph unicode=":" horiz-adv-x="771" d="M171 350.5q80 61.5 214 62.5t215 -58t81 -159t-82 -163.5t-230 -63.5t-230 92q-48 54 -48 126q0 102 80 163.5zM171 923.5q80 61.5 214 62.5t215 -58t81 -159t-82 -163.5t-230 -63.5t-230 92q-48 54 -48 126q0 102 80 163.5z" />
<glyph unicode=";" horiz-adv-x="771" d="M155 923.5q80 61.5 214 62.5t215 -58t81 -159t-82 -163.5t-230 -63.5t-230 92q-48 54 -48 126q0 102 80 163.5zM638 97q-98 -128 -290 -128q-104 0 -188.5 52t-84.5 147t60 156q94 96 242 96t233 -79t85 -212q0 -85 -36 -157q-90 -181 -361 -181q-74 0 -74 30q0 25 37 25 l32 -2h20q105 0 174 31q90 39 129 134q10 23 22 88z" />
<glyph unicode="&#x3c;" horiz-adv-x="1024" d="M949 1329v-167l-424 -259l424 -294v-444l-875 607v21z" />
<glyph unicode="=" d="M663 507l-378 -5h-51l-75 -1q-63 0 -63 40t63 40l71 -2l427 -4l438 4l71 2q63 0 63 -40t-63 -40l-75 1h-51zM663 780l-327 -3l-51 -1l-126 -1q-63 0 -63 39.5t63 39.5l71 -2l427 -4l438 4l71 2q63 0 63 -39.5t-63 -39.5l-126 1l-51 1z" />
<glyph unicode="&#x3e;" horiz-adv-x="1024" d="M75 165v167l424 259l-424 294v444l875 -607v-21z" />
<glyph unicode="?" horiz-adv-x="1133" d="M158 1083l10 -78q0 -14 -12 -24.5t-32 -10.5t-35 24t-15 78t46 126q132 208 449 208q256 0 392 -135q103 -103 103 -247.5t-75 -233.5t-167.5 -122.5t-267.5 -41.5v-91h-67l3 801q-143 -8 -237.5 -86.5t-94.5 -166.5zM305.5 29.5q-83.5 60.5 -83.5 157.5t78 160.5 t213 64.5t217.5 -61t82.5 -156.5t-74 -160t-212 -65.5t-221.5 60.5z" />
<glyph unicode="@" horiz-adv-x="1516" d="M1102 411q71 1 135.5 47t104.5 133.5t40 193.5q0 246 -180 404q-80 70 -190.5 109t-227.5 39q-264 0 -456.5 -184t-192.5 -460t183 -471t502 -195q126 0 229 26.5t238 94.5l22 -47q-243 -123 -490 -123q-338 0 -541 210q-91 94 -144 224t-53 277q0 202 101.5 368.5 t269.5 248t338.5 81.5t329.5 -81.5t244 -238.5q71 -131 71 -295.5t-98.5 -286.5t-244.5 -122h-318l11 63q-98 -75 -209.5 -75t-189.5 77t-78 192q0 151 114 260.5t265 109.5q102 0 178 -65l6 50h321zM614 435q0 -28 27 -28q52 0 157 88l58 368q-78 73 -132 73 q-22 0 -30 -15.5t-17 -73.5l-58 -368q-5 -37 -5 -44z" />
<glyph unicode="A" horiz-adv-x="1599" d="M825 1447l800 -1447h-693l-95 183h-336l-296 1l-50 1l-66 -122q-29 -55 -40.5 -68.5t-28.5 -13.5q-34 0 -34 30q0 13 19.5 48.5t136.5 233.5zM514 792l-175 -295l-140 -243l300 -4l301 3z" />
<glyph unicode="B" horiz-adv-x="1467" d="M1225 594q143 -103 143 -246q0 -115 -89 -212q-109 -120 -328 -130q-121 -6 -340 -6h-495l1 47l2 194l3 382l-4 416l-2 326h536q201 0 276.5 -6.5t158 -32.5t156.5 -78q179 -126 179 -331q0 -108 -53 -195t-144 -128zM1144 568q-43 -9 -101 -9t-106.5 26t-48.5 68 q0 23 14 23t35 -10q69 -35 150 -35q147 0 222 116q48 73 48 167q0 143 -111 245q-79 74 -188.5 107t-274.5 33h-55l-6 -600l6 -633l90 -1q149 0 232 16.5t138 56.5q114 84 114 212q0 130 -158 218z" />
<glyph unicode="C" horiz-adv-x="1446" d="M701 1338l-5 -709l5 -602q52 -7 118 -7t169 35t168 85q132 100 207 241q19 36 41 36q33 0 33 -29t-49 -100q-160 -231 -410 -300q-104 -29 -222 -29t-259 60q-226 95 -344 301q-98 171 -98 365t105.5 373.5t304.5 277.5q145 70 313 70q288 0 498 -195q100 -93 100 -134 q0 -11 -10 -20t-26 -9t-44 39q-86 119 -227 188.5t-298 69.5q-37 0 -70 -7z" />
<glyph unicode="D" horiz-adv-x="1538" d="M116 1365h526q206 0 310 -20q257 -49 415 -274q124 -177 124 -392t-128 -393q-189 -263 -516 -283q-50 -3 -220 -3h-508l3 660zM727 1301l-5 -804l6 -433q134 1 192.5 10.5t134.5 42.5q179 77 281 248q89 147 89 325.5t-105 334.5q-187 277 -554 277z" />
<glyph unicode="E" horiz-adv-x="1371" d="M724 927q-2 -46 -2 -112v-60l7 -690l579 7q59 0 59 -36q0 -30 -30 -34q-7 -1 -83 -2h-1136l1 52l1 334l4 358l-8 621h1060q71 0 81 -3q23 -6 23 -34q0 -35 -44 -35h-7l-501 7l-4 -310l109 -1l350 6l77 1q42 0 55.5 -7t13.5 -28q0 -39 -66 -39l-79 2z" />
<glyph unicode="F" horiz-adv-x="1336" d="M724 927l-2 -242l6 -639v-46h-611l7 743l-8 622h1060q72 0 81 -3q23 -6 23 -34q0 -35 -44 -35h-7l-501 7l-4 -310l109 -1l350 6l77 1q42 0 55.5 -7t13.5 -28q0 -39 -66 -39l-79 2z" />
<glyph unicode="G" horiz-adv-x="1553" d="M1506 689q-6 -297 -190 -496q-103 -111 -244.5 -172.5t-283.5 -61.5q-288 0 -497 190q-127 116 -181.5 262.5t-54.5 274.5q0 238 147 432q101 135 254 211.5t321 76.5q295 0 508 -203q95 -91 95 -129q0 -13 -10.5 -22t-29.5 -9t-45 35q-201 267 -516 267q-38 0 -77 -5 l-5 -710l5 -603q37 -7 75 -7q113 0 219 38q268 95 385 349q50 107 59 218h-522q-69 2 -83 7t-14 26q0 32 48 32l60 -1h577z" />
<glyph unicode="H" horiz-adv-x="1554" d="M1384 895l-2 281l-2 125q0 49 8 66t33 17q38 0 38 -61l-1 -68l-5 -579l5 -633q0 -36 -7.5 -49t-30 -13t-31 14t-8.5 51l1 85l3 502v186l-233 5l-429 -5l1 -276l6 -543h-613l5 867l-2 229l-1 211l-2 58h613l-1 -52l-5 -418q102 -7 315 -7t345 7z" />
<glyph unicode="I" horiz-adv-x="844" d="M728 1365v-70l-5 -548l4 -747h-611l7 817l-7 499l1 49h611z" />
<glyph unicode="J" horiz-adv-x="1307" d="M1186 1365l-3 -237l5 -364l3 -242q0 -249 -142 -395q-162 -168 -501 -168q-360 0 -488 213q-40 66 -40 115.5t41 49.5t50 -61q18 -128 160 -198q114 -56 245 -56q19 0 62 3l1 41l2 273l4 729l-7 297h608z" />
<glyph unicode="K" horiz-adv-x="1501" d="M961 1078l149 -302q273 -551 368 -696q29 -46 29 -61q0 -38 -52 -38q-23 0 -33.5 14.5t-52.5 101.5l-463 952l-183 -110l-1 -148v-99l5 -642l1 -50h-612l6 854l-2 243l-4 213v55h612l-4 -160l-1 -194l171 102q145 86 258.5 161.5t145.5 92.5t60 17q53 0 53 -33 q0 -17 -14.5 -28.5t-72.5 -39t-274 -153.5z" />
<glyph unicode="L" horiz-adv-x="1371" d="M731 1365l-4 -209l-4 -333l1 -243l4 -515l72 -1l428 6l78 1q59 0 59 -33t-32 -36q-7 -1 -46 -2h-1171l3 380l2 233l2 264l-4 402l1 86h611z" />
<glyph unicode="M" horiz-adv-x="1942" d="M1502 1412l406 -1374l12 -38h-608l-192 707l-413 -621l-424 590q-61 -216 -110 -433t-60.5 -239.5t-51 -22.5t-39.5 30q0 9 28 101l381 1300l548 -793z" />
<glyph unicode="N" horiz-adv-x="1508" d="M1342 701v167l-2 265l-1 121l-1 76q0 54 37 54q22 0 30.5 -12.5t8.5 -47.5v-14q-1 -21 -1 -69l-4 -337l-3 -309l3 -325l4 -326q-206 129 -603 356.5t-643 357.5l11 -565l1 -69q0 -43 -40.5 -43t-40.5 53l1 70l5 626l-8 691q405 -251 1246 -720z" />
<glyph unicode="O" horiz-adv-x="1553" d="M473 1338q143 67 304 67.5t308 -66.5q216 -99 330 -305q91 -165 91 -340t-69 -321q-103 -218 -321 -331q-160 -83 -341 -83t-347 94q-221 124 -315 348q-58 137 -58 301.5t91 330.5q112 204 327 305zM701 1339l-6 -651l5 -541l1 -122q34 -6 65 -6q221 0 387.5 117 t237.5 293q50 123 50 276t-84 303q-103 184 -290 271q-140 66 -295 66q-36 0 -71 -6z" />
<glyph unicode="P" horiz-adv-x="1560" d="M725 245v-28l1 -192v-25h-610l1 61l5 703l-4 334l-1 227l-1 40h457q280 0 425 -24q317 -53 446 -317q55 -113 55 -242t-68 -263t-203.5 -212.5t-313.5 -78.5q-66 0 -189 17zM726 1297v-67l-4 -668l2 -249q79 -21 198 -21q245 0 392 172q119 139 119 318.5t-118 321.5 q-84 101 -217 147t-342 46h-30z" />
<glyph unicode="Q" horiz-adv-x="1551" d="M1218 101q91 -81 240 -171q28 -16 28 -31t-11 -26t-31 -11t-115.5 64t-172.5 134q-183 -101 -373.5 -101t-360.5 95q-194 108 -292 308q-75 151 -75 320q0 280 186 485q105 117 246 178t292 61q208 0 385.5 -110.5t269.5 -304.5q70 -148 70 -313t-77 -321.5t-209 -255.5z M1166 143q85 57 160 165q115 165 115 356t-88 347.5t-240.5 244.5t-333.5 88q-40 0 -78 -7v-1311q35 -7 69 -7q189 0 335 86q-177 176 -177 210q0 11 10 21t23.5 10t72 -69.5t132.5 -133.5z" />
<glyph unicode="R" horiz-adv-x="1567" d="M949 226q194 -134 447 -185q31 -6 31 -30q0 -33 -46 -33q-105 0 -279 84.5t-378 245.5v-41l1 -170v-97h-609v45l2 326l3 390l-2 604h402q270 0 408 -15t235 -56q158 -66 246.5 -211.5t88.5 -304.5t-95 -304q-153 -233 -455 -248zM854 288l48 -1q206 0 348 115 q90 72 136.5 175.5t46.5 206.5q0 175 -114 313q-87 107 -218 151t-369 47l-9 -670v-181l1 -47q61 -59 130 -109z" />
<glyph unicode="S" horiz-adv-x="1223" d="M78.5 221.5q10.5 10.5 26.5 10.5t40 -27q75 -82 183.5 -131.5t220 -49.5t111.5 71q0 45 -41 101.5t-216 245.5t-250.5 307.5t-75.5 240.5q0 184 162.5 300t398.5 116q165 0 303 -67q52 -26 89.5 -60t37.5 -51t-10.5 -26.5t-24.5 -9.5t-57.5 41t-131.5 74.5t-153.5 33.5 t-97 -21.5t-31.5 -59.5q0 -73 171 -253q294 -313 361.5 -425t67.5 -211t-49 -180t-136 -133q-166 -99 -395.5 -99t-396.5 114q-117 80 -117 125q0 13 10.5 23.5z" />
<glyph unicode="T" horiz-adv-x="1414" d="M1019 1298l-5 -313l-3 -297l3 -688h-610l6 797l-3 271l-3 230l-321 -7l-28 -1q-48 0 -48 34t28 38q8 2 49 3h1227q64 -1 80 -7.5t16 -32.5q0 -34 -51 -34l-87 3l-230 4h-20z" />
<glyph unicode="U" horiz-adv-x="1539" d="M728 1365l-5 -518l-2 -544l3 -277q51 -4 89 -4q351 0 470 163q61 84 80.5 238.5t19.5 561.5l-3 265l-4 82q0 52 43 52q38 0 38 -50q0 -29 -3 -79l-8 -399q-4 -252 -9 -342.5t-20 -169.5q-31 -163 -143 -260q-143 -125 -468.5 -125t-480.5 82q-122 63 -173 213 q-23 69 -27 142t-5 445l-4 524h612z" />
<glyph unicode="V" horiz-adv-x="1605" d="M1135 566l179 335q133 246 183 350t62.5 118.5t30 14.5t30.5 -11.5t13 -28.5q0 -20 -20.5 -53t-36.5 -62l-740 -1334l-854 1470h701z" />
<glyph unicode="W" horiz-adv-x="2075" d="M1726 647q162 387 222.5 550.5t70.5 175t32 11.5t36.5 -10t14.5 -23.5t-78 -190.5l-555 -1256l-247 465l-194 346l-153 -280l-281 -531l-363 889q-108 266 -249 572h626l86 -220q132 -330 209 -495l376 698q18 35 34 63l148 -289q128 -245 265 -475z" />
<glyph unicode="X" horiz-adv-x="1587" d="M1064 801l21 -32q202 -321 280 -438t232 -331h-712l-346 563q-162 -192 -375 -489q-40 -55 -60 -74t-40 -19q-36 0 -36 33q0 13 7.5 25.5t54.5 71.5l409 514l-479 740h702l303 -502q107 131 234.5 307.5t145 195t35.5 18.5t30 -11t12 -28t-16.5 -40t-114.5 -144z" />
<glyph unicode="Y" horiz-adv-x="1501" d="M1096 844l318 465q32 51 44 63t30 12t29.5 -9t11.5 -22q0 -19 -32 -59l-878 -1231q-43 -60 -54.5 -71t-31.5 -11q-32 0 -32 28q0 15 29 49l228 310l-28 38q-304 409 -429.5 570t-318.5 389h725z" />
<glyph unicode="Z" horiz-adv-x="1377" d="M1344 1365l-22 -43q-354 -712 -590 -1255h228l239 3l65 2q59 0 59 -36q0 -26 -14 -30.5t-97 -5.5h-1164l19 39q437 877 598 1262l-498 -11q-56 0 -56 37q0 26 24 34q14 4 69 4h1140z" />
<glyph unicode="[" horiz-adv-x="748" d="M116 1407h300l132 1q76 1 76 -37t-67 -38l-71 1h-70l-3 -321l-3 -436l3 -435l3 -322l135 2q73 0 73 -38.5t-85 -36.5l-123 1h-300v57l5 284l6 488l-6 489l-5 284v57z" />
<glyph unicode="\" horiz-adv-x="955" d="M101 1407q35 0 61 -64q7 -19 38 -84l674 -1424q18 -39 18 -52.5t-13.5 -24t-31.5 -10.5t-27 13t-46 91l-689 1455q-24 49 -24 63.5t11.5 25.5t28.5 11z" />
<glyph unicode="]" horiz-adv-x="748" d="M624 -252h-300l-131 -1q-77 -1 -77 37t67 38l71 -1q62 0 70 -1l3 322l3 435l-3 436l-3 321h-70l-71 -1q-67 0 -67 38.5t85 36.5l123 -1h300v-57l-5 -284l-6 -488l6 -489l5 -284v-57z" />
<glyph unicode="^" horiz-adv-x="1024" d="M1094 559h-167l-259 424l-294 -424h-444l607 875h21z" />
<glyph unicode="_" horiz-adv-x="1024" d="M-3 -192h1031v-200h-1031v200z" />
<glyph unicode="`" horiz-adv-x="1024" d="M683 1204h-234l-216 274h352z" />
<glyph unicode="a" horiz-adv-x="1442" d="M825 105q-185 -127 -347.5 -127t-278.5 87q-151 114 -151 285.5t132 279.5t342 108q86 0 152 -15.5t151 -56.5v122q-1 127 -4 156t-18 52q-36 56 -168 56q-204 0 -315 -128q-45 -52 -72 -52t-44 16t-17 37q0 63 145.5 128.5t370.5 65.5q370 0 522 -112q66 -49 86 -110 t20 -215v-397q-4 -110 6.5 -165.5t47.5 -119.5h-560v105zM826 594q-126 63 -189.5 63t-81.5 -46q-10 -25 -10 -145v-239q1 -79 5 -96q10 -46 62 -46q108 0 212 100z" />
<glyph unicode="b" horiz-adv-x="1528" d="M624 987q152 132 337.5 132t342.5 -143q177 -161 177 -423t-182 -435q-148 -140 -339 -140q-98 0 -175 35t-158 117v-130h-511v45l3 485l-1 346l-2 489h512zM876 1046q-97 0 -252 -141v-682q67 -71 106 -103q80 -65 135 -65t68 43q6 20 7 101v672l1 44q0 76 -13.5 103.5 t-51.5 27.5z" />
<glyph unicode="c" horiz-adv-x="1154" d="M586 875v-668l-1 -64q0 -62 15.5 -82.5t62.5 -20.5q118 0 232 72.5t186 194.5q22 37 40 37t30.5 -13.5t12.5 -28.5q0 -36 -58 -101.5t-135 -117.5q-157 -105 -336 -105q-245 0 -405 152q-182 171 -182 423t192 422q161 144 397 144q188 0 329 -89q60 -38 98 -81.5 t38 -66.5q0 -43 -38 -43q-21 0 -60 57.5t-138 107t-172.5 49.5t-90.5 -33t-17 -145z" />
<glyph unicode="d" horiz-adv-x="1528" d="M225 976q157 143 342 143t337 -132l-4 378h512l-2 -489l-1 -346l3 -485v-45h-511v130q-82 -82 -158.5 -117t-173.5 -35q-190 0 -338 140q-183 173 -183 435t177 423zM904 905q-155 141 -251 141q-38 0 -51.5 -27.5t-13.5 -103.5l1 -44v-672q1 -81 7 -101q12 -43 60 -43 t104 37.5t144 130.5v682z" />
<glyph unicode="e" horiz-adv-x="1226" d="M515 514v-310q0 -90 11 -114q21 -46 99 -46q116 0 229.5 63.5t196.5 175.5q27 37 39 47t27.5 10t26.5 -12.5t11 -31.5q0 -42 -77.5 -123t-208 -138t-254.5 -57q-213 0 -376 143q-95 84 -143 199.5t-48 221.5t40 210q85 223 302 319q109 48 228 48q185 0 335 -109 q234 -170 232 -493h-233l-300 -1zM771 580v292q-2 94 -4 112q-8 74 -128 74q-88 0 -110 -45q-14 -27 -14 -141v-292l122 -4z" />
<glyph unicode="f" horiz-adv-x="787" d="M734 1097l58 3q41 0 41 -35t-49 -35l-73 2l-67 1l-2 -300l-2 -372l4 -321v-40h-511v34l2 162l2 351l-4 457v29h-18l-77 -3q-45 0 -45 35t41 35l48 -3h58q14 84 35.5 131.5t66.5 91.5q125 124 357 124q114 0 201 -34t87 -78q0 -17 -13.5 -29.5t-32.5 -12.5t-41 26 q-36 44 -65 44q-51 0 -72 -58.5t-22 -204.5h93z" />
<glyph unicode="g" horiz-adv-x="1149" d="M633 1119l203 -11q79 0 115 70q21 42 42.5 42t35.5 -12.5t14 -39.5t-40 -61.5t-110 -57.5q86 -42 153.5 -123t67.5 -186q0 -201 -167 -313q-146 -99 -343.5 -99t-329.5 68q-47 -32 -47 -65q0 -39 53 -46q119 -16 164 -8h299q164 11 223 -42.5t59 -111.5t-36 -101 q-60 -71 -162 -71q-19 0 -48 2q16 25 16 39q0 31 -52 31t-182 -18t-220 -18t-154 37q-118 68 -118 186q0 62 32.5 113.5t108.5 108.5q-71 45 -110 117.5t-39 157.5q0 202 203 322q152 90 369 90zM500 939v-423q0 -76 16 -99.5t76.5 -23.5t80 27.5t19.5 108.5v408 q0 68 -19.5 91t-76.5 23t-76.5 -23t-19.5 -89z" />
<glyph unicode="h" horiz-adv-x="1553" d="M627 951q96 65 157 95q150 73 276 73q250 0 338 -142q49 -79 49 -290l-2 -149l-2 -197l7 -341h-513l4 618l-5 316q-10 52 -66 52q-102 0 -243 -115l-2 -251l4 -435l3 -185h-515l2 422v481l-3 416l1 46h510v-28l1 -171l-1 -106v-109z" />
<glyph unicode="i" horiz-adv-x="752" d="M120 1304q0 136 258 137t258 -137q0 -67 -69.5 -104.5t-195.5 -37.5q-251 0 -251 142zM631 1092v-29l-2 -156l-5 -610l4 -207l2 -90h-514l5 368l3 325l-2 171l-3 190l1 38h511z" />
<glyph unicode="j" horiz-adv-x="813" d="M701 1092l-2 -213l2 -148l1 -115q0 -266 -11 -339.5t-63 -151.5q-124 -183 -368 -183q-132 0 -206 47.5t-74 90.5q0 18 12.5 31.5t29 13.5t25.5 -9t35 -53t60 -44t43.5 15.5t11.5 59.5l4 313l-3 328l-2 167l-2 148v42h507zM190 1304q0 136 258 137t258 -137 q0 -67 -69.5 -104.5t-195.5 -37.5q-251 0 -251 142z" />
<glyph unicode="k" horiz-adv-x="1488" d="M1278 984l-71 13q-42 0 -89 -24.5t-131 -89.5l223 -373q161 -266 219.5 -351.5t130.5 -158.5h-595l-185 323q-102 181 -156 262v-46l1 -180l2 -312l1 -47h-512l4 482l1 278l-4 558l-1 47h512l-4 -657v-54q279 251 401 342t225 91q77 0 77 -56q0 -20 -14 -33.5t-35 -13.5z " />
<glyph unicode="l" horiz-adv-x="743" d="M626 1365l1 -51l-2 -352l-3 -429l4 -494v-39h-510v47l2 159l1 288l2 377l-1 203l-3 223l1 68h508z" />
<glyph unicode="m" horiz-adv-x="2366" d="M628 952q223 167 446 167q167 0 269 -84q41 -33 73 -105q130 100 242.5 144.5t237.5 44.5q229 0 319 -147q26 -44 36 -101.5t10 -170.5l-4 -264v-62l5 -333l1 -41h-513l4 316l5 318l-1 129q-1 71 0 117q2 105 -82 105q-101 0 -238 -117q5 -39 5 -112l-2 -250l-2 -281 q0 -124 5 -225h-512l2 218l3 470q0 232 -6 256q-11 43 -65 43q-99 0 -238 -115l-4 -423l5 -449h-513v40l2 182l2 488l-4 382h512v-140z" />
<glyph unicode="n" horiz-adv-x="1544" d="M628 953q234 166 447 166q142 0 228 -57t111.5 -129.5t25.5 -236.5l-2 -463l3 -233h-509l7 482l-1 308q-1 107 -2 128q-6 68 -79 68q-97 0 -229 -112l-1 -41l-2 -281l-2 -215l3 -294l1 -43h-511l3 392l3 259l-6 441h512v-139z" />
<glyph unicode="o" horiz-adv-x="1227" d="M616 1119q161 0 299.5 -85.5t204.5 -219t66 -251.5q0 -225 -136 -387q-88 -103 -203.5 -150.5t-228.5 -47.5q-189 0 -340 112q-118 86 -174 210.5t-56 251.5q0 248 174.5 406t393.5 161zM587 1054l-3 -1008q31 -2 43 -2q139 0 263.5 77t179 190t54.5 233q0 241 -178 391 q-144 121 -313 121q-14 0 -46 -2z" />
<glyph unicode="p" horiz-adv-x="1494" d="M994 1119q207 0 329.5 -146t122.5 -366t-128 -360.5t-317 -140.5t-379 162l1 -37l1 -131l2 -109l1 -37h-511l1 285l2 265l-3 553v35h511l-3 -131q101 87 185 122.5t185 35.5zM624 349q147 -137 232 -137q40 0 47 39q2 13 3 135v489q0 87 -3 104q-7 42 -47 42t-104 -40.5 t-128 -109.5v-522z" />
<glyph unicode="q" horiz-adv-x="1494" d="M872 268q-190 -162 -379 -162t-317 140.5t-128 360.5t122.5 366t329.5 146q102 0 185 -35.5t185 -122.5l-3 131h511l-3 -588l2 -265l1 -285h-511l1 37l2 109zM638 212q85 0 232 137v522q-61 65 -125 107.5t-106.5 42.5t-48.5 -46q-2 -17 -2 -100v-489q1 -127 4 -141 q8 -33 46 -33z" />
<glyph unicode="r" horiz-adv-x="1086" d="M627 782l-2 -384l4 -398h-513l1 55l1 204l3 367l-4 408l-1 58h512v-206q115 122 160 154q104 73 196 73q56 0 92.5 -24t36.5 -57t-22 -52t-49 -19t-62 16.5t-64 16.5q-72 0 -139 -49t-150 -163z" />
<glyph unicode="s" horiz-adv-x="985" d="M541 1052q-89 0 -89 -57q0 -34 41.5 -86t167 -174.5t159 -160t75.5 -104t42 -164.5q0 -154 -149 -249q-122 -79 -310 -79t-341 88q-45 27 -61.5 44t-16.5 37q0 37 39 38q20 0 60.5 -38.5t132.5 -72t169 -33.5t77 49q0 24 -25.5 57.5t-177 196t-215 256t-63.5 174.5 q0 163 165 265q129 80 274 80t267 -46.5t122 -94.5q0 -15 -12.5 -27t-30 -12t-69.5 37q-106 76 -231 76z" />
<glyph unicode="t" horiz-adv-x="886" d="M131 1033l-82 -4q-49 0 -49 36.5t47 36.5q22 0 31 -1l73 -5v113q296 107 516 235l-12 -354l179 8q44 0 44 -38.5t-46 -38.5l-148 8h-29l-1 -194l4 -389l3 -208q0 -73 11 -102t42.5 -29t72.5 42q40 42 62 101.5t51 59.5q34 0 34 -38t-34 -94q-121 -202 -388 -202 q-177 0 -274 107q-50 54 -69 120.5t-19 184.5v75l1 211v358q-14 1 -20 1z" />
<glyph unicode="u" horiz-adv-x="1546" d="M1430 1092l-3 -786l3 -306h-511v141q-127 -87 -231.5 -125t-218.5 -38q-209 0 -303 124q-35 46 -48.5 104.5t-13.5 166.5l2 234l1 156l-5 329h511l-5 -502l1 -190l1 -128q0 -115 15.5 -139.5t63 -24.5t99 25t133.5 89l1 131l2 357l-6 351v31h512z" />
<glyph unicode="v" horiz-adv-x="1291" d="M925 507q236 414 285 537q25 58 37.5 74t32 16t35.5 -11.5t16 -26.5t-22 -52l-614 -1104l-525 824l-225 328h622l242 -401z" />
<glyph unicode="w" horiz-adv-x="1769" d="M1487 545q108 225 173 395.5t74.5 184.5t28 14t32.5 -11.5t14 -26t-10.5 -40.5t-74.5 -166l-338 -736l-100 -229l-378 651q-38 -63 -101 -179l-254 -472l-608 1162h568l287 -560q83 139 115 198t231 438z" />
<glyph unicode="x" horiz-adv-x="1458" d="M960 653l79 -109q248 -344 437 -544h-656l-322 445q-185 -186 -350 -393q-58 -74 -79 -74t-38.5 17t-17.5 36.5t123 135t320 333.5l-88 123q-243 340 -372 469h651l273 -386q212 235 308 356q45 58 65 58t37.5 -17t17.5 -35t-47.5 -61t-166.5 -168z" />
<glyph unicode="y" horiz-adv-x="1236" d="M877 594q195 299 256 403t69 113t25.5 9t33.5 -15t16 -32t-17 -38q-144 -196 -365 -532l-176 -269q-91 -138 -143 -190q-104 -106 -228 -106q-55 0 -90.5 21.5t-35.5 48.5t16 42t36 15t60.5 -19t74.5 -19q73 0 163 118l-118 185q-381 592 -509 763h636q126 -275 296 -498 z" />
<glyph unicode="z" horiz-adv-x="1343" d="M1330 1092l-568 -865l-99 -159h127q209 0 327 10.5t134 10.5q50 0 50 -47.5t-66 -47.5l-60 1l-523 5h-649q203 269 521 778l158 252l-106 1q-220 0 -306 -7.5t-104 -7.5q-47 0 -47 41q0 27 12.5 36.5t45.5 9.5l670 -11h483z" />
<glyph unicode="{" d="M468 584q172 -14 246.5 -69.5t74.5 -170.5v-408q0 -63 14.5 -81.5t64.5 -18.5l46 1h36q48 0 63 -3q36 -6 36 -38q0 -26 -32 -31.5t-188 -5.5q-330 0 -379 167q-14 47 -14 143v339q0 83 -18.5 110.5t-74.5 27.5h-18q-39 0 -39 37.5t39 37.5h18q56 0 74.5 27.5t18.5 109.5 v339q0 102 16 151q52 159 377 159q157 0 188.5 -5.5t31.5 -31.5q0 -32 -36 -38q-15 -3 -62 -3h-37l-46 1q-50 0 -64.5 -18.5t-14.5 -80.5v-408q0 -116 -74.5 -171t-246.5 -68z" />
<glyph unicode="|" horiz-adv-x="1024" d="M378 1365h270v-1706h-270v1706z" />
<glyph unicode="}" d="M856 584q-172 13 -246.5 68t-74.5 171v408q0 62 -14.5 80.5t-64.5 18.5l-46 -1h-36q-48 0 -63 3q-36 6 -36 38q0 26 31.5 31.5t188.5 5.5q330 0 379 -167q14 -47 14 -143v-339q0 -82 18.5 -109.5t74.5 -27.5h18q39 0 39 -37.5t-39 -37.5h-18q-56 0 -74.5 -27.5 t-18.5 -110.5v-339q0 -101 -16.5 -150t-60.5 -85q-96 -75 -316 -75q-157 0 -188.5 5.5t-31.5 31.5q0 32 36 38q15 3 62 3h37l46 -1q50 0 64.5 18.5t14.5 81.5v408q0 115 74.5 170.5t246.5 69.5z" />
<glyph unicode="~" horiz-adv-x="1365" d="M1084 821l72 -36q-53 -88 -118.5 -152t-108.5 -80.5t-107 -16.5t-183.5 39t-187.5 39t-113 -31q-10 -6 -25.5 -19.5t-30.5 -25.5l-69 35q88 136 160 193.5t145 57.5t207.5 -40t207 -40t151.5 77z" />
<glyph unicode="&#xa1;" horiz-adv-x="786" d="M371 536h63q19 -102 43 -151t146 -233q75 -113 75 -222.5t-83.5 -178.5t-224.5 -69t-221 75.5t-80 179.5q0 58 19 108t92.5 159t109 176t61.5 156zM177.5 1057.5q78.5 60.5 211 61t217.5 -61t85 -160.5t-81.5 -161t-210.5 -62t-214.5 63t-85.5 161.5t78.5 159z" />
<glyph unicode="&#xa2;" d="M716 -22q-20 0 -46 2v-90q0 -9 -1 -27v-32l2 -28q1 -14 1 -28q0 -55 -38.5 -55t-38.5 41l1 51l-1 52l1 55v70q-115 15 -224 93.5t-174 200.5t-65 266q0 207 129 363t333 196v142q0 93 6 111t29 18q36 0 38.5 -42.5t1.5 -156.5v-62l48 1q192 0 333 -89q60 -38 98 -81.5 t38 -65.5t-11.5 -33t-29.5 -11t-57 57.5t-138 107t-172.5 49.5t-90.5 -32.5t-17 -145.5v-667l-1 -44v-34q4 -58 20 -74t58 -16q111 0 226 68.5t192 198.5q22 37 40 37t30.5 -13.5t12.5 -28.5q0 -36 -58 -101.5t-135 -117.5q-156 -105 -340 -105z" />
<glyph unicode="&#xa3;" d="M746 726h297q63 0 73 -1q42 -6 42 -38q0 -39 -62 -39l-71 1h-120l-153 2q9 -151 9 -247t-31 -166.5t-118.5 -122.5t-200.5 -61q108 -32 203 -71.5t137.5 -50t100.5 -10.5q142 0 246.5 69.5t122.5 177.5q9 51 46 51t37 -42.5t-27 -95t-72 -95.5q-138 -133 -349 -133 q-64 0 -121 14.5t-207 76.5t-217 62t-157 -35q-17 -6 -36 -6q-41 0 -41 33t45 50q13 5 67.5 17.5t76.5 56t22 141t-17 312.5l-6 75h-81l-41 -1q-68 0 -68 39t60 39l35 -1l89 -1l-4 141q0 274 130.5 399t350 125t373.5 -112q85 -62 85 -100q0 -13 -12 -25t-29 -12t-55 41 q-69 76 -170 76t-146 -69t-45 -225l8 -218z" />
<glyph unicode="&#xa4;" horiz-adv-x="1365" d="M159 233l179 184q-112 135 -112 295t112 296l-186 183l46 46l183 -182q138 115 302 115t299 -115l185 182l46 -46l-184 -183q111 -137 111 -297t-111 -294l185 -184l-46 -46l-185 184q-135 -111 -296 -111t-300 111l-183 -184zM648 325l36 -1q157 0 271 114t114 276 t-113 277t-272 115q-10 0 -36 -2v-779z" />
<glyph unicode="&#xa5;" d="M998 718h194q68 0 68 -37t-66 -37h-213q0 -29 -1 -46l-1 -46v-108h213q68 0 68 -37t-66 -37h-214l7 -350v-20h-550v33l6 304v33h-249q-67 0 -67 37t68 37h248l1 27v83l1 44v46h-251q-67 0 -67 37t68 37h234q-102 187 -426 647h621l334 -589l273 523q29 61 38.5 73 t26.5 12t28.5 -10t11.5 -24.5t-9 -32t-19 -33.5l-29 -47z" />
<glyph unicode="&#xa6;" horiz-adv-x="1024" d="M378 1365h270v-753h-270v753zM378 314h270v-655h-270v655z" />
<glyph unicode="&#xa7;" d="M993 432q80 -36 124.5 -100t44.5 -144q0 -113 -82 -195q-123 -125 -378 -125t-429 82q-91 42 -91 88q0 15 11 27.5t26.5 12.5t77 -46.5t169.5 -72.5t248.5 -26t220.5 49q47 28 47 67q0 46 -66 69q-20 8 -201 43.5t-262.5 56t-150.5 50.5q-186 80 -186 250q0 214 214 324 q-87 39 -126.5 95t-39.5 140q0 171 164 264q114 65 291 65t303.5 -36.5t126.5 -84.5q0 -39 -37 -39q-18 0 -74 32q-113 64 -331 64q-116 0 -186 -31.5t-70 -86t80.5 -79.5t283 -65.5t289 -78t145.5 -103.5t59 -170t-46.5 -165.5t-168.5 -130.5zM929 451q123 71 123 143 q0 63 -97 89q-75 21 -254 58t-307 75q-115 -55 -115 -130q0 -85 129 -119z" />
<glyph unicode="&#xa8;" horiz-adv-x="1024" d="M619.5 1454.5q52.5 39.5 141 40t141.5 -37t53 -101.5t-54 -104.5t-140 -40.5t-140 38.5t-54 102t52.5 103zM121.5 1454.5q52.5 39.5 141 40t141.5 -37t53 -101.5t-54 -104.5t-140 -40.5t-140 38.5t-54 102t52.5 103z" />
<glyph unicode="&#xa9;" horiz-adv-x="1632" d="M1184 1283q170 -104 253 -268t83 -347t-103.5 -352.5t-267.5 -253t-347.5 -83.5t-352.5 103.5t-253 267.5t-84 347t102.5 352.5t267 253.5t348.5 84t354 -104zM824 1341q-277 0 -469 -192q-92 -92 -142 -214t-50 -254q0 -185 96.5 -343t248 -236t322 -78t327.5 97 t234.5 250t77.5 325t-95 329.5t-243.5 234.5t-306.5 81zM794 1063l-3 -402l3 -360q23 -3 45 -3q115 0 210 54.5t156 155.5q15 25 32 25q28 0 28 -21.5t-31.5 -64.5t-71.5 -78q-136 -120 -321 -120t-323 116q-71 60 -111 144t-40 177t44.5 181t124.5 149q131 100 309.5 100 t314.5 -117q66 -57 66 -84q0 -9 -8.5 -16.5t-21.5 -7.5t-33 25q-122 150 -332 150q-21 0 -37 -3z" />
<glyph unicode="&#xaa;" horiz-adv-x="878" d="M489 877q-100 -58 -187.5 -58t-163.5 52t-76 141.5t75 145.5t174.5 56t177.5 -32v50q-1 88 -14.5 107.5t-82.5 19.5q-109 0 -169 -63q-27 -28 -44.5 -28t-29 10t-11.5 24q0 36 82.5 70t208.5 34q300 0 341 -116q12 -32 12 -111v-200q-2 -58 4 -84t31 -65h-328v47z M490 1130q-66 30 -97 30t-37 -14t-7 -75v-120q1 -45 5.5 -54.5t29 -9.5t38.5 6t68 40v197zM645 614l-130 -1h-119l-113 -2l-164 -2h-10q-50 0 -50 29t43 29l64 -1l205 -1l257 2l127 2h10q49 0 49 -28.5t-54 -28.5l-66 1q-18 1 -49 1z" />
<glyph unicode="&#xab;" horiz-adv-x="716" d="M404 377v377l159 159q13 12 26 26t25 14t12 -31.5t-7 -41t-18.5 -20t-16.5 -15.5l-132 -133l175 -163v-380zM86 377v377l159 159q13 12 26 26t25 14t12 -31.5t-7 -41.5q-13 -18 -35 -35l-132 -133l175 -163v-380z" />
<glyph unicode="&#xac;" horiz-adv-x="1024" d="M542 0v365h-490v182h919v-547h-429z" />
<glyph unicode="&#xad;" horiz-adv-x="716" d="M501 527l-144 -1l-292 -3q-65 0 -65 37.5t63 37.5l71 -2l179 -4l260 6l78 1q65 0 65 -37.5t-66 -37.5l-72 2z" />
<glyph unicode="&#xae;" horiz-adv-x="1632" d="M1184 1283q170 -104 253 -268t83 -347t-103.5 -352.5t-267.5 -253t-347.5 -83.5t-352.5 103.5t-253 267.5t-84 347t102.5 352.5t267 253.5t348.5 84t354 -104zM824 1341q-277 0 -469 -192q-92 -92 -142 -214t-50 -254q0 -185 96.5 -343t248 -236t322 -78t327.5 97 t234.5 250t77.5 325t-95 329.5t-243.5 234.5t-306.5 81zM969 401q136 -78 266 -97q25 -5 25 -25q0 -26 -37 -26q-70 0 -180.5 50t-232.5 138v-10l1 -101v-64h-404l1 33l3 423l-2 363h265q174 0 261.5 -9t151.5 -33q103 -40 161 -127.5t58 -180.5q0 -131 -96 -226.5 t-241 -107.5zM889 450q19 -1 28 -1q130 0 218 66q54 40 84.5 99t30.5 122q0 129 -106 213q-54 43 -128.5 61.5t-200.5 19.5l-6 -496l1 -24q37 -33 79 -60z" />
<glyph unicode="&#xaf;" horiz-adv-x="1024" d="M-3 1757h1031v-200h-1031v200z" />
<glyph unicode="&#xb0;" horiz-adv-x="645" d="M134 1288q80 76 192 76.5t192 -76.5t80 -186.5t-79.5 -187t-192.5 -77.5t-192.5 77.5t-79.5 187.5t80 186zM481 950q63 63 63 152t-64 150.5t-154 62t-154 -62t-64 -151.5t64 -151.5t154 -62.5t155 63z" />
<glyph unicode="&#xb1;" d="M890 753l-1 -44l2 -119l4 -174h-461l4 174l2 119l-1 44h-90l-187 -1q-64 -1 -64 39t64 40l89 -1h188l1 44l-2 119l-4 174h461l-4 -174l-2 -119l1 -44h207l73 2q56 0 56 -40t-56 -40l-87 2l-58 -1h-135zM1040 229l-807 -4h-74q-64 0 -64 37.5t63 37.5l71 -2l307 -3l549 5 l79 1q64 0 64 -37.5t-67 -37.5z" />
<glyph unicode="&#xb2;" horiz-adv-x="898" d="M561 1266q0 66 -120.5 66t-214.5 -65q-41 -28 -65 -68t-24 -79.5t43 -97.5q7 -9 7 -20t-9.5 -20t-30 -9t-45 44.5t-24.5 100t34.5 110.5t94.5 92q106 66 252.5 66t226.5 -36q154 -68 154 -208q0 -88 -78.5 -210t-177.5 -249l-68 -86l9 1q175 0 225 6.5t64 6.5 q27 0 27 -27q0 -38 -68 -38h-742q170 180 350 423.5t180 296.5z" />
<glyph unicode="&#xb3;" horiz-adv-x="898" d="M409 1332q-147 0 -224 -79q-29 -29 -49 -29q-31 0 -31 35q0 26 55 61q107 66 265 66t255.5 -50.5t97.5 -158.5q0 -82 -68.5 -133t-193.5 -63q151 -16 214 -55q92 -57 92 -161t-113.5 -173t-300 -69t-298.5 69q-75 47 -75 83.5t34 36.5q16 0 24.5 -7t29 -41.5t97 -61.5 t166.5 -27l23 1v380h-90q-34 0 -44.5 5t-10.5 22t10.5 22.5t45.5 5.5h89v321z" />
<glyph unicode="&#xb4;" horiz-adv-x="1024" d="M355 1204l98 274h352l-216 -274h-234z" />
<glyph unicode="&#xb5;" horiz-adv-x="1546" d="M485 87l49 -133h-432l3 358l1 168l1 245l-5 367h511l-5 -447l2 -264q0 -115 16 -139.5t63 -24.5t98.5 25t133.5 89l2 434l-5 297v30h512l-3 -786l3 -306h-511v250q-226 -157 -434 -163z" />
<glyph unicode="&#xb6;" d="M575 -210v846h-33q-120 0 -206 50t-131.5 131.5t-45.5 180t46.5 182.5t135.5 134.5t256 50.5h464v-62h-106v-1513h-69v1513h-242v-1513h-69z" />
<glyph unicode="&#xb8;" horiz-adv-x="1024" d="M485 -193l-68 -13q-22 0 -22 22q0 8 25 62l58 122h71l-67 -141q26 3 37 3q182 0 182 -152q0 -74 -56 -117t-144.5 -43t-133.5 33.5t-45 61.5q0 10 8.5 18.5t18 8.5t35.5 -20q48 -38 78 -38t57 9v179q-22 5 -34 5z" />
<glyph unicode="&#xb9;" horiz-adv-x="898" d="M676 1380l-5 -343l5 -465v-26h-383v27l4 281l1 188l3 136q0 27 -4 52l-94 -27q-16 -5 -27 -5q-26 0 -26 27q0 18 11.5 24.5t62.5 18.5z" />
<glyph unicode="&#xba;" horiz-adv-x="878" d="M191 925q-72 82 -72 199.5t98 198.5t228 82t221.5 -86t91.5 -201.5t-77 -196.5q-95 -102 -245 -102t-245 106zM428 1360v-494h18q109 0 186.5 71.5t77.5 180.5t-86 175.5t-177 66.5h-19zM616 614l-110 -1h-102l-95 -2l-139 -2h-9q-42 0 -42 29t37 29l54 -1l174 -1l218 2 l107 2h9q41 0 41 -28.5t-46 -28.5l-56 1q-15 1 -41 1z" />
<glyph unicode="&#xbb;" horiz-adv-x="716" d="M312 745v-378l-159 -159q-40 -39 -49 -39q-14 -1 -14 31t7 41.5t19 20t16 14.5l132 133l-175 164v380zM630 745v-378l-159 -159q-40 -39 -49 -39q-14 -1 -14 30.5t7 41.5t19 20.5t16 14.5l132 133l-175 164v380z" />
<glyph unicode="&#xbc;" horiz-adv-x="1876" d="M645 1380l-5 -343l5 -465v-26h-383v27l4 281l1 188l3 136q0 27 -4 52l-94 -27q-16 -5 -27 -5q-26 0 -26 27q0 18 11.5 24.5t62.5 18.5zM1278 1286l-596 -1196q-21 -40 -27 -54q-25 -60 -52 -60q-12 0 -22 9.5t-10 20.5t29 68l602 1210q40 79 49 92t22.5 13t23 -9.5 t9.5 -23.5t-28 -70zM1740 163v-163h-373l1 89l2 65v7h-66l-149 -2h-37q-68 0 -68 33q0 17 29 46l662 655l-1 -60l-1 -198l-1 -226l1 -193l104 6q29 0 29 -28q0 -21 -10.5 -25.5t-60.5 -5.5h-61zM1370 215v232l-234 -231q47 -2 101 -2z" />
<glyph unicode="&#xbd;" horiz-adv-x="1876" d="M645 1380l-5 -343l5 -465v-26h-383v27l4 281l1 188l3 136q0 27 -4 52l-94 -27q-16 -5 -27 -5q-26 0 -26 27q0 18 11.5 24.5t62.5 18.5zM1278 1286l-596 -1196q-21 -40 -27 -54q-25 -60 -52 -60q-12 0 -22 9.5t-10 20.5t29 68l602 1210q40 79 49 92t22.5 13t23 -9.5 t9.5 -23.5t-28 -70zM1563 720q0 66 -120.5 66t-212 -63.5t-91.5 -147.5q0 -41 42 -99q7 -9 7 -20t-9.5 -20t-21.5 -9q-29 0 -53 44.5t-24 100t34.5 110t95.5 92.5q106 66 252 66t226 -36q154 -68 154 -208q0 -87 -77.5 -207.5t-179.5 -251.5l-67 -86l8 1q175 0 225 6.5 t64 6.5q27 0 27 -27q0 -38 -68 -38h-742q169 178 350 422.5t181 297.5z" />
<glyph unicode="&#xbe;" horiz-adv-x="1876" d="M378 1332q-147 0 -224 -79q-29 -29 -49 -29q-31 0 -31 35q0 26 55 61q107 66 265 66t255.5 -50.5t97.5 -158.5q0 -82 -68.5 -133t-193.5 -63q151 -16 214 -55q92 -57 92 -161t-113.5 -173t-300 -69t-298.5 69q-75 47 -75 83.5t34 36.5q16 0 24.5 -7.5t28.5 -41t97 -61 t167 -27.5l23 1v380h-90q-34 0 -44.5 5t-10.5 22t10.5 22.5t45.5 5.5h89v321zM1230 1192l-549 -1102q-21 -40 -26 -54q-25 -60 -53 -60q-12 0 -22 9.5t-10 20.5t29 68l603 1210q39 79 48 92t23 13t23 -9.5t9 -23.5t-75 -164zM1740 163v-163h-374l1 89l2 65v7h-66l-149 -2 h-37q-68 0 -68 33q0 17 29 46l663 655l-1 -60l-1 -198l-2 -226l2 -193l104 6q29 0 29 -28q0 -21 -10.5 -25.5t-60.5 -5.5h-61zM1369 215v232l-234 -231q47 -2 101 -2z" />
<glyph unicode="&#xbf;" horiz-adv-x="1133" d="M974 5l-10 78q0 14 12 24.5t32 10.5t35 -24t15 -78t-46 -126q-132 -208 -449 -208q-256 0 -392 135q-103 103 -103 247.5t75.5 233.5t167.5 122.5t267 41.5v91h67l-3 -801q143 8 237.5 86.5t94.5 166.5zM401.5 737q-82.5 62 -82.5 155.5t72.5 159.5t212 66.5t223 -60 t83.5 -158t-80 -161.5t-213 -64t-215.5 62z" />
<glyph unicode="&#xc0;" horiz-adv-x="1599" d="M825 1447l800 -1447h-693l-95 183h-336l-296 1l-50 1l-66 -122q-29 -55 -40.5 -68.5t-28.5 -13.5q-34 0 -34 30q0 13 19.5 48.5t136.5 233.5zM514 792l-175 -295l-140 -243l300 -4l301 3zM959 1476h-234l-216 274h352z" />
<glyph unicode="&#xc1;" horiz-adv-x="1599" d="M825 1447l800 -1447h-693l-95 183h-336l-296 1l-50 1l-66 -122q-29 -55 -40.5 -68.5t-28.5 -13.5q-34 0 -34 30q0 13 19.5 48.5t136.5 233.5zM514 792l-175 -295l-140 -243l300 -4l301 3zM687 1476l98 274h352l-216 -274h-234z" />
<glyph unicode="&#xc2;" horiz-adv-x="1599" d="M825 1447l800 -1447h-693l-95 183h-336l-296 1l-50 1l-66 -122q-29 -55 -40.5 -68.5t-28.5 -13.5q-34 0 -34 30q0 13 19.5 48.5t136.5 233.5zM514 792l-175 -295l-140 -243l300 -4l301 3zM1227 1485h-375l-145 209l-138 -164q-48 -57 -74 -57t-26 27q0 11 32 51l176 203 h343z" />
<glyph unicode="&#xc3;" horiz-adv-x="1599" d="M825 1447l800 -1447h-693l-95 183h-336l-296 1l-50 1l-66 -122q-29 -55 -40.5 -68.5t-28.5 -13.5q-34 0 -34 30q0 13 19.5 48.5t136.5 233.5zM514 792l-175 -295l-140 -243l300 -4l301 3zM696 1772l427 -101l84 75q22 20 33.5 20t21.5 -9.5t10 -20t-23 -32.5l-252 -242 l-436 102l-87 -78q-21 -19 -34.5 -19t-23 9.5t-9.5 22t23 33.5z" />
<glyph unicode="&#xc4;" horiz-adv-x="1599" d="M825 1447l800 -1447h-693l-95 183h-336l-296 1l-50 1l-66 -122q-29 -55 -40.5 -68.5t-28.5 -13.5q-34 0 -34 30q0 13 19.5 48.5t136.5 233.5zM514 792l-175 -295l-140 -243l300 -4l301 3zM926.5 1726.5q52.5 39.5 141 40t141.5 -37t53 -101.5t-54 -104.5t-140 -40.5 t-140 38.5t-54 102t52.5 103zM428.5 1726.5q52.5 39.5 141 40t141.5 -37t53 -101.5t-54 -104.5t-140 -40.5t-140 38.5t-54 102t52.5 103z" />
<glyph unicode="&#xc5;" horiz-adv-x="1599" d="M825 1447l800 -1447h-693l-95 183h-336l-296 1l-50 1l-66 -122q-29 -55 -40.5 -68.5t-28.5 -13.5q-34 0 -34 30q0 13 19.5 48.5t136.5 233.5zM514 792l-175 -295l-140 -243l300 -4l301 3zM670.5 1811q58.5 57 148.5 57.5t149 -58.5t59 -144t-61 -142t-150.5 -57 t-146.5 56t-57 143.5t58.5 144.5zM923 1765q-41 40 -77.5 40t-71.5 -11v-252q38 -10 58 -10q52 0 91.5 41t39.5 96.5t-40 95.5z" />
<glyph unicode="&#xc6;" horiz-adv-x="2357" d="M1703 921l-2 -270l6 -586l374 4h70l90 2l59 2q53 0 53 -36q0 -24 -15 -30.5t-70 -6.5h-1171v264l-483 4l-328 -2l-105 -134q-74 -95 -103.5 -123t-61 -28t-31.5 27q0 15 43 66l1073 1291h1096q50 -1 61.5 -6.5t11.5 -28.5q0 -39 -44 -39q-11 0 -34 2l-316 6h-173v-314 h156l290 4l123 2q47 0 47 -34q0 -40 -56 -40l-15 1h-121l-267 3h-157zM1098 1256l-749 -912q79 -6 441 -8q254 3 307 8l5 456z" />
<glyph unicode="&#xc7;" horiz-adv-x="1446" d="M720 -193l-68 -13q-22 0 -22 22q0 9 11 34l55 115q-245 38 -409 189q-120 109 -176 252t-56 277q0 196 105.5 375.5t305.5 277.5q144 70 312 70q289 0 499 -195q100 -93 100 -134q0 -11 -10 -20t-26 -9t-44 38q-86 120 -227 189.5t-299 69.5q-37 0 -70 -8l-5 -708l5 -602 q51 -7 118 -7t169.5 35t167.5 84q128 97 207 242q19 36 41 36q33 0 33 -29t-49 -100q-159 -229 -410 -300q-106 -29 -186 -29h-28l-47 -99q26 2 37 2q182 0 182 -152q0 -73 -56 -116t-145 -43t-133.5 33.5t-44.5 60.5q0 10 8.5 18.5t18 8.5t36.5 -20q49 -37 79 -37t55 9v178 q-22 5 -34 5z" />
<glyph unicode="&#xc8;" horiz-adv-x="1371" d="M724 927q-2 -46 -2 -112v-60l7 -690l579 7q59 0 59 -36q0 -30 -30 -34q-7 -1 -83 -2h-1136l1 52l1 334l4 358l-8 621h1060q71 0 81 -3q23 -6 23 -34q0 -35 -44 -35h-7l-501 7l-4 -310l109 -1l350 6l77 1q42 0 55.5 -7t13.5 -28q0 -39 -66 -39l-79 2zM883 1477h-234 l-216 274h352z" />
<glyph unicode="&#xc9;" horiz-adv-x="1371" d="M724 927q-2 -46 -2 -112v-60l7 -690l579 7q59 0 59 -36q0 -30 -30 -34q-7 -1 -83 -2h-1136l1 52l1 334l4 358l-8 621h1060q71 0 81 -3q23 -6 23 -34q0 -35 -44 -35h-7l-501 7l-4 -310l109 -1l350 6l77 1q42 0 55.5 -7t13.5 -28q0 -39 -66 -39l-79 2zM597 1476l98 274h352 l-216 -274h-234z" />
<glyph unicode="&#xca;" horiz-adv-x="1371" d="M724 927q-2 -46 -2 -112v-60l7 -690l579 7q59 0 59 -36q0 -30 -30 -34q-7 -1 -83 -2h-1136l1 52l1 334l4 358l-8 621h1060q71 0 81 -3q23 -6 23 -34q0 -35 -44 -35h-7l-501 7l-4 -310l109 -1l350 6l77 1q42 0 55.5 -7t13.5 -28q0 -39 -66 -39l-79 2zM1099 1485h-375 l-145 209l-138 -164q-48 -57 -74 -57t-26 27q0 11 32 51l176 203h343z" />
<glyph unicode="&#xcb;" horiz-adv-x="1371" d="M724 927q-2 -46 -2 -112v-60l7 -690l579 7q59 0 59 -36q0 -30 -30 -34q-7 -1 -83 -2h-1136l1 52l1 334l4 358l-8 621h1060q71 0 81 -3q23 -6 23 -34q0 -35 -44 -35h-7l-501 7l-4 -310l109 -1l350 6l77 1q42 0 55.5 -7t13.5 -28q0 -39 -66 -39l-79 2zM829.5 1726.5 q52.5 39.5 141 40t141.5 -37t53 -101.5t-54 -104.5t-140 -40.5t-140 38.5t-54 102t52.5 103zM331.5 1726.5q52.5 39.5 141 40t141.5 -37t53 -101.5t-54 -104.5t-140 -40.5t-140 38.5t-54 102t52.5 103z" />
<glyph unicode="&#xcc;" horiz-adv-x="844" d="M728 1365v-70l-5 -548l4 -747h-611l7 817l-7 499l1 49h611zM575 1476h-234l-216 274h352z" />
<glyph unicode="&#xcd;" horiz-adv-x="844" d="M728 1365v-70l-5 -548l4 -747h-611l7 817l-7 499l1 49h611zM286 1477l98 274h352l-216 -274h-234z" />
<glyph unicode="&#xce;" horiz-adv-x="844" d="M728 1365v-70l-5 -548l4 -747h-611l7 817l-7 499l1 49h611zM801 1485h-375l-145 209l-138 -164q-48 -57 -74 -57t-26 27q0 11 32 51l176 203h343z" />
<glyph unicode="&#xcf;" horiz-adv-x="844" d="M728 1365v-70l-5 -548l4 -747h-611l7 817l-7 499l1 49h611zM531.5 1726.5q52.5 39.5 141 40t141.5 -37t53 -101.5t-54 -104.5t-140 -40.5t-140 38.5t-54 102t52.5 103zM33.5 1726.5q52.5 39.5 141 40t141.5 -37t53 -101.5t-54 -104.5t-140 -40.5t-140 38.5t-54 102 t52.5 103z" />
<glyph unicode="&#xd0;" horiz-adv-x="1566" d="M144 1365h525q207 0 310 -20q257 -49 415 -274q124 -177 124 -392t-128 -394q-188 -262 -515 -282q-50 -3 -221 -3h-508l4 408l-2 342v110h-104q-42 0 -55 7t-13 30t13.5 29t64.5 6h92l-1 232zM754 1301v-151l-1 -218h199q60 0 74.5 -6t14.5 -30.5t-14 -30t-74 -6.5h-201 l-2 -329l6 -466q134 1 192 10.5t134 42.5q179 77 274.5 236t95.5 337.5t-105 334.5q-187 277 -553 277z" />
<glyph unicode="&#xd1;" horiz-adv-x="1508" d="M1342 701v167l-2 265l-1 121l-1 76q0 54 37 54q22 0 30.5 -12.5t8.5 -47.5v-14q-1 -21 -1 -69l-4 -337l-3 -309l3 -325l4 -326q-206 129 -603 356.5t-643 357.5l11 -565l1 -69q0 -43 -40.5 -43t-40.5 53l1 70l5 626l-8 691q405 -251 1246 -720zM681 1769l427 -101l84 75 q22 20 33.5 20t21.5 -9.5t10 -20t-23 -32.5l-252 -242l-436 102l-87 -78q-21 -19 -34.5 -19t-23 9.5t-9.5 22t23 33.5z" />
<glyph unicode="&#xd2;" horiz-adv-x="1553" d="M473 1338q143 67 304 67.5t308 -66.5q216 -99 330 -305q91 -165 91 -340t-69 -321q-103 -218 -321 -331q-160 -83 -341 -83t-347 94q-221 124 -315 348q-58 137 -58 301.5t91 330.5q112 204 327 305zM701 1339l-6 -651l5 -541l1 -122q34 -6 65 -6q221 0 387.5 117 t237.5 293q50 123 50 276t-84 303q-103 184 -290 271q-140 66 -295 66q-36 0 -71 -6zM933 1476h-234l-216 274h352z" />
<glyph unicode="&#xd3;" horiz-adv-x="1553" d="M473 1338q143 67 304 67.5t308 -66.5q216 -99 330 -305q91 -165 91 -340t-69 -321q-103 -218 -321 -331q-160 -83 -341 -83t-347 94q-221 124 -315 348q-58 137 -58 301.5t91 330.5q112 204 327 305zM701 1339l-6 -651l5 -541l1 -122q34 -6 65 -6q221 0 387.5 117 t237.5 293q50 123 50 276t-84 303q-103 184 -290 271q-140 66 -295 66q-36 0 -71 -6zM607 1476l98 274h352l-216 -274h-234z" />
<glyph unicode="&#xd4;" horiz-adv-x="1553" d="M473 1338q143 67 304 67.5t308 -66.5q216 -99 330 -305q91 -165 91 -340t-69 -321q-103 -218 -321 -331q-160 -83 -341 -83t-347 94q-221 124 -315 348q-58 137 -58 301.5t91 330.5q112 204 327 305zM701 1339l-6 -651l5 -541l1 -122q34 -6 65 -6q221 0 387.5 117 t237.5 293q50 123 50 276t-84 303q-103 184 -290 271q-140 66 -295 66q-36 0 -71 -6zM1169 1485h-375l-145 209l-138 -164q-48 -57 -74 -57t-26 27q0 11 32 51l176 203h343z" />
<glyph unicode="&#xd5;" horiz-adv-x="1553" d="M473 1338q143 67 304 67.5t308 -66.5q216 -99 330 -305q91 -165 91 -340t-69 -321q-103 -218 -321 -331q-160 -83 -341 -83t-347 94q-221 124 -315 348q-58 137 -58 301.5t91 330.5q112 204 327 305zM701 1339l-6 -651l5 -541l1 -122q34 -6 65 -6q221 0 387.5 117 t237.5 293q50 123 50 276t-84 303q-103 184 -290 271q-140 66 -295 66q-36 0 -71 -6zM661 1771l427 -101l84 75q22 20 33.5 20t21.5 -9.5t10 -20t-23 -32.5l-252 -242l-436 102l-87 -78q-21 -19 -34.5 -19t-23 9.5t-9.5 22t23 33.5z" />
<glyph unicode="&#xd6;" horiz-adv-x="1553" d="M473 1338q143 67 304 67.5t308 -66.5q216 -99 330 -305q91 -165 91 -340t-69 -321q-103 -218 -321 -331q-160 -83 -341 -83t-347 94q-221 124 -315 348q-58 137 -58 301.5t91 330.5q112 204 327 305zM701 1339l-6 -651l5 -541l1 -122q34 -6 65 -6q221 0 387.5 117 t237.5 293q50 123 50 276t-84 303q-103 184 -290 271q-140 66 -295 66q-36 0 -71 -6zM889.5 1728.5q52.5 39.5 141 40t141.5 -37t53 -101.5t-54 -104.5t-140 -40.5t-140 38.5t-54 102t52.5 103zM391.5 1728.5q52.5 39.5 141 40t141.5 -37t53 -101.5t-54 -104.5t-140 -40.5 t-140 38.5t-54 102t52.5 103z" />
<glyph unicode="&#xd7;" d="M713 687l228 -227q63 -62 74 -75t11 -30q0 -31 -31 -31q-17 0 -33 13t-68 68l-232 230q-59 -63 -116 -115l-115 -115q-52 -55 -68 -68t-31 -13t-24 9.5t-9 23.5t10.5 27.5t74.5 75.5l228 226l-282 279q-31 30 -31 51q0 32 31 32q17 0 33 -12.5t68 -68.5l231 -230l232 230 q53 56 68.5 68.5t32.5 12.5q31 0 31 -31q0 -17 -10.5 -30t-74.5 -75z" />
<glyph unicode="&#xd8;" horiz-adv-x="1550" d="M1251 1230q251 -229 251 -548q0 -270 -180 -477q-100 -115 -244 -180.5t-300 -65.5q-240 0 -454 156l-78 -95q-30 -37 -41 -46.5t-24 -9.5q-38 0 -38 38q0 11 6 20.5t43 56.5l74 91q-211 222 -211 525t217 507t504 204q226 0 409 -124l60 73q32 39 46 50.5t29 11.5 t27.5 -11.5t12.5 -24t-6.5 -22.5t-47.5 -59zM1210 1183l-512 -665v-492q39 -6 78 -6q192 0 356 104.5t245 280.5q62 132 62 276q0 290 -229 502zM1143 1232q-165 112 -367 112q-39 0 -78 -6v-694z" />
<glyph unicode="&#xd9;" horiz-adv-x="1539" d="M728 1365l-5 -518l-2 -544l3 -277q51 -4 89 -4q351 0 470 163q61 84 80.5 238.5t19.5 561.5l-3 265l-4 82q0 52 43 52q38 0 38 -50q0 -29 -3 -79l-8 -399q-4 -252 -9 -342.5t-20 -169.5q-31 -163 -143 -260q-143 -125 -468.5 -125t-480.5 82q-122 63 -173 213 q-23 69 -27 142t-5 445l-4 524h612zM977 1476h-234l-216 274h352z" />
<glyph unicode="&#xda;" horiz-adv-x="1539" d="M728 1365l-5 -518l-2 -544l3 -277q51 -4 89 -4q351 0 470 163q61 84 80.5 238.5t19.5 561.5l-3 265l-4 82q0 52 43 52q38 0 38 -50q0 -29 -3 -79l-8 -399q-4 -252 -9 -342.5t-20 -169.5q-31 -163 -143 -260q-143 -125 -468.5 -125t-480.5 82q-122 63 -173 213 q-23 69 -27 142t-5 445l-4 524h612zM683 1476l98 274h352l-216 -274h-234z" />
<glyph unicode="&#xdb;" horiz-adv-x="1539" d="M728 1365l-5 -518l-2 -544l3 -277q51 -4 89 -4q351 0 470 163q61 84 80.5 238.5t19.5 561.5l-3 265l-4 82q0 52 43 52q38 0 38 -50q0 -29 -3 -79l-8 -399q-4 -252 -9 -342.5t-20 -169.5q-31 -163 -143 -260q-143 -125 -468.5 -125t-480.5 82q-122 63 -173 213 q-23 69 -27 142t-5 445l-4 524h612zM1203 1485h-375l-145 209l-138 -164q-48 -57 -74 -57t-26 27q0 11 32 51l176 203h343z" />
<glyph unicode="&#xdc;" horiz-adv-x="1539" d="M728 1365l-5 -518l-2 -544l3 -277q51 -4 89 -4q351 0 470 163q61 84 80.5 238.5t19.5 561.5l-3 265l-4 82q0 52 43 52q38 0 38 -50q0 -29 -3 -79l-8 -399q-4 -252 -9 -342.5t-20 -169.5q-31 -163 -143 -260q-143 -125 -468.5 -125t-480.5 82q-122 63 -173 213 q-23 69 -27 142t-5 445l-4 524h612zM921.5 1728.5q52.5 39.5 141 40t141.5 -37t53 -101.5t-54 -104.5t-140 -40.5t-140 38.5t-54 102t52.5 103zM423.5 1728.5q52.5 39.5 141 40t141.5 -37t53 -101.5t-54 -104.5t-140 -40.5t-140 38.5t-54 102t52.5 103z" />
<glyph unicode="&#xdd;" horiz-adv-x="1501" d="M1096 844l318 465q32 51 44 63t30 12t29.5 -9t11.5 -22q0 -19 -32 -59l-878 -1231q-43 -60 -54.5 -71t-31.5 -11q-32 0 -32 28q0 15 29 49l228 310l-28 38q-304 409 -429.5 570t-318.5 389h725zM661 1476l98 274h352l-216 -274h-234z" />
<glyph unicode="&#xde;" horiz-adv-x="1560" d="M766 170v-28l1 -124v-18h-610l1 54l5 706l-4 331l-1 227l-1 47h609v-136q286 -9 454.5 -79.5t258.5 -233.5q62 -113 62 -234q0 -242 -169.5 -385.5t-415.5 -143.5q-68 0 -190 17zM767 1163v-68l-4 -604l2 -253q77 -21 197 -21q243 0 397 160q115 119 115 289t-105 301 q-157 197 -546 197z" />
<glyph unicode="&#xdf;" horiz-adv-x="1465" d="M1424 923q0 -219 -195 -323q157 -93 157 -245t-98 -259t-258 -107t-245 124q-36 53 -36 94q0 34 38 34q21 0 29 -11t30 -65q45 -110 179.5 -110t212.5 87.5t78 200.5q0 77 -45 138t-123 91q-58 -12 -101 -12q-158 0 -158 86q0 22 16 22q10 0 27 -10q54 -32 142 -32 t168 57q116 81 116 235.5t-112 255.5t-248.5 101t-215.5 -76q-38 -37 -53.5 -90t-15.5 -145l5 -475q0 -152 -8 -248.5t-32 -240.5h-599q47 270 46 533t4 355t22 153q49 172 201 255.5t416 83.5q357 0 526 -157q130 -122 130 -300z" />
<glyph unicode="&#xe0;" horiz-adv-x="1442" d="M825 105q-185 -127 -347.5 -127t-278.5 87q-151 114 -151 285.5t132 279.5t342 108q86 0 152 -15.5t151 -56.5v122q-1 127 -4 156t-18 52q-36 56 -168 56q-204 0 -315 -128q-45 -52 -72 -52t-44 16t-17 37q0 63 145.5 128.5t370.5 65.5q370 0 522 -112q66 -49 86 -110 t20 -215v-397q-4 -110 6.5 -165.5t47.5 -119.5h-560v105zM826 594q-126 63 -189.5 63t-81.5 -46q-10 -25 -10 -145v-239q1 -79 5 -96q10 -46 62 -46q108 0 212 100zM892 1204h-234l-216 274h352z" />
<glyph unicode="&#xe1;" horiz-adv-x="1442" d="M825 105q-185 -127 -347.5 -127t-278.5 87q-151 114 -151 285.5t132 279.5t342 108q86 0 152 -15.5t151 -56.5v122q-1 127 -4 156t-18 52q-36 56 -168 56q-204 0 -315 -128q-45 -52 -72 -52t-44 16t-17 37q0 63 145.5 128.5t370.5 65.5q370 0 522 -112q66 -49 86 -110 t20 -215v-397q-4 -110 6.5 -165.5t47.5 -119.5h-560v105zM826 594q-126 63 -189.5 63t-81.5 -46q-10 -25 -10 -145v-239q1 -79 5 -96q10 -46 62 -46q108 0 212 100zM578 1204l98 274h352l-216 -274h-234z" />
<glyph unicode="&#xe2;" horiz-adv-x="1442" d="M825 105q-185 -127 -347.5 -127t-278.5 87q-151 114 -151 285.5t132 279.5t342 108q86 0 152 -15.5t151 -56.5v122q-1 127 -4 156t-18 52q-36 56 -168 56q-204 0 -315 -128q-45 -52 -72 -52t-44 16t-17 37q0 63 145.5 128.5t370.5 65.5q370 0 522 -112q66 -49 86 -110 t20 -215v-397q-4 -110 6.5 -165.5t47.5 -119.5h-560v105zM826 594q-126 63 -189.5 63t-81.5 -46q-10 -25 -10 -145v-239q1 -79 5 -96q10 -46 62 -46q108 0 212 100zM1121 1213h-375l-145 209l-138 -164q-48 -57 -74 -57t-26 27q0 11 32 51l176 203h343z" />
<glyph unicode="&#xe3;" horiz-adv-x="1442" d="M825 105q-185 -127 -347.5 -127t-278.5 87q-151 114 -151 285.5t132 279.5t342 108q86 0 152 -15.5t151 -56.5v122q-1 127 -4 156t-18 52q-36 56 -168 56q-204 0 -315 -128q-45 -52 -72 -52t-44 16t-17 37q0 63 145.5 128.5t370.5 65.5q370 0 522 -112q66 -49 86 -110 t20 -215v-397q-4 -110 6.5 -165.5t47.5 -119.5h-560v105zM826 594q-126 63 -189.5 63t-81.5 -46q-10 -25 -10 -145v-239q1 -79 5 -96q10 -46 62 -46q108 0 212 100zM633 1509l427 -101l84 75q22 20 33.5 20t21.5 -9.5t10 -20t-23 -32.5l-252 -242l-436 102l-87 -78 q-21 -19 -34.5 -19t-23 9.5t-9.5 22t23 33.5z" />
<glyph unicode="&#xe4;" horiz-adv-x="1442" d="M825 105q-185 -127 -347.5 -127t-278.5 87q-151 114 -151 285.5t132 279.5t342 108q86 0 152 -15.5t151 -56.5v122q-1 127 -4 156t-18 52q-36 56 -168 56q-204 0 -315 -128q-45 -52 -72 -52t-44 16t-17 37q0 63 145.5 128.5t370.5 65.5q370 0 522 -112q66 -49 86 -110 t20 -215v-397q-4 -110 6.5 -165.5t47.5 -119.5h-560v105zM826 594q-126 63 -189.5 63t-81.5 -46q-10 -25 -10 -145v-239q1 -79 5 -96q10 -46 62 -46q108 0 212 100zM845.5 1454.5q52.5 39.5 141 40t141.5 -37t53 -101.5t-54 -104.5t-140 -40.5t-140 38.5t-54 102t52.5 103z M347.5 1454.5q52.5 39.5 141 40t141.5 -37t53 -101.5t-54 -104.5t-140 -40.5t-140 38.5t-54 102t52.5 103z" />
<glyph unicode="&#xe5;" horiz-adv-x="1442" d="M825 105q-185 -127 -347.5 -127t-278.5 87q-151 114 -151 285.5t132 279.5t342 108q86 0 152 -15.5t151 -56.5v122q-1 127 -4 156t-18 52q-36 56 -168 56q-204 0 -315 -128q-45 -52 -72 -52t-44 16t-17 37q0 63 145.5 128.5t370.5 65.5q370 0 522 -112q66 -49 86 -110 t20 -215v-397q-4 -110 6.5 -165.5t47.5 -119.5h-560v105zM826 594q-126 63 -189.5 63t-81.5 -46q-10 -25 -10 -145v-239q1 -79 5 -96q10 -46 62 -46q108 0 212 100zM585.5 1545q58.5 57 148.5 57.5t149 -58.5t59 -144t-61 -142t-150.5 -57t-146.5 56t-57 143.5t58.5 144.5z M838 1499q-41 40 -77.5 40t-71.5 -11v-252q38 -10 58 -10q52 0 91.5 41t39.5 96.5t-40 95.5z" />
<glyph unicode="&#xe6;" horiz-adv-x="2012" d="M1130 1053q140 66 276 66t264.5 -68.5t215 -199.5t86.5 -317v-22l-262 2h-54l-225 -2l-135 -1v-277q1 -123 13 -147q21 -45 99 -45q142 0 276 92q57 40 89 71t68 80.5t55.5 49.5t32 -13t12.5 -36t-37 -69t-98 -93q-192 -146 -412 -146q-69 0 -155 22h-416v107 q-167 -129 -340.5 -129t-290.5 94q-144 116 -144 291.5t144 274t316.5 98.5t316.5 -72v165q-3 103 -7 125q-14 94 -179 94q-208 0 -313 -120q-33 -37 -49 -48.5t-37 -11.5t-37.5 16t-16.5 37q0 47 87 100.5t185.5 75.5t245.5 22q254 0 426 -66zM1552 578v201q0 180 -4 205 q-11 74 -131 74q-105 0 -117 -80q-3 -19 -3 -183v-217q36 -4 120.5 -4t134.5 4zM824 590q-115 65 -188 65t-86 -61q-5 -22 -6 -159v-227q0 -69 9 -89q16 -35 59 -35q79 0 210 99z" />
<glyph unicode="&#xe7;" horiz-adv-x="1154" d="M580 -193l-68 -13q-22 0 -22 22q0 9 25 62l49 103q-158 16 -272 98t-179 204t-65 266q0 256 192 426q161 144 396 144q189 0 329 -89q60 -38 98 -81.5t38 -66t-11.5 -33t-29.5 -10.5t-57 57.5t-138 107t-172 49.5t-90 -32.5t-17 -145.5v-667l-1 -64q0 -62 15.5 -82.5 t61.5 -20.5q111 0 226 68t192 198q22 37 40 37t30.5 -13.5t12.5 -28.5q0 -46 -83.5 -128.5t-195.5 -139.5t-252 -56l-56 -119q26 3 37 3q182 0 182 -152q0 -74 -56 -117t-144.5 -43t-133.5 33.5t-45 61.5q0 10 8.5 18.5t18 8.5t35.5 -20q51 -38 81 -38t54 9v179q-21 5 -33 5 z" />
<glyph unicode="&#xe8;" horiz-adv-x="1226" d="M515 514v-310q0 -90 11 -114q21 -46 99 -46q116 0 229.5 63.5t196.5 175.5q27 37 39 47t27.5 10t26.5 -12.5t11 -31.5q0 -42 -77.5 -123t-208 -138t-254.5 -57q-213 0 -376 143q-95 84 -143 199.5t-48 221.5t40 210q85 223 302 319q109 48 228 48q185 0 335 -109 q234 -170 232 -493h-233l-300 -1zM771 580v292q-2 94 -4 112q-8 74 -128 74q-88 0 -110 -45q-14 -27 -14 -141v-292l122 -4zM784 1204h-234l-216 274h352z" />
<glyph unicode="&#xe9;" horiz-adv-x="1226" d="M515 514v-310q0 -90 11 -114q21 -46 99 -46q116 0 229.5 63.5t196.5 175.5q27 37 39 47t27.5 10t26.5 -12.5t11 -31.5q0 -42 -77.5 -123t-208 -138t-254.5 -57q-213 0 -376 143q-95 84 -143 199.5t-48 221.5t40 210q85 223 302 319q109 48 228 48q185 0 335 -109 q234 -170 232 -493h-233l-300 -1zM771 580v292q-2 94 -4 112q-8 74 -128 74q-88 0 -110 -45q-14 -27 -14 -141v-292l122 -4zM470 1204l98 274h352l-216 -274h-234z" />
<glyph unicode="&#xea;" horiz-adv-x="1226" d="M515 514v-310q0 -90 11 -114q21 -46 99 -46q116 0 229.5 63.5t196.5 175.5q27 37 39 47t27.5 10t26.5 -12.5t11 -31.5q0 -42 -77.5 -123t-208 -138t-254.5 -57q-213 0 -376 143q-95 84 -143 199.5t-48 221.5t40 210q85 223 302 319q109 48 228 48q185 0 335 -109 q234 -170 232 -493h-233l-300 -1zM771 580v292q-2 94 -4 112q-8 74 -128 74q-88 0 -110 -45q-14 -27 -14 -141v-292l122 -4zM1026 1213h-375l-145 209l-138 -164q-48 -57 -74 -57t-26 27q0 11 32 51l176 203h343z" />
<glyph unicode="&#xeb;" horiz-adv-x="1226" d="M515 514v-310q0 -90 11 -114q21 -46 99 -46q116 0 229.5 63.5t196.5 175.5q27 37 39 47t27.5 10t26.5 -12.5t11 -31.5q0 -42 -77.5 -123t-208 -138t-254.5 -57q-213 0 -376 143q-95 84 -143 199.5t-48 221.5t40 210q85 223 302 319q109 48 228 48q185 0 335 -109 q234 -170 232 -493h-233l-300 -1zM771 580v292q-2 94 -4 112q-8 74 -128 74q-88 0 -110 -45q-14 -27 -14 -141v-292l122 -4zM738.5 1454.5q52.5 39.5 141 40t141.5 -37t53 -101.5t-54 -104.5t-140 -40.5t-140 38.5t-54 102t52.5 103zM240.5 1454.5q52.5 39.5 141 40 t141.5 -37t53 -101.5t-54 -104.5t-140 -40.5t-140 38.5t-54 102t52.5 103z" />
<glyph unicode="&#xec;" horiz-adv-x="752" d="M635 1092v-29l-2 -156l-5 -610l4 -207l2 -90h-514l5 368l3 325l-2 171l-3 190l1 38h511zM528 1204h-234l-216 274h352z" />
<glyph unicode="&#xed;" horiz-adv-x="752" d="M631 1092v-29l-2 -156l-5 -610l4 -207l2 -90h-514l5 368l3 325l-2 171l-3 190l1 38h511zM237 1204l98 274h352l-216 -274h-234z" />
<glyph unicode="&#xee;" horiz-adv-x="752" d="M634 1092v-29l-2 -156l-5 -610l4 -207l2 -90h-514l5 368l3 325l-2 171l-3 190l1 38h511zM762 1213h-375l-145 209l-138 -164q-48 -57 -74 -57t-26 27q0 11 32 51l176 203h343z" />
<glyph unicode="&#xef;" horiz-adv-x="752" d="M631 1092v-29l-2 -156l-5 -610l4 -207l2 -90h-514l5 368l3 325l-2 171l-3 190l1 38h511zM481.5 1454.5q52.5 39.5 141 40t141.5 -37t53 -101.5t-54 -104.5t-140 -40.5t-140 38.5t-54 102t52.5 103zM-16.5 1454.5q52.5 39.5 141 40t141.5 -37t53 -101.5t-54 -104.5 t-140 -40.5t-140 38.5t-54 102t52.5 103z" />
<glyph unicode="&#xf0;" horiz-adv-x="1227" d="M843 1072l-186 226l-7 8l-193 -82q-32 -14 -46 -14q-31 0 -31 26.5t44 45.5l183 77l-43 51q-26 31 -26 46t9.5 23t22 8t47.5 -38l56 -65l202 83q30 12 42.5 12t21.5 -9t9 -21q0 -23 -46 -42l-189 -76l252 -309q106 -130 139 -183q82 -137 82 -290q0 -213 -136 -373 q-88 -103 -203.5 -150.5t-228.5 -47.5q-189 0 -340 112q-118 87 -174 211.5t-56 250.5q0 244 174 405.5t393 161.5q112 0 228 -47zM587 1054l-3 -1008q32 -2 43 -2q139 0 263.5 77t179 190t54.5 233q0 241 -179 391q-144 121 -312 121q-14 0 -46 -2z" />
<glyph unicode="&#xf1;" horiz-adv-x="1544" d="M628 953q234 166 447 166q142 0 228 -57t111.5 -129.5t25.5 -236.5l-2 -463l3 -233h-509l7 482l-1 308q-1 107 -2 128q-6 68 -79 68q-97 0 -229 -112l-1 -41l-2 -281l-2 -215l3 -294l1 -43h-511l3 392l3 259l-6 441h512v-139zM649 1509l427 -101l84 75q22 20 33.5 20 t21.5 -9.5t10 -20t-23 -32.5l-252 -242l-436 102l-87 -78q-21 -19 -34.5 -19t-23 9.5t-9.5 22t23 33.5z" />
<glyph unicode="&#xf2;" horiz-adv-x="1227" d="M616 1119q161 0 299.5 -85.5t204.5 -219t66 -251.5q0 -225 -136 -387q-88 -103 -203.5 -150.5t-228.5 -47.5q-189 0 -340 112q-118 86 -174 210.5t-56 251.5q0 248 174.5 406t393.5 161zM587 1054l-3 -1008q31 -2 43 -2q139 0 263.5 77t179 190t54.5 233q0 241 -178 391 q-144 121 -313 121q-14 0 -46 -2zM764 1204h-234l-216 274h352z" />
<glyph unicode="&#xf3;" horiz-adv-x="1227" d="M616 1119q161 0 299.5 -85.5t204.5 -219t66 -251.5q0 -225 -136 -387q-88 -103 -203.5 -150.5t-228.5 -47.5q-189 0 -340 112q-118 86 -174 210.5t-56 251.5q0 248 174.5 406t393.5 161zM587 1054l-3 -1008q31 -2 43 -2q139 0 263.5 77t179 190t54.5 233q0 241 -178 391 q-144 121 -313 121q-14 0 -46 -2zM457 1204l98 274h352l-216 -274h-234z" />
<glyph unicode="&#xf4;" horiz-adv-x="1227" d="M616 1119q161 0 299.5 -85.5t204.5 -219t66 -251.5q0 -225 -136 -387q-88 -103 -203.5 -150.5t-228.5 -47.5q-189 0 -340 112q-118 86 -174 210.5t-56 251.5q0 248 174.5 406t393.5 161zM587 1054l-3 -1008q31 -2 43 -2q139 0 263.5 77t179 190t54.5 233q0 241 -178 391 q-144 121 -313 121q-14 0 -46 -2zM1006 1213h-375l-145 209l-138 -164q-48 -57 -74 -57t-26 27q0 11 32 51l176 203h343z" />
<glyph unicode="&#xf5;" horiz-adv-x="1227" d="M616 1119q161 0 299.5 -85.5t204.5 -219t66 -251.5q0 -225 -136 -387q-88 -103 -203.5 -150.5t-228.5 -47.5q-189 0 -340 112q-118 86 -174 210.5t-56 251.5q0 248 174.5 406t393.5 161zM587 1054l-3 -1008q31 -2 43 -2q139 0 263.5 77t179 190t54.5 233q0 241 -178 391 q-144 121 -313 121q-14 0 -46 -2zM498 1509l427 -101l84 75q22 20 33.5 20t21.5 -9.5t10 -20t-23 -32.5l-252 -242l-436 102l-87 -78q-21 -19 -34.5 -19t-23 9.5t-9.5 22t23 33.5z" />
<glyph unicode="&#xf6;" horiz-adv-x="1227" d="M616 1119q161 0 299.5 -85.5t204.5 -219t66 -251.5q0 -225 -136 -387q-88 -103 -203.5 -150.5t-228.5 -47.5q-189 0 -340 112q-118 86 -174 210.5t-56 251.5q0 248 174.5 406t393.5 161zM587 1054l-3 -1008q31 -2 43 -2q139 0 263.5 77t179 190t54.5 233q0 241 -178 391 q-144 121 -313 121q-14 0 -46 -2zM724.5 1454.5q52.5 39.5 141 40t141.5 -37t53 -101.5t-54 -104.5t-140 -40.5t-140 38.5t-54 102t52.5 103zM226.5 1454.5q52.5 39.5 141 40t141.5 -37t53 -101.5t-54 -104.5t-140 -40.5t-140 38.5t-54 102t52.5 103z" />
<glyph unicode="&#xf7;" d="M521.5 1058.5q52.5 39.5 141 40t141.5 -37.5t53 -101.5t-54 -104t-140 -40.5t-140 38.5t-54 102t52.5 103zM523.5 503.5q52.5 39.5 141 40t141.5 -37.5t53 -101.5t-54 -104t-140 -40.5t-140 38.5t-54 102t52.5 103zM663 643l-327 -3l-51 -1l-126 -1q-63 0 -63 39.5 t63 39.5l71 -2l427 -4l438 4l71 2q63 0 63 -39.5t-63 -39.5l-126 1l-51 1z" />
<glyph unicode="&#xf8;" horiz-adv-x="1228" d="M1043 928q143 -168 143 -385t-144 -377q-83 -91 -194 -139.5t-232 -48.5q-206 0 -380 147l-108 -107q-45 -42 -58.5 -42t-23.5 10t-10 21.5t12.5 23.5t19.5 18.5t20 19.5l103 103q-143 166 -143 377q0 156 80 292t215.5 207t274.5 71q205 0 381 -146l102 104q40 41 57 41 q29 0 29 -30q0 -15 -42 -57zM999 885l-412 -467v-372q34 -2 48 -2q131 0 253.5 74.5t180.5 193.5t58 236q0 185 -128 337zM954 930q-147 130 -367 126v-542z" />
<glyph unicode="&#xf9;" horiz-adv-x="1546" d="M1430 1092l-3 -786l3 -306h-511v141q-127 -87 -231.5 -125t-218.5 -38q-209 0 -303 124q-35 46 -48.5 104.5t-13.5 166.5l2 234l1 156l-5 329h511l-5 -502l1 -190l1 -128q0 -115 15.5 -139.5t63 -24.5t99 25t133.5 89l1 131l2 357l-6 351v31h512zM923 1204h-234l-216 274 h352z" />
<glyph unicode="&#xfa;" horiz-adv-x="1546" d="M1430 1092l-3 -786l3 -306h-511v141q-127 -87 -231.5 -125t-218.5 -38q-209 0 -303 124q-35 46 -48.5 104.5t-13.5 166.5l2 234l1 156l-5 329h511l-5 -502l1 -190l1 -128q0 -115 15.5 -139.5t63 -24.5t99 25t133.5 89l1 131l2 357l-6 351v31h512zM616 1204l98 274h352 l-216 -274h-234z" />
<glyph unicode="&#xfb;" horiz-adv-x="1546" d="M1430 1092l-3 -786l3 -306h-511v141q-127 -87 -231.5 -125t-218.5 -38q-209 0 -303 124q-35 46 -48.5 104.5t-13.5 166.5l2 234l1 156l-5 329h511l-5 -502l1 -190l1 -128q0 -115 15.5 -139.5t63 -24.5t99 25t133.5 89l1 131l2 357l-6 351v31h512zM1152 1213h-375 l-145 209l-138 -164q-48 -57 -74 -57t-26 27q0 11 32 51l176 203h343z" />
<glyph unicode="&#xfc;" horiz-adv-x="1546" d="M1430 1092l-3 -786l3 -306h-511v141q-127 -87 -231.5 -125t-218.5 -38q-209 0 -303 124q-35 46 -48.5 104.5t-13.5 166.5l2 234l1 156l-5 329h511l-5 -502l1 -190l1 -128q0 -115 15.5 -139.5t63 -24.5t99 25t133.5 89l1 131l2 357l-6 351v31h512zM873.5 1454.5 q52.5 39.5 141 40t141.5 -37t53 -101.5t-54 -104.5t-140 -40.5t-140 38.5t-54 102t52.5 103zM375.5 1454.5q52.5 39.5 141 40t141.5 -37t53 -101.5t-54 -104.5t-140 -40.5t-140 38.5t-54 102t52.5 103z" />
<glyph unicode="&#xfd;" horiz-adv-x="1236" d="M877 594q195 299 256 403t69 113t25.5 9t33.5 -15t16 -32t-17 -38q-144 -196 -365 -532l-176 -269q-91 -138 -143 -190q-104 -106 -228 -106q-55 0 -90.5 21.5t-35.5 48.5t16 42t36 15t60.5 -19t74.5 -19q73 0 163 118l-118 185q-381 592 -509 763h636q126 -275 296 -498 zM502 1204l98 274h352l-216 -274h-234z" />
<glyph unicode="&#xfe;" horiz-adv-x="1494" d="M994 1119q207 0 329.5 -146t122.5 -366t-128 -360.5t-315.5 -140.5t-380.5 161l1 -36l1 -131l2 -109l1 -37h-511l1 285l2 271l-3 803v52h511l-3 -404q101 86 185 122t185 36zM624 349q147 -137 232 -137q40 0 47 39q2 13 3 135v489q0 87 -3 104q-7 42 -47 42t-104 -40.5 t-128 -109.5v-522z" />
<glyph unicode="&#xff;" horiz-adv-x="1236" d="M877 594q195 299 256 403t69 113t25.5 9t33.5 -15t16 -32t-17 -38q-144 -196 -365 -532l-176 -269q-91 -138 -143 -190q-104 -106 -228 -106q-55 0 -90.5 21.5t-35.5 48.5t16 42t36 15t60.5 -19t74.5 -19q73 0 163 118l-118 185q-381 592 -509 763h636q126 -275 296 -498 zM773.5 1454.5q52.5 39.5 141 40t141.5 -37t53 -101.5t-54 -104.5t-140 -40.5t-140 38.5t-54 102t52.5 103zM275.5 1454.5q52.5 39.5 141 40t141.5 -37t53 -101.5t-54 -104.5t-140 -40.5t-140 38.5t-54 102t52.5 103z" />
<glyph unicode="&#x131;" horiz-adv-x="747" d="M631 1092v-29l-2 -156l-5 -610l4 -207l2 -90h-514l5 368l3 325l-2 171l-3 190l1 38h511z" />
<glyph unicode="&#x152;" horiz-adv-x="2269" d="M484 1344q141 62 275.5 62t253.5 -41h1079q63 0 76.5 -5.5t13.5 -29.5q0 -37 -50 -37l-502 9v-309l479 4l40 1q55 -1 69 -5t14 -28q0 -31 -34 -37q-11 -2 -87 -2l-482 3l-3 -341l3 -523l499 5l77 2q60 0 60 -36.5t-71 -36.5l-70 1h-1118q-77 -25 -119 -33t-103 -8 q-308 0 -525 219q-105 105 -154.5 238t-49.5 266q0 216 115.5 395.5t313.5 266.5zM1027 1295q-147 47 -257 47q-38 0 -78 -5l-1 -79l-4 -535l4 -625l1 -68q34 -9 93 -9q136 0 242 57l5 398l1 189l-5 575z" />
<glyph unicode="&#x153;" horiz-adv-x="1930" d="M965 996q149 123 362 123q161 0 304 -90.5t213 -259.5q45 -110 45 -222l-1 -23l-672 -6v-296q1 -95 7 -118q17 -58 104 -58q121 0 242 71.5t193 179.5q30 45 50 45t32.5 -13t12.5 -30q0 -63 -130 -163q-96 -75 -204.5 -116.5t-204 -41.5t-187 34t-159.5 95 q-174 -129 -336 -129t-303 82.5t-213 222t-72 290.5t91.5 286t220.5 197.5t256 62.5q181 0 349 -123zM1468 583v337q0 59 -3 75t-17 33q-31 34 -107 34t-100.5 -27.5t-24.5 -110.5v-341l114 -1l119 2zM919 957q-139 101 -295 101h-39v-1020q30 -2 44 -2q144 0 292 106 q-173 181 -173 413q0 137 74 274q46 84 97 128z" />
<glyph unicode="&#x160;" horiz-adv-x="1223" d="M78.5 221.5q10.5 10.5 26.5 10.5t40 -27q75 -82 183.5 -131.5t220 -49.5t111.5 71q0 45 -41 101.5t-216 245.5t-250.5 307.5t-75.5 240.5q0 184 162.5 300t398.5 116q165 0 303 -67q52 -26 89.5 -60t37.5 -51t-10.5 -26.5t-24.5 -9.5t-57.5 41t-131.5 74.5t-153.5 33.5 t-97 -21.5t-31.5 -59.5q0 -73 171 -253q294 -313 361.5 -425t67.5 -211t-49 -180t-136 -133q-166 -99 -395.5 -99t-396.5 114q-117 80 -117 125q0 13 10.5 23.5zM211 1744h375l145 -209l139 163q47 58 73 58t26 -27q0 -11 -32 -51l-175 -203h-344z" />
<glyph unicode="&#x161;" horiz-adv-x="985" d="M541 1052q-89 0 -89 -57q0 -34 41.5 -86t167 -174.5t159 -160t75.5 -104t42 -164.5q0 -154 -149 -249q-122 -79 -310 -79t-341 88q-45 27 -61.5 44t-16.5 37q0 37 39 38q20 0 60.5 -38.5t132.5 -72t169 -33.5t77 49q0 24 -25.5 57.5t-177 196t-215 256t-63.5 174.5 q0 163 165 265q129 80 274 80t267 -46.5t122 -94.5q0 -15 -12.5 -27t-30 -12t-69.5 37q-106 76 -231 76zM107 1470h375l145 -209l139 163q47 58 73 58t26 -27q0 -11 -32 -51l-175 -203h-344z" />
<glyph unicode="&#x178;" horiz-adv-x="1501" d="M1096 844l318 465q32 51 44 63t30 12t29.5 -9t11.5 -22q0 -19 -32 -59l-878 -1231q-43 -60 -54.5 -71t-31.5 -11q-32 0 -32 28q0 15 29 49l228 310l-28 38q-304 409 -429.5 570t-318.5 389h725zM930.5 1726.5q52.5 39.5 141 40t141.5 -37t53 -101.5t-54 -104.5 t-140 -40.5t-140 38.5t-54 102t52.5 103zM432.5 1726.5q52.5 39.5 141 40t141.5 -37t53 -101.5t-54 -104.5t-140 -40.5t-140 38.5t-54 102t52.5 103z" />
<glyph unicode="&#x192;" d="M944 895l136 2l87 1q71 0 71 -37t-71 -37l-100 1h-132l-78 -633q-17 -133 -81.5 -206t-152 -104t-225 -31t-234.5 37t-97 90q0 36 42 36q18 0 60.5 -35.5t92.5 -35.5t74 47q15 29 32 175l76 660l-53 -1l-132 -2q-42 0 -57.5 7.5t-15.5 27.5q0 40 72 40l76 -1l118 -1 l22 183q16 140 139.5 225.5t341.5 85.5q129 0 215.5 -33.5t86.5 -84.5q0 -38 -40 -38q-22 0 -53.5 31.5t-77.5 31.5q-92 0 -111 -153z" />
<glyph unicode="&#x2c6;" horiz-adv-x="1024" d="M891 1213h-375l-145 209l-138 -164q-48 -57 -74 -57t-26 27q0 11 32 51l176 203h343z" />
<glyph unicode="&#x2c7;" horiz-adv-x="1024" d="M133 1470h375l145 -209l139 163q47 58 73 58t26 -27q0 -11 -32 -51l-175 -203h-344z" />
<glyph unicode="&#x2c9;" horiz-adv-x="1024" d="M732 1297l-246 -2l-242 -5l-72 -2h-12q-56 0 -56 50.5t51 50.5l311 -4l388 8h12q55 0 55 -50t-61 -50l-76 3q-18 1 -52 1z" />
<glyph unicode="&#x2d8;" horiz-adv-x="1024" d="M779 1428l13 39q14 44 20.5 54t21.5 10q35 0 35 -31q0 -19 -18.5 -72t-38.5 -90q-78 -145 -300 -145q-121 0 -194 39q-97 52 -148 209q-14 45 -14 61q0 29 33 29q16 0 23 -10.5t21 -53.5l13 -39h533z" />
<glyph unicode="&#x2d9;" horiz-adv-x="1024" d="M370.5 1454.5q52.5 39.5 141 40t141.5 -37t53 -101.5t-54 -104.5t-140 -40.5t-140 38.5t-54 102t52.5 103z" />
<glyph unicode="&#x2da;" horiz-adv-x="1024" d="M362.5 1545q58.5 57 148.5 57.5t149 -58.5t59 -144t-61 -142t-150.5 -57t-146.5 56t-57 143.5t58.5 144.5zM615 1499q-41 40 -77.5 40t-71.5 -11v-252q38 -10 58 -10q52 0 91.5 41t39.5 96.5t-40 95.5z" />
<glyph unicode="&#x2db;" horiz-adv-x="1024" d="M1103 0q-39 -12 -58.5 -24t-55.5 -45v-226q26 -5 56 -5t64.5 17.5t44.5 17.5q30 0 30 -30.5t-50 -52t-136.5 -21.5t-145 42.5t-58.5 118.5q0 141 187 208h122z" />
<glyph unicode="&#x2dc;" horiz-adv-x="1024" d="M369 1509l427 -101l84 75q22 20 33.5 20t21.5 -9.5t10 -20t-23 -32.5l-252 -242l-436 102l-87 -78q-21 -19 -34.5 -19t-23 9.5t-9.5 22t23 33.5z" />
<glyph unicode="&#x2dd;" horiz-adv-x="1024" d="M207 1204l123 274h287l-219 -274h-191zM567 1204l123 274h287l-219 -274h-191z" />
<glyph unicode="&#x3c0;" horiz-adv-x="1024" d="M948 768q-24 -64 -24 -150v-310q0 -110 19 -146t77 -36q24 0 75 6v-48l-395 -107q-23 -6 -37 -6t-47.5 30.5t-56.5 74t-23 126.5v290q0 127 91 219q25 22 50.5 33.5t48.5 23.5h-310l-9 -163q-10 -184 -36.5 -343.5t-53 -211.5t-77.5 -79t-121 -27t-114 37t-44 104.5 t54 118.5q7 7 53.5 33.5t74 78.5t50 185t27.5 266q-118 -14 -162.5 -36.5t-113.5 -102.5l-45 38l106 204q33 63 87.5 91.5t142.5 28.5h918v-222h-205z" />
<glyph unicode="&#x2013;" horiz-adv-x="1326" d="M1141 527l-1002 -4h-74q-64 0 -64 37.5t63 37.5l71 -2l355 -4l693 6l79 1q64 0 64 -37.5t-67 -37.5z" />
<glyph unicode="&#x2014;" horiz-adv-x="2147" d="M1965 527l-1827 -4h-74q-64 0 -64 37.5t63 37.5l71 -1l515 -5l1356 6l79 1q64 0 64 -37.5t-67 -37.5z" />
<glyph unicode="&#x2018;" horiz-adv-x="797" d="M147 1116q97 129 289 129q103 0 188 -52.5t85 -147.5t-60 -156q-94 -96 -242 -96t-233 79t-85 212q0 85 36 158t101 116q95 65 261 65q74 0 74 -28.5t-37 -26.5l-52 2q-236 0 -304 -165q-10 -23 -21 -89z" />
<glyph unicode="&#x2019;" horiz-adv-x="797" d="M651 1083q-99 -129 -290 -129q-103 0 -188 52.5t-85 147.5t60 156q94 96 242 96t233.5 -79t85.5 -212q0 -85 -36 -158t-101 -116q-95 -65 -261 -65q-74 0 -74 31q0 24 37 24l32 -1q10 -1 20 -1q235 0 304 165q9 23 21 89z" />
<glyph unicode="&#x201a;" horiz-adv-x="797" d="M651 97q-98 -128 -289 -128q-104 0 -188.5 52t-84.5 147t60 156q94 96 242 96t233 -79t85 -212q0 -85 -36 -157.5t-101 -115.5q-95 -65 -261 -65q-74 0 -74 30q0 25 37 25l32 -2h20q236 0 304 165q10 23 21 88z" />
<glyph unicode="&#x201c;" horiz-adv-x="1480" d="M147 1116q97 129 289 129q103 0 188 -52.5t85 -147.5t-60 -156q-94 -96 -242 -96t-233 79t-85 212q0 85 36 158t101 116q95 65 261 65q74 0 74 -28.5t-37 -26.5l-52 2q-236 0 -304 -165q-10 -23 -21 -89zM830 1116q97 129 289 129q103 0 188 -52.5t85 -147.5t-60 -156 q-94 -96 -242 -96t-233 79t-85 212q0 85 36 158q89 181 361 181q74 0 74 -28.5t-37 -26.5l-52 2q-105 0 -174 -31q-90 -39 -129 -134q-10 -23 -21 -89z" />
<glyph unicode="&#x201d;" horiz-adv-x="1480" d="M651 1083q-99 -129 -289 -129q-104 0 -180 48q-93 57 -93 152t60 156q94 96 242 96t233 -79t85 -212q0 -85 -36 -158t-101 -116q-95 -65 -261 -65q-74 0 -74 31q0 24 37 24l32 -1q10 -1 20 -1q236 0 304 165q10 23 21 89zM1333 1083q-99 -129 -289 -129q-104 0 -180 48 q-93 57 -93 152t60 156q94 96 242 96t233 -79t85 -212q0 -85 -36 -158q-89 -181 -361 -181q-74 0 -74 31q0 24 37 24l32 -1q10 -1 20 -1q235 0 303 165q10 23 21 89z" />
<glyph unicode="&#x201e;" horiz-adv-x="1480" d="M651 97q-98 -128 -289 -128q-104 0 -188.5 52t-84.5 147t60 156q94 96 242 96t233 -79t85 -212q0 -85 -36 -157.5t-101 -115.5q-95 -65 -261 -65q-74 0 -74 30q0 25 37 25l32 -2h20q236 0 304 165q10 23 21 88zM1333 97q-98 -128 -289 -128q-104 0 -188.5 52t-84.5 147 t60 156q94 96 242 96t233 -79t85 -212q0 -85 -36 -157q-90 -181 -361 -181q-74 0 -74 30q0 25 37 25l32 -2h20q235 0 303 165q10 23 21 88z" />
<glyph unicode="&#x2020;" d="M379 -91l7 725l-2 350l-150 -2h-74q-64 0 -64 37.5t62 37.5l225 -3l-1 127l-2 184h565l1 -51l-4 -260l225 3q62 0 62 -37.5t-64 -37.5h-74l-150 2l-1 -164v-186l5 -645l1 -80h-567z" />
<glyph unicode="&#x2021;" d="M384 984l-150 -2h-74q-64 0 -64 37.5t62 37.5l225 -3l-1 127l-2 184h565l1 -51l-4 -260l225 3q62 0 62 -37.5t-64 -37.5h-74l-150 2l-1 -164v-183l1 -210h150l74 1q64 0 64 -37.5t-62 -37.5l-72 2l-153 1l2 -263l2 -133l-1 -51h-565l3 447l-76 -1h-77l-72 -2 q-62 0 -62 37.5t64 37.5l74 -1h150l2 140v70l-1 183z" />
<glyph unicode="&#x2022;" horiz-adv-x="1365" d="M685 410q-118 0 -201 83t-83 202t84 201t200.5 82t200 -83t83.5 -201t-83 -201t-201 -83z" />
<glyph unicode="&#x2026;" horiz-adv-x="2312" d="M171 350.5q80 61.5 214 62.5t215 -58t81 -159t-82 -163.5t-230 -63.5t-230 92q-48 54 -48 126q0 102 80 163.5zM942 350.5q80 61.5 214 62.5t215 -58t81 -159t-82 -163.5t-230 -63.5t-230 92q-48 54 -48 126q0 102 80 163.5zM1712 350.5q80 61.5 214 62.5t215 -58 t81 -159t-82 -163.5t-230 -63.5t-230 92q-48 54 -48 126q0 102 80 163.5z" />
<glyph unicode="&#x2030;" horiz-adv-x="2328" d="M596 1304q118 -102 118 -282.5t-97.5 -281.5t-239 -101t-235.5 110t-94 270.5t97 261.5t228 102t223 -79zM367 1325v-628h16q106 0 177 63q95 85 95 240t-72 240.5t-187 85.5q-9 0 -29 -1zM1083 1192l-549 -1102q-21 -40 -26 -54q-25 -60 -53 -60q-12 0 -22 9.5t-10 20.5 t29 68l603 1210q39 79 48 92t22.5 13t23 -9.5t9.5 -23t-75 -164.5zM1066 12q-198 90 -198 346q0 163 99.5 263.5t235.5 101.5t233.5 -101t97.5 -280t-118 -282q-91 -79 -210 -79q-72 0 -140 31zM1187 666v-625q17 -1 26 -1q109 0 185 80.5t76 227.5q0 219 -158 294 q-53 25 -82 25t-47 -1zM1820 12q-198 91 -198 346q0 163 99.5 263.5t235.5 101.5t233.5 -101t97.5 -280t-119 -282q-90 -79 -210 -79q-72 0 -139 31zM1920 666v-625q17 -1 26 -1q109 0 185.5 80.5t76.5 227.5q0 219 -158 294q-53 25 -82.5 25t-47.5 -1z" />
<glyph unicode="&#x2039;" horiz-adv-x="398" d="M86 377v377l159 159q13 12 26 26t25 14t12 -31.5t-7 -41.5q-13 -18 -35 -35l-132 -133l175 -163v-380z" />
<glyph unicode="&#x203a;" horiz-adv-x="398" d="M312 745v-378l-159 -159q-40 -39 -49 -39q-14 -1 -14 31t7 41.5t19 20t16 14.5l132 133l-175 164v380z" />
<glyph unicode="&#x2122;" horiz-adv-x="2143" d="M661 1312l-3 -178l-2 -175l2 -413h-404l4 477l-2 160l-2 129l-199 -5h-17q-38 0 -38 28q0 18 10.5 23.5t45.5 6.5h785q44 0 56.5 -5.5t12.5 -24.5q0 -27 -39 -27l-56 1l-82 2zM1862 1401l264 -824l11 -31h-404l-121 409l-261 -363l-269 345q-36 -118 -66.5 -245 t-39.5 -142t-39.5 -15t-30.5 25q0 6 18 61l247 780l354 -471z" />
<glyph unicode="&#x2126;" horiz-adv-x="1365" d="M1481 374l-77 -374h-639v220q93 75 133 157q74 149 74 392.5t-59 363.5q-77 159 -234.5 159t-232.5 -181q-51 -124 -51 -367.5t89 -396.5q38 -65 118 -127v-220h-643l-76 374h49q28 -94 95 -126q44 -21 108 -22.5t75 -2.5l234 -20v20q-113 32 -176 60.5t-124 73.5 q-226 170 -226 435q0 194 127 345q210 250 623.5 250t616.5 -209q164 -170 164 -389.5t-150 -368.5q-69 -70 -148.5 -111.5t-227.5 -85.5v-20l272 23q83 3 111 9.5t63.5 32.5t62.5 106h49z" />
<glyph unicode="&#x2202;" horiz-adv-x="1024" d="M259 1408l20 38q194 -61 335 -180.5t214 -238.5q162 -265 162 -542.5t-178 -422.5q-119 -96 -301.5 -96t-303.5 103q-173 146 -173 406.5t176 395.5q122 94 309 94q15 0 50 -2t54 -7q-124 299 -364 452zM610.5 821q-22.5 69 -96 70t-98.5 -61t-25 -238q0 -357 21.5 -455 t99.5 -98t99.5 86.5t21.5 356.5t-22.5 339z" />
<glyph unicode="&#x2206;" horiz-adv-x="1365" d="M798 1384l625 -1384h-1482l618 1384h239zM547 1028l-303 -695q-21 -48 -21 -70.5t21.5 -30.5t88.5 -8h551z" />
<glyph unicode="&#x220f;" horiz-adv-x="1365" d="M-144 1365h1654v-45h-46q-77 0 -106.5 -35.5t-29.5 -127.5v-1426q0 -91 28.5 -127t102.5 -36h49v-46h-795v46h44q78 0 107.5 35t29.5 128v1426q0 92 -29.5 127.5t-107.5 35.5h-145q-77 0 -106.5 -35.5t-29.5 -127.5v-1426q0 -91 29 -127t102 -36h49v-46h-794v46h44 q77 0 106.5 35.5t29.5 127.5v1426q0 92 -29.5 127.5t-106.5 35.5h-50v45z" />
<glyph unicode="&#x2211;" horiz-adv-x="1365" d="M49 1365h1201v-389h-47q-16 144 -94.5 224t-203.5 80h-395l369 -643l-529 -890h526q110 0 175 27q187 82 237 314h46l-68 -566h-1217l544 914z" />
<glyph unicode="&#x2215;" horiz-adv-x="155" d="M417 1286l-596 -1196q-21 -40 -26 -54q-25 -60 -53 -60q-12 0 -22 9.5t-10 20.5t29 68l603 1210q39 79 48 92t22.5 13t23 -9.5t9.5 -23.5t-28 -70z" />
<glyph unicode="&#x2219;" horiz-adv-x="1391" d="M481 718.5q80 61.5 214 62.5t215 -58t81 -159t-82 -163.5t-230 -63.5t-230 92q-48 54 -48 126q0 102 80 163.5z" />
<glyph unicode="&#x221a;" horiz-adv-x="1365" d="M1331 1686v-93h-211l-379 -1593h-361l-170 700h-176v93h468l161 -690l372 1583h296z" />
<glyph unicode="&#x221e;" horiz-adv-x="1365" d="M568 459q-79 -95 -142 -133t-144 -38q-149 0 -237.5 108.5t-88.5 270.5q0 207 127 339q107 110 272 110q114 0 200 -54.5t160 -172.5q45 110 129 171t192 61q183 0 289 -141q84 -111 84 -284q0 -211 -132 -336q-59 -56 -142.5 -88.5t-168.5 -32.5q-233 0 -398 220z M1343 693q0 170 -299 170q-146 0 -210 -28l-61 -26q175 -304 383 -304q78 0 132.5 53t54.5 135zM20 676q0 -137 270 -137q80 0 134.5 11.5t68.5 13.5q-84 153 -157 218t-155.5 65t-121.5 -52.5t-39 -118.5z" />
<glyph unicode="&#x222b;" horiz-adv-x="1024" d="M729 1219v-1270q0 -130 -5 -162q-22 -144 -151.5 -219.5t-323.5 -75.5q-306 0 -399 154q-34 56 -34 129t56.5 129.5t136 56.5t136 -54t56.5 -121q0 -36 -12 -59t-40.5 -53t-28.5 -52t26.5 -41.5t69.5 -19.5t61 30t18 108v1380q0 142 5 174q23 144 152 219.5t322.5 75.5 t307.5 -66q59 -33 92.5 -88.5t33.5 -128.5t-56.5 -129.5t-136 -56.5t-136.5 54q-56 54 -56 120q0 36 12 59.5t40.5 53.5t28.5 51.5t-27 41t-62 19.5q-88 0 -88 -105l1 -72z" />
<glyph unicode="&#x2248;" horiz-adv-x="1024" d="M912 1087l72 -36q-53 -88 -118.5 -152t-108.5 -80.5t-107 -16.5t-183.5 39t-187.5 39t-113 -31q-10 -6 -25.5 -19.5t-30.5 -25.5l-69 35q88 136 160 193.5t145 57.5t207.5 -40t207 -40t151.5 77zM912 728l72 -36q-53 -89 -119 -152.5t-108.5 -80t-106.5 -16.5 t-183.5 38.5t-187.5 38.5t-113 -30l-56 -45l-69 35q89 136 160.5 193t144.5 57t207.5 -39t206.5 -39t152 76z" />
<glyph unicode="&#x2260;" d="M545 506l-105 -2l-104 -1l-51 -1h-51l-75 -1q-63 0 -63 40t63 40l71 -2l246 -4h102l95 205h-10l-429 -4l-75 -1q-63 0 -63 39.5t63 39.5l71 -2l340 -5l93 1h41l104 230q39 87 49 102.5t31 15.5q31 0 31 -35q0 -20 -44 -108l-95 -205h85l230 4l71 2q63 0 63 -39.5 t-63 -39.5l-126 1l-51 1l-241 2l-95 -204h153l289 4l71 2q63 0 63 -40t-63 -40l-126 2h-51l-326 4l-41 -1l-106 -231q-40 -85 -49.5 -99.5t-25 -14.5t-26 11t-10.5 28t43 103z" />
<glyph unicode="&#x2264;" horiz-adv-x="1024" d="M950 1341v-167l-424 -259l424 -294v-444l-875 607v20zM75 147h875v-147h-875v147z" />
<glyph unicode="&#x2265;" horiz-adv-x="1024" d="M75 147h875v-147h-875v147zM75 177v167l424 259l-424 294v444l875 -619v-21z" />
<glyph unicode="&#x25ca;" horiz-adv-x="1365" d="M683 1419l532 -736l-532 -736l-532 736zM683 1238l-404 -555l404 -555l403 555z" />
<glyph unicode="&#xe000;" horiz-adv-x="1120" d="M0 1120h1120v-1120h-1120v1120z" />
<glyph unicode="&#xf001;" horiz-adv-x="1586" d="M789 1028l-145 5l-2 -300l-2 -372l4 -321v-40h-511v34l2 162l2 351l-4 457v29h-18l-81 -3q-41 0 -41 35.5t39 35.5l50 -4h58q14 84 35.5 131.5t66.5 91.5q125 124 357 124q114 0 201 -34t87 -78q0 -17 -13.5 -29.5t-32.5 -12.5t-41 26q-36 44 -65 44q-51 0 -72 -58 t-22 -204h93l58 2q41 0 41 -36t-44 -36zM954 1304q0 136 258 137t258 -137q0 -67 -69.5 -104.5t-195.5 -37.5q-251 0 -251 142zM1465 1092v-29l-2 -156l-1 -242l-3 -368l3 -207l2 -90h-514l6 368l3 325l-4 285l-1 114h511z" />
<glyph unicode="&#xf002;" horiz-adv-x="1576" d="M789 1028l-145 5l-2 -300l-2 -372l4 -321v-40h-511v34l2 162l2 351l-4 457v29h-18l-81 -3q-41 0 -41 35.5t39 35.5l50 -4h58q14 84 35.5 131.5t66.5 91.5q125 124 357 124q114 0 201 -34t87 -78q0 -17 -13.5 -29.5t-32.5 -12.5t-41 26q-36 44 -65 44q-51 0 -72 -58 t-22 -204h93l58 2q41 0 41 -36t-44 -36zM1460 1365l1 -51l-2 -352l-2 -318l-1 -111l4 -494v-39h-510v47l2 159l1 288l2 377l-1 203l-3 223l1 68h508z" />
</font>
</defs>
</svg>
