<?xml version="1.0" standalone="no"?>
<!DOCTYPE svg PUBLIC "-//W3C//DTD SVG 1.1//EN" "http://www.w3.org/Graphics/SVG/1.1/DTD/svg11.dtd" >
<svg xmlns="http://www.w3.org/2000/svg">
<metadata>
This is a custom SVG webfont generated by Font Squirrel.
Copyright   : Generated by Fontographer 35
</metadata>
<defs>
<font id="webfontnJ4JQ7dA" horiz-adv-x="655" >
<font-face units-per-em="2048" ascent="1638" descent="-410" />
<missing-glyph horiz-adv-x="1155" />
<glyph unicode=" "  horiz-adv-x="1155" />
<glyph unicode="&#x09;" horiz-adv-x="1155" />
<glyph unicode="&#xa0;" horiz-adv-x="1155" />
<glyph unicode="!" horiz-adv-x="524" d="M469 1417l-27 -18l-96 -1010l49 -20h-213l43 18l-112 1012l-27 18h383zM287 -35q-63 0 -100 41t-37 98t34.5 98.5t102.5 41.5q66 0 102.5 -41t36.5 -99q0 -57 -36.5 -98t-102.5 -41z" />
<glyph unicode="&#x22;" d="M575 1346q0 -43 -26 -273q-14 -125 -14 -182q0 -61 -52 -62q-27 0 -39 16.5t-12 45.5q0 80 -20.5 241.5t-20.5 213.5q0 47 19.5 75.5t72.5 28.5t76 -33q16 -24 16 -71zM260 1346q0 -43 -27 -273q-14 -125 -14 -182q0 -61 -51 -62q-27 0 -39 16.5t-12 45.5q0 86 -21.5 250 t-21.5 205q0 47 19.5 75.5t74.5 28.5q51 0 71.5 -29.5t20.5 -74.5z" />
<glyph unicode="#" horiz-adv-x="1529" d="M1321 858h-207l-41 -285h189v-167h-209l-58 -406h-194l57 406h-258l-57 -406h-195l58 406h-197v167h219l41 285h-199v168h222l55 406h196l-57 -406h258l55 406h197l-59 -406h184v-168zM920 858h-256l-41 -285h256z" />
<glyph unicode="$" horiz-adv-x="1605" d="M1501 430q0 -174 -123 -289q-88 -82 -229 -127q-90 -29 -123 -28v-209h-133v213h-166v-219h-143v192q0 39 -72 53q-131 27 -197.5 55.5t-144.5 75.5q-63 39 -68 35l-32 -22l145 321l4 -45q0 -8 58.5 -49t82.5 -51q14 -10 46 -25q92 -45 139 -45q41 0 41 35v272 q0 31 -119 58q-150 35 -221 90q-121 94 -121 283q0 162 117 272q82 78 221 129l119 37v135h135v-133h166v141h143v-133q0 -16 79 -33.5t122 -32.5q25 -8 133 -51q74 -31 86 -22l33 20l-136 -319l-2 45q0 8 -73 47q-45 25 -78 37t-66.5 20t-46.5 8q-45 0 -45 -34v-263 q0 -31 121 -61q156 -41 225 -96q123 -99 123 -287zM889 887v268q0 33 -13.5 41t-46.5 8h-26q-47 0 -61.5 -8t-14.5 -35v-256q0 -23 23.5 -30t56.5 -7q35 -4 49 -4q33 0 33 23zM582 940v186q0 27 -27 27q-35 0 -82 -43t-47 -92q0 -37 44 -71t81 -34q31 0 31 27zM889 252v299 q0 25 -27.5 34t-64.5 9h-23q-49 0 -49 -23v-290q0 -39 10 -49.5t41 -10.5h25h45q43 0 43 31zM1206 422q0 49 -49 90t-92 41q-31 0 -31 -29v-237q0 -31 29 -31q43 0 93 52.5t50 113.5z" />
<glyph unicode="%" horiz-adv-x="1638" d="M389 702q-172 0 -274 119q-92 106 -92 260q0 150 88 250q98 113 270 113t272 -117q90 -104 90 -256t-88 -254q-98 -115 -266 -115zM1284 1434l-24 -17l-797 -1405l29 -12h-230l29 12l794 1405l-22 17h221zM1155 -29q-170 0 -272 119q-92 106 -92 260q0 150 88 250 q98 113 268 113q172 0 272 -117q90 -104 90 -256t-88 -254q-98 -115 -266 -115zM395 827q94 0 148.5 73t54.5 171q0 106 -53 178q-59 80 -164 80q-100 0 -157.5 -73.5t-57.5 -174.5q0 -104 55 -174q63 -80 174 -80zM1163 96q94 0 148.5 73t54.5 169q0 104 -55 178 q-61 82 -164 82q-100 0 -156.5 -72.5t-56.5 -175.5q0 -104 55 -174q63 -80 174 -80z" />
<glyph unicode="&#x26;" horiz-adv-x="1693" d="M1573 35h-146q-63 8 -82.5 13t-89.5 36q-31 14 -82 48t-59 34h-18q-72 -74 -187 -127q-129 -61 -293 -62q-324 0 -469 164q-102 115 -102 281q0 129 58.5 219t201.5 170v14q0 14 -4 17q-70 45 -89 89t-19 105v33q0 129 79 217q119 131 387 131q248 0 373 -117 q94 -88 94 -204v-40q0 -19 2 -38q0 -57 -20 -92q-27 -45 -111 -101q-4 -2 -2 -14q0 -4 2 -14q70 -43 111 -97q14 -18 20 -18h23q10 0 63 63l54 66q63 74 137 121q47 31 162 86v-422l-19 43q-10 25 -86 -18q-164 -94 -164 -199q0 -59 84 -103q70 -35 140 -34q33 0 34 10 l17 43v-303zM856 1055q0 63 -61.5 105t-141.5 42q-76 0 -131 -41t-55 -110q0 -68 59.5 -106t137.5 -38q68 0 130 49.5t62 98.5zM940 397q0 92 -100.5 182.5t-218.5 90.5q-113 0 -197 -67.5t-84 -172.5q0 -94 88 -156q78 -53 190 -63q129 0 225.5 62.5t96.5 123.5z" />
<glyph unicode="'" horiz-adv-x="395" d="M354 1313q6 -31 6 -64q0 -133 -93 -234.5t-177 -90.5v45q61 25 110.5 76t49.5 90q0 35 -47 34q-37 0 -74 33q-49 43 -49 111q0 51 35 86t88 39q59 0 100 -33t51 -92z" />
<glyph unicode="(" horiz-adv-x="724" d="M692 -420h-301q-166 221 -246 481q-72 229 -71 469q0 197 59 420q72 272 213 482h277l-43 -15q-25 -8 -80 -139q-61 -147 -103 -326q-51 -221 -51 -403q0 -274 62 -508q49 -188 129 -322q66 -111 112 -125z" />
<glyph unicode=")" horiz-adv-x="802" d="M664 530q0 -236 -72 -467q-82 -262 -246 -483h-301l43 14q45 14 111 125q84 139 131 320q61 233 61 510q0 274 -98 581q-86 272 -135 287l-43 15h276q139 -209 213 -482q60 -221 60 -420z" />
<glyph unicode="*" horiz-adv-x="923" d="M842 1274l-269 -53v-27l181 -184l-138 -99l-139 230l-22 -2l-125 -236l-148 109l176 180l-2 33l-270 43l61 174l238 -115l25 16l-35 263h184l-31 -252l25 -19l235 107z" />
<glyph unicode="+" horiz-adv-x="1179" d="M1087 406h-405v-406h-184v406h-406v184h406v405h184v-405h405v-184z" />
<glyph unicode="," horiz-adv-x="512" d="M424 123q4 -16 4 -53q0 -123 -82 -239t-188 -116q-18 0 -29 2v60q61 18 102 71.5t41 94.5q0 20 -16 20q-39 0 -82 37q-55 47 -55 123q0 55 39 94t98 45q63 0 109.5 -38t58.5 -101z" />
<glyph unicode="-" horiz-adv-x="884" d="M762 430h-725v279h725v-279z" />
<glyph unicode="." horiz-adv-x="512" d="M264 -23q-68 0 -105.5 44.5t-37.5 101.5q0 55 34.5 95t100.5 40q68 0 105.5 -44t37.5 -101q0 -55 -34.5 -95.5t-100.5 -40.5z" />
<glyph unicode="/" horiz-adv-x="1112" d="M1065 1434l-25 -17l-796 -1405l28 -12h-229l29 12l796 1405l-24 17h221z" />
<glyph unicode="0" horiz-adv-x="1613" d="M819 -25q-352 0 -565 246q-190 221 -191 537q0 305 183 512q203 229 557 229q358 0 565 -235q188 -213 188 -523q0 -311 -184 -526q-205 -240 -553 -240zM834 231q238 0 376 156q125 141 125 344q0 217 -133 367q-150 168 -399 168q-238 0 -377 -156q-125 -141 -125 -344 q0 -217 133 -367q150 -168 400 -168z" />
<glyph unicode="1" horiz-adv-x="825" d="M643 -4h-358l32 18v969q0 47 -59 47q-10 0 -43 -6t-70 -33q-6 -4 -16 -14l-18 -39v348l18 -41q4 -10 27 -10q55 0 96 35q29 23 43 53.5t14 58.5q0 20 -8 29l-27 23h363l-23 -21v-1399z" />
<glyph unicode="2" horiz-adv-x="1449" d="M1382 -31l-20 29h-1278l-27 -43v65q0 307 248 498q72 55 461 240q248 117 248 252q0 88 -75 141t-177 53q-31 0 -62 -6q-137 -20 -299 -129q-154 -102 -143 -139l8 -39l-227 260l37 -10q104 119 254 213q166 104 372 104q291 0 467 -129q168 -123 168 -309 q0 -227 -237 -389q-117 -80 -443 -213q-240 -98 -239 -166v-14h944l20 26v-295z" />
<glyph unicode="3" horiz-adv-x="1517" d="M1460 420q0 -172 -151 -295q-190 -156 -557 -156q-236 0 -416 70l-262 131l-27 -18l141 290v-39q0 -25 164 -100q201 -94 387 -94q160 0 256 31q145 47 146 161q0 143 -140 207q-102 47 -266 47q-70 0 -112.5 -6t-49.5 -12l-28 -41v336l20 -31q6 -10 37 -16t80 -6 q137 0 240 36q131 47 131 136q0 88 -72 132t-190 44q-201 0 -369 -92q-145 -80 -135 -123l10 -39l-217 250l33 -13q90 90 256 166q184 86 430 86q268 0 422 -121q135 -106 135 -260q0 -86 -24.5 -134t-114.5 -140q-4 -4 -5 -14q2 -14 5 -15q121 -70 178 -147q65 -90 65 -211 z" />
<glyph unicode="4" horiz-adv-x="1499" d="M1450 229l-18 41h-207v-252l28 -18h-348l29 18v252h-858l-21 -41v277l846 907l-16 21h360l-22 -21l-4 -909h208l23 45v-320zM924 510v602l-568 -602h568z" />
<glyph unicode="5" horiz-adv-x="1495" d="M1413 483q0 -199 -129 -327q-184 -184 -598 -185q-201 0 -364 76l-250 154l-27 -13l188 265l-4 -29q-8 -39 146 -123q178 -98 346 -98q180 0 289 65q117 72 116 201q0 135 -91 212t-263 77q-162 0 -305 -72q-127 -63 -115 -98l13 -33l-293 272l32 -2l2 588l-18 21h1200 l19 28v-311l-19 33h-901v-191q0 -43 5 -57t22 -14q76 31 175 53t222 22q338 0 494 -198q108 -138 108 -316z" />
<glyph unicode="6" horiz-adv-x="1521" d="M1460 485q0 -203 -129 -333q-184 -188 -596 -189q-256 0 -436 160q-217 193 -217 559q0 319 186 545q197 238 504 237q182 0 328 -45l254 -102q12 0 18 4l31 20l-156 -292v41q0 33 -108 92q-135 74 -301 73q-188 0 -322 -120q-121 -109 -121 -230v-22q0 -29 19 -29 q94 43 207.5 78t240.5 35q344 0 496 -183q102 -123 102 -299zM1178 471q0 115 -93 186q-98 78 -270 78q-182 0 -282.5 -73.5t-100.5 -196.5q0 -104 98 -180q111 -86 299 -86q170 0 259.5 75.5t89.5 196.5z" />
<glyph unicode="7" horiz-adv-x="1454" d="M1399 1214l-703 -1196l29 -18h-420l39 23l703 1169h-975l-21 -25v293l21 -28h1300l27 43v-261z" />
<glyph unicode="8" horiz-adv-x="1619" d="M1554 414q0 -180 -157 -308q-201 -162 -594 -161q-389 0 -582 164q-150 127 -149 313q0 104 41 170q53 84 200 172q4 2 0 14t-10 17q-92 68 -119 147q-16 47 -16 143q0 162 145 267q178 127 541 127q283 0 453 -129q154 -117 153 -271q0 -102 -30.5 -158.5t-104.5 -111.5 q-6 -4 -10 -14q-4 -12 2 -15q147 -90 196 -174q41 -69 41 -192zM1141 1055q0 74 -68 112q-82 47 -268 47q-137 0 -217 -28q-113 -41 -113 -133q0 -74 68 -113q82 -47 266 -47q141 0 219 27q113 39 113 135zM1235 428q0 94 -82 145q-98 61 -332 62q-172 0 -278 -41 q-143 -55 -144 -170q0 -127 142 -184q109 -45 284 -45q152 0 262 47q148 61 148 186z" />
<glyph unicode="9" horiz-adv-x="1515" d="M1448 741q0 -315 -186 -538q-199 -238 -504 -238q-201 0 -339 48l-259 93l-31 -20l154 293v-41q0 -20 61 -64q145 -102 346 -102q190 0 324 119q119 106 119 229v23q0 29 -19 28q-94 -43 -208.5 -76.5t-239.5 -33.5q-340 0 -492 182q-102 123 -102 297q0 203 127 334 q182 186 594 186q260 0 438 -157q217 -193 217 -562zM1096 963q0 102 -99 178q-111 86 -299 86q-168 0 -257 -76t-89 -197q0 -113 95.5 -188.5t267.5 -75.5q180 0 280.5 75t100.5 198z" />
<glyph unicode=":" horiz-adv-x="512" d="M268 668q-63 0 -98 37.5t-35 93.5q0 55 35 94t98 39t98 -39t35 -94q0 -53 -35 -92t-98 -39zM272 -23q-63 0 -100 41t-37 99q0 57 35 98t102 41q66 0 103 -41t37 -98q0 -59 -35 -99.5t-105 -40.5z" />
<glyph unicode=";" horiz-adv-x="512" d="M260 666q-66 0 -102.5 41t-36.5 98t37 98t102 41q66 0 102.5 -41t36.5 -98q0 -59 -34.5 -99t-104.5 -40zM430 123q4 -16 4 -49q0 -125 -80 -238q-86 -121 -192 -121q-18 0 -29 2v60q59 16 102.5 70.5t43.5 93.5q0 23 -19 22q-39 0 -82 37q-55 47 -55 123q0 55 39 94 t98 45q66 0 112 -36.5t58 -102.5z" />
<glyph unicode="&#x3c;" horiz-adv-x="1179" d="M1087 -8l-995 422v168l995 422v-195l-747 -311l747 -312v-194z" />
<glyph unicode="=" horiz-adv-x="1179" d="M1087 604h-995v184h995v-184zM1087 207h-995v184h995v-184z" />
<glyph unicode="&#x3e;" horiz-adv-x="1179" d="M1087 414l-995 -422v194l748 312l-748 311v195l995 -422v-168z" />
<glyph unicode="?" horiz-adv-x="995" d="M946 1069q0 -168 -160.5 -328.5t-160.5 -287.5l4 -58l43 -22h-318l54 20l-2 37q0 182 67 320l184 280q4 16 5 31q0 55 -35 96q-45 53 -135 53q-66 0 -153 -67.5t-75 -100.5l15 -34l-242 241l35 -8q98 80 215 141q129 70 241 70q188 0 303 -106.5t115 -276.5zM520 -35 q-68 0 -104.5 41t-36.5 100q0 57 37 99.5t104 42.5q68 0 105 -41t37 -101q0 -59 -37 -100t-105 -41z" />
<glyph unicode="@" horiz-adv-x="1572" d="M1526 823q0 -180 -103 -336q-117 -176 -293 -176q-96 0 -141 43q-31 29 -51 90q-51 -57 -96 -84q-68 -41 -154 -41q-98 0 -152.5 73t-54.5 188q0 160 103 319q127 199 321 199q68 0 101 -25q10 -6 34 -43l17 39h168l-107 -508q-4 -16 -6 -42.5t-2 -39.5q0 -25 14.5 -38 t36.5 -13q104 0 174 139q61 121 62 254q0 195 -152 348q-166 168 -418 168q-233 0 -391 -172q-168 -182 -168 -477q0 -250 168 -416t412 -166q125 0 219 26t201 75l24 -109q-111 -55 -226.5 -86.5t-256.5 -31.5q-352 0 -573 243q-188 209 -189 459q0 342 219 555t561 213 q295 0 497 -179.5t202 -447.5zM993 856q0 115 -69 115q-86 0 -164 -99q-90 -113 -90 -274q0 -158 100 -158q76 0 149.5 135.5t73.5 280.5z" />
<glyph unicode="A" horiz-adv-x="1658" d="M1647 0h-394l29 18l-178 349h-639l-164 -351l27 -16h-346l28 18l602 1395l-22 21h375l-21 -21l674 -1395zM1001 610l-235 475l-207 -475h442z" />
<glyph unicode="B" horiz-adv-x="1636" d="M1583 397q0 -158 -112.5 -277.5t-274.5 -119.5h-1102l29 18v1395l-23 21h1053q166 0 269.5 -97.5t103.5 -251.5q2 -20 2 -30q0 -92 -46 -163t-134 -118q-8 -4 -9 -14q0 -10 9 -15q137 -61 190 -149q45 -76 45 -199zM1243 1047q0 70 -52 113.5t-126 43.5h-659v-330h679 q66 0 112 55t46 118zM1280 424q0 92 -47 143q-57 63 -182 64h-639v-387h645q100 0 161.5 47t61.5 133z" />
<glyph unicode="C" horiz-adv-x="1720" d="M1688 246l-25 4q-88 -104 -264 -184q-193 -88 -459 -89q-371 0 -612 175q-279 201 -279 573q0 340 245 550t636 210q190 0 368 -49l306 -109l34 2l-182 -293l-12 35q-10 39 -156 100q-176 74 -364 74q-270 0 -423 -146.5t-153 -381.5q0 -221 172 -361q166 -133 420 -133 q176 0 326 68q217 98 229 188l4 29z" />
<glyph unicode="D" horiz-adv-x="1716" d="M1653 702q0 -244 -117 -419q-92 -137 -244 -220q-119 -63 -207 -63h-991l29 18v1395l-23 21h951q104 0 225 -60q158 -78 254 -223q123 -187 123 -449zM1366 702q0 203 -102.5 345.5t-227.5 142.5h-616v-932h645q106 0 199 121q102 133 102 323z" />
<glyph unicode="E" horiz-adv-x="1544" d="M1454 -31l-18 29l-1342 2l29 18v1395l-23 21h1315l19 28v-268l-19 33h-1020v-383h686l23 45v-301l-19 41h-690v-393h1041l18 28v-295z" />
<glyph unicode="F" horiz-adv-x="1462" d="M1391 1186l-17 33h-960v-353h641l24 45v-315l-22 41h-645v-619l28 -18h-346l29 18v1395l-25 21h1276l17 28v-276z" />
<glyph unicode="G" horiz-adv-x="1751" d="M1683 190q-158 -133 -385 -192q-172 -45 -364 -45q-373 0 -612 170q-279 199 -279 569q0 340 246 547t637 207q188 0 358 -51l287 -115l35 4l-170 -297l-11 37q-14 41 -149 104q-170 80 -358 80q-268 0 -426 -151q-150 -143 -150 -373q0 -217 127 -336q150 -139 467 -139 q184 0 299 51q33 14 113 74v160h-396l-28 -41v338l30 -46h713l-25 -18v-537h41z" />
<glyph unicode="H" horiz-adv-x="1720" d="M1626 0h-371l37 25v583h-854l-2 -590l29 -18h-371l29 18v1395l-25 21h357l-29 -21v-545h868v545l-22 21h348l-23 -21v-1395z" />
<glyph unicode="I" horiz-adv-x="550" d="M457 0h-359l29 18v1395l-25 21h349l-23 -21v-1395z" />
<glyph unicode="J" horiz-adv-x="1259" d="M1159 1434l-22 -21v-1024q0 -215 -176 -328q-154 -98 -386 -98q-143 0 -290 43q-186 53 -256 113l-27 -19l141 314l4 -33q59 -76 170 -117t220 -41q127 0 204 39q94 47 95 144v1007l-25 21h348z" />
<glyph unicode="K" horiz-adv-x="1556" d="M1634 0h-448l28 18l-555 668l-239 -184v-484l29 -18h-355l29 18v1395l-23 21h344l-30 -21v-573l723 573l-25 21h447l-31 -17l-643 -538l710 -856z" />
<glyph unicode="L" horiz-adv-x="1488" d="M1425 -29l-32 29h-1299l29 18v1395l-23 21h355l-23 -21v-1171h961l32 28v-299z" />
<glyph unicode="M" horiz-adv-x="1804" d="M1708 0h-336l29 18v881l-510 -907l-508 893v-867l29 -18h-318l29 18v1395l-23 21h381l-32 -25l458 -840l443 840l-33 25h389l-25 -21v-1395z" />
<glyph unicode="N" horiz-adv-x="1708" d="M1614 1430l-29 -17v-1393l23 -22h-355l31 27l-891 921v-928l29 -18h-328l29 18v1395l-25 21h301l-32 -25l938 -985v989l-29 17h338z" />
<glyph unicode="O" horiz-adv-x="1701" d="M1649 797q0 -25 2 -51.5t2 -43.5q0 -346 -244 -540q-219 -176 -555 -176q-346 0 -571 204q-240 217 -240 578q0 322 242 518q225 184 555 184q334 0 542 -155q236 -174 267 -518zM1376 725q0 213 -158.5 357.5t-377.5 144.5q-209 0 -359.5 -142.5t-150.5 -345.5 q0 -211 159.5 -356t378.5 -145q207 0 357.5 140t150.5 347z" />
<glyph unicode="P" horiz-adv-x="1501" d="M1448 1081q0 -221 -145 -348q-123 -106 -281 -106h-606v-613l24 -14h-342l25 14v1395l-23 21h947q174 0 282 -89q119 -96 119 -260zM1165 1044q0 68 -41 113t-125 45h-587v-330h596q66 0 111.5 53t45.5 119z" />
<glyph unicode="Q" horiz-adv-x="1720" d="M1716 106l-178 -202l-211 162q-10 6 -20 6q-96 -37 -207 -66t-244 -29q-369 0 -588 205q-225 211 -225 578q0 322 242 518q227 184 555 184q326 0 565 -180q258 -195 258 -494q0 -213 -49 -354l-109 -203q0 -10 15 -22l153 -117zM1255 410q7 -3 14 -3q36 0 68 74 q39 88 39 213q0 211 -110 350q-139 174 -424 175q-207 0 -362.5 -141.5t-155.5 -346.5q0 -281 192 -409q141 -94 350 -95q98 0 148 21q6 8 12 18q-23 29 -39 43q-53 43 -118.5 53.5t-110.5 10.5q-31 0 -47.5 -2t-51.5 -13q117 158 281 158q82 0 211 -59z" />
<glyph unicode="R" horiz-adv-x="1605" d="M1608 0h-430l28 18l-436 596h-356v-598l24 -16h-342l27 16v1395l-25 21h946q188 0 322 -97q156 -113 156 -309q0 -184 -109 -295q-119 -121 -252 -121l408 -587zM1225 1024q0 92 -59.5 136t-166.5 44h-587v-358h594q96 0 149 35q70 45 70 143z" />
<glyph unicode="S" horiz-adv-x="1554" d="M1501 1284l-176 -285l2 37q0 41 -162 109q-190 80 -383 80q-240 0 -338 -70q-66 -45 -65 -115q-10 -106 276 -139q457 -51 545 -78q297 -90 297 -338q0 -16 -2 -33.5t-2 -27.5q-25 -215 -172 -326q-176 -131 -541 -131q-186 0 -374 60q-117 37 -256 106q-97 47 -111 48 q-1 0 -2 -1l-31 -18l172 278l-2 -37q0 -29 164 -98q209 -88 446 -88q186 0 289 53.5t103 153.5q1 5 0 10q0 118 -271 150q-475 55 -536 73q-293 92 -293 361q0 199 180 315q190 123 533 123q203 0 383 -65l294 -121z" />
<glyph unicode="T" horiz-adv-x="1505" d="M1456 1157l-29 33h-526v-1172l29 -18h-359l29 18v1172h-534l-27 -33v305l27 -28h1361l29 28v-305z" />
<glyph unicode="U" horiz-adv-x="1718" d="M1618 1434l-23 -21v-958q0 -270 -223 -389q-178 -94 -504 -95q-356 0 -540 105q-205 117 -205 362v975l-23 21h342l-30 -21v-960q0 -135 170 -199q117 -43 264 -43q184 0 295 43q150 57 149 190v969l-22 21h350z" />
<glyph unicode="V" horiz-adv-x="1564" d="M1569 1430l-29 -17l-588 -1395l21 -22h-338l20 22l-626 1395l-29 17h379l-27 -17l459 -997l436 997l-28 17h350z" />
<glyph unicode="W" horiz-adv-x="1953" d="M1944 1434l-27 -19l-381 -1392l25 -23h-369l33 25l-262 852l-261 -852l31 -25h-360l24 23l-368 1392l-29 19h362l-28 -19l233 -874l269 872l-21 21h342l-22 -21l251 -872l238 874l-29 19h349z" />
<glyph unicode="X" horiz-adv-x="1476" d="M1509 0h-446l29 18l-377 474l-363 -474l29 -18h-416l39 23l543 716l-516 678l-29 17h434l-22 -21l325 -424l320 424l-25 21h408l-31 -17l-496 -657l555 -737z" />
<glyph unicode="Y" horiz-adv-x="1525" d="M1520 1434l-31 -17l-565 -776v-623l28 -18h-340l29 18v623l-608 776l-31 17h397l-24 -21l405 -543l387 543l-22 21h375z" />
<glyph unicode="Z" horiz-adv-x="1554" d="M1495 1430l-899 -1194h856l21 28v-295l-21 29l-1419 2l897 1192h-826l-26 -29v295l26 -28h1391z" />
<glyph unicode="[" horiz-adv-x="763" d="M676 -231h-506v1663h506v-111h-299v-1444h299v-108z" />
<glyph unicode="\" horiz-adv-x="546" d="M709 -20h-187l-684 1470h187z" />
<glyph unicode="]" horiz-adv-x="763" d="M596 -231h-508v108h299v1444h-299v111h508v-1663z" />
<glyph unicode="^" horiz-adv-x="1179" d="M1038 713h-194l-254 526l-256 -526h-193l355 719h188z" />
<glyph unicode="_" horiz-adv-x="983" d="M983 -410h-983v99h983v-99z" />
<glyph unicode="`" d="M492 1313h-201l-287 286h303z" />
<glyph unicode="a" horiz-adv-x="1388" d="M1378 0h-329l24 16l-149 291h-535l-137 -293l22 -14h-290l24 16l504 1168l-18 16h313l-16 -16l563 -1168zM838 510l-197 399l-174 -399h371z" />
<glyph unicode="b" horiz-adv-x="1370" d="M1325 332q0 -131 -94 -231.5t-230 -100.5h-921l22 16v1168l-18 16h881q139 0 226 -81t87 -210q2 -18 2 -26q0 -76 -40 -137.5t-112 -98.5q-8 -2 -6 -12q2 -8 6 -10q113 -49 158 -125q39 -66 39 -168zM1040 877q0 57 -44 94t-105 37h-551v-277h569q55 0 93 44.5t38 101.5z M1071 354q0 78 -39 121q-47 53 -153 53h-535v-323h541q84 0 135 38.5t51 110.5z" />
<glyph unicode="c" horiz-adv-x="1439" d="M1413 205l-20 4q-74 -88 -222 -154q-162 -74 -385 -73q-309 0 -512 145q-233 168 -233 479q0 285 205 461t532 176q158 0 307 -41l256 -92l31 2l-153 -244l-11 29q-8 35 -129 84q-147 61 -307 61q-225 0 -353 -121.5t-128 -320.5q0 -186 141 -300t354 -114q188 0 338 93 q119 74 127 122l4 25z" />
<glyph unicode="d" horiz-adv-x="1435" d="M1382 588q0 -291 -194 -461q-145 -127 -279 -127h-829l22 16v1168l-18 16h795q156 0 301 -123q202 -172 202 -489zM1143 588q0 172 -84 289.5t-191 117.5h-516v-780h539q90 0 166 100q86 113 86 273z" />
<glyph unicode="e" horiz-adv-x="1292" d="M1217 -27l-15 25l-1122 2l22 16v1168l-18 16h1100l16 25v-226l-16 27h-852v-319h573l19 36v-251l-15 34h-577v-329h870l15 24v-248z" />
<glyph unicode="f" horiz-adv-x="1224" d="M1163 993l-12 27h-805v-295h537l20 37v-262l-18 32h-541v-516l25 -16h-289l22 16v1168l-20 16h1069l12 25v-232z" />
<glyph unicode="g" horiz-adv-x="1466" d="M1409 160q-131 -113 -322 -162q-141 -37 -305 -37q-309 0 -512 143q-233 166 -233 476q0 285 204.5 457.5t532.5 172.5q158 0 299 -43l242 -96l28 4l-141 -250l-8 31q-12 35 -125 88q-143 68 -301 68q-225 0 -353 -124t-128 -315q0 -182 106 -282q125 -117 391 -117 q154 0 250 43q14 6 94 62v135h-331l-25 -35v283l27 -37h596l-21 -17v-448h35z" />
<glyph unicode="h" horiz-adv-x="1439" d="M1362 0h-311l30 20v490h-714l-2 -494l24 -16h-309l22 16v1168l-20 16h299l-25 -16v-457h727v457l-18 16h291l-19 -16v-1168z" />
<glyph unicode="i" horiz-adv-x="460" d="M383 0h-301l24 16v1168l-20 16h291l-19 -16v-1168z" />
<glyph unicode="j" horiz-adv-x="1054" d="M971 1200l-19 -16v-858q0 -180 -147 -275q-127 -82 -324 -82q-154 0 -309 58q-111 41 -147 73l-23 -16l119 262l2 -27q49 -63 142 -98t184 -35q106 0 172 33q78 39 77 121v844l-20 16h293z" />
<glyph unicode="k" horiz-adv-x="1302" d="M1368 0h-375l23 16l-463 557l-201 -153v-404l23 -16h-295l22 16v1168l-18 16h289l-27 -16v-482l606 482l-22 16h375l-27 -14l-537 -451l594 -717z" />
<glyph unicode="l" horiz-adv-x="1245" d="M1194 -25l-29 25h-1085l22 16v1168l-18 16h297l-19 -16v-981h803l29 22v-250z" />
<glyph unicode="m" horiz-adv-x="1509" d="M1430 0h-281l25 16v736l-429 -758l-423 747v-725l22 -16h-264l22 16v1168l-18 16h319l-28 -20l385 -703l370 703l-28 20h325l-20 -16v-1168z" />
<glyph unicode="n" horiz-adv-x="1429" d="M1352 1196l-25 -12v-1168l19 -18h-297l26 22l-745 773v-777l22 -16h-272l22 16v1168l-20 16h252l-27 -20l785 -826v830l-25 12h285z" />
<glyph unicode="o" horiz-adv-x="1425" d="M1380 668q2 -27 3 -46.5t1 -31.5q0 -291 -202 -455q-184 -147 -467 -147q-287 0 -477 172q-201 182 -201 483q0 268 201 432q190 156 464 156q279 0 455 -131q196 -145 223 -432zM1151 606q0 178 -133 299t-316 121q-172 0 -299 -119t-127 -289q0 -176 134.5 -297.5 t316.5 -121.5q172 0 298 117.5t126 289.5z" />
<glyph unicode="p" horiz-adv-x="1257" d="M1212 905q0 -184 -120 -291q-102 -90 -236 -90h-508v-512l21 -12h-287l20 12v1168l-18 16h793q145 0 240 -76t95 -215zM975 874q0 57 -35 94.5t-104 37.5h-492v-275h500q55 0 93 44t38 99z" />
<glyph unicode="q" horiz-adv-x="1439" d="M1436 90l-148 -170l-178 135q-6 4 -16 5q-19 0 -56 -15q-164 -63 -321 -63q-307 0 -493.5 174t-186.5 481q0 270 201 434q188 154 464 154q272 0 474 -152q217 -164 217 -414q0 -180 -41 -297l-92 -169q0 -8 12 -19l129 -96zM1051 342q5 -2 10 -2q31 0 59 62 q33 73 33 178q0 178 -92 292q-117 147 -356 148q-176 0 -305.5 -117t-129.5 -291q0 -233 162 -342q119 -80 293 -80q68 0 106 11l27 22q-18 23 -33 35q-45 37 -92 43t-65.5 8t-34.5 2q-45 0 -80 -12q94 133 233 133q68 0 177 -51q43 -21 88 -39z" />
<glyph unicode="r" horiz-adv-x="1343" d="M1346 0h-361l25 16l-365 498h-299v-500l21 -14h-287l22 14v1168l-20 16h792q160 0 271 -80q129 -92 129 -260q0 -154 -90 -246q-100 -102 -211 -102l340 -492zM1026 856q0 76 -52 114t-138 38h-492v-299h498q80 0 125 28q59 37 59 119z" />
<glyph unicode="s" horiz-adv-x="1300" d="M1257 1075l-147 -239v32q0 33 -135 90q-160 68 -320 68q-201 0 -284 -59q-53 -37 -54 -97q-10 -88 230 -114q377 -41 454 -66q250 -76 250 -284v-31q-2 -14 -2 -21q-20 -178 -143 -270q-147 -111 -453 -111q-174 0 -346 60l-276 119l-25 -17l144 234l-3 -31 q0 -25 138 -82q176 -74 372 -74q154 0 241 45t87 127q10 106 -225 133q-389 45 -449 64q-246 76 -245 301q0 166 153.5 266.5t442.5 100.5q170 0 321 -56l246 -100z" />
<glyph unicode="t" horiz-adv-x="1259" d="M1219 969l-25 26h-440v-979l24 -16h-299l23 16v979h-447l-22 -26v256l22 -25h1139l25 25v-256z" />
<glyph unicode="u" horiz-adv-x="1437" d="M1354 1200l-19 -16v-803q0 -227 -186 -326q-150 -80 -422 -80q-297 0 -453 88q-172 98 -172 304v817l-18 16h287l-27 -16v-805q0 -115 143 -168q94 -35 222 -35q152 0 245 37q125 49 125 160v811l-18 16h293z" />
<glyph unicode="v" horiz-adv-x="1308" d="M1313 1196l-25 -12l-491 -1168l18 -20h-285l19 20l-524 1168l-25 12h317l-22 -12l383 -836l366 836l-24 12h293z" />
<glyph unicode="w" horiz-adv-x="1634" d="M1626 1200l-22 -16l-318 -1166l21 -18h-310l29 20l-221 713l-217 -713l26 -20h-303l21 18l-307 1166l-25 16h303l-24 -16l196 -731l223 731l-16 16h287l-19 -16l211 -731l199 731l-25 16h291z" />
<glyph unicode="x" horiz-adv-x="1234" d="M1264 0h-375l24 16l-315 396l-303 -396l24 -16h-348l33 18l453 600l-430 568l-25 14h363l-19 -16l272 -357l269 357l-21 16h340l-24 -14l-416 -549l465 -619z" />
<glyph unicode="y" horiz-adv-x="1277" d="M1272 1200l-27 -14l-473 -649l2 -521l25 -16h-287l25 16v521l-510 649l-25 14h332l-21 -16l340 -455l324 455l-19 16h314z" />
<glyph unicode="z" horiz-adv-x="1300" d="M1251 1196l-751 -999h714l19 24v-248l-19 25l-1187 2l751 997h-690l-22 -24v248l22 -25h1163z" />
<glyph unicode="{" horiz-adv-x="763" d="M608 -240q-223 0 -315 60.5t-92 214.5v348q0 100 -27 149.5t-102 73.5q74 23 101.5 74t27.5 147v349q0 154 91 214t316 60v-53q-199 -35 -198 -230v-309q0 -117 -27 -166q-33 -61 -129 -84q96 -27 129 -88q27 -49 27 -166v-311q0 -100 46 -155.5t152 -71.5v-56z" />
<glyph unicode="|" horiz-adv-x="436" d="M311 0h-186v1432h186v-1432z" />
<glyph unicode="}" horiz-adv-x="763" d="M694 606q-78 -25 -103.5 -73t-25.5 -150v-348q0 -154 -91 -214.5t-316 -60.5v56q106 16 152 71.5t46 155.5v311q0 117 25 164q33 63 131 86q-96 25 -126 81t-30 173v309q0 100 -47 155.5t-151 74.5v53q225 0 316 -59.5t91 -214.5v-349q0 -98 25.5 -147t103.5 -74z" />
<glyph unicode="~" horiz-adv-x="1179" d="M1053 498q-53 -72 -97 -103q-70 -51 -157 -51q-51 0 -106.5 18.5t-121.5 49.5q-84 37 -104 45q-55 20 -88 20q-66 0 -119 -63q-12 -14 -53 -78l-80 162q53 72 96 102q70 51 158 51q51 0 113 -20q35 -10 112.5 -46t106.5 -46q57 -23 88 -23q61 0 119 68q18 20 53 75z" />
<glyph unicode="&#xa1;" horiz-adv-x="524" d="M272 1161q-63 0 -100 41t-37 98t35 98.5t102 41.5q66 0 103 -41t37 -99q0 -57 -37 -98t-103 -41zM473 -12h-383l27 18l96 1010l-49 20h213l-43 -18l112 -1012z" />
<glyph unicode="&#xa2;" horiz-adv-x="1241" d="M1153 1110l-160 -287v47q0 14 -49 55.5t-92 57.5l-60.5 18.5t-58.5 10.5q-47 0 -47 -37v-506q0 -33 41 -33q23 0 55 10q4 2 59.5 22.5t103.5 56.5t48 57l-4 28l158 -243l-35 14q-10 6 -31 -14q-72 -66 -157.5 -98.5t-149.5 -45.5l-84 -12v-207h-143v211q-199 16 -346 139 q-162 135 -162 377q0 221 127 350q88 90 237 133l129 29v187h144v-187q0 -2 98 -20q55 -10 115 -29q82 -27 160 -70l67 -39zM551 502v452q0 47 -41 47q-59 0 -131 -83q-80 -94 -80 -199q0 -102 78 -189q70 -78 131 -77q43 0 43 49z" />
<glyph unicode="&#xa3;" horiz-adv-x="1722" d="M1661 125l-35 10q-84 -57 -211 -107.5t-305 -50.5q-117 0 -264 48l-326 106q-80 0 -110 -33q-20 -23 -21 -59v-21l33 -18h-350l28 16q16 145 103 250q94 115 264 115q45 0 103.5 -1t123.5 -28q2 4 2 25q0 39 -10 78t-31.5 58t-51.5 22.5t-89 3.5h-336v106h316l-56 80 h-264v100h168q-6 18 -12 39q-47 104 -47 162q0 178 155 291q166 121 445 121q193 0 331 -54l207 -106l35 8l-223 -274l8 37q10 35 -120 89t-238 54q-127 0 -201 -35q-94 -45 -94 -137q0 -78 82 -150q66 -57 98 -57h461v-92h-367l56 -80h323v-96h-276q-12 0 -13 -23 q0 -14 5.5 -49t5.5 -41q0 -27 -2 -45q-8 -74 -9 -76q0 -33 17 -35q10 -12 22 -18q45 -20 135 -20q100 0 199.5 31.5t91.5 64.5l-8 35z" />
<glyph unicode="&#xa4;" horiz-adv-x="1529" d="M1305 281l-107 -107l-121 119q-141 -104 -313 -105q-88 0 -165 26t-146 79l-121 -119l-109 107l121 120q-106 141 -106 314q0 174 106 315l-121 121l109 104l121 -116q66 49 145.5 76.5t165.5 27.5q88 0 165 -25.5t148 -78.5l121 116l107 -104l-119 -121 q51 -68 78.5 -147.5t27.5 -167.5q0 -172 -106 -314zM1092 715q0 139 -94.5 237.5t-233.5 98.5t-232.5 -97.5t-93.5 -238.5q0 -137 94.5 -235.5t231.5 -98.5q139 0 233.5 98.5t94.5 235.5z" />
<glyph unicode="&#xa5;" horiz-adv-x="1525" d="M1520 1434l-31 -17l-510 -700h309v-185h-364v-126h364v-185h-364v-203l28 -18h-340l29 18v203h-348v185h348v126h-348v185h289l-549 700l-31 17h397l-24 -21l405 -543l387 543l-22 21h375z" />
<glyph unicode="&#xa7;" horiz-adv-x="1093" d="M1004 477q0 -92 -62.5 -156.5t-157.5 -76.5q45 -35 71 -90.5t26 -118.5q0 -137 -93 -209q-84 -66 -225 -66q-119 0 -212 53.5t-158 155.5l149 115q37 -80 85 -118t132 -38q49 0 87 32t38 81q0 72 -154 190q-258 199 -284 226q-156 147 -156 284q0 92 62.5 157t156.5 77 q-49 37 -70.5 93t-21.5 126q0 117 102 190q92 66 216 66q109 0 200.5 -56.5t147.5 -152.5l-158 -104q-27 61 -72 100q-53 45 -114 45q-53 0 -89 -26.5t-36 -79.5q0 -70 151 -193l285 -233q154 -148 154 -273zM807 465q0 43 -82 123q-63 63 -111 104q-76 66 -104 88 q-96 78 -131 78q-43 0 -67.5 -26.5t-24.5 -65.5q0 -57 61 -119q25 -25 131 -119q174 -152 234 -151q37 0 65.5 26.5t28.5 61.5z" />
<glyph unicode="&#xa8;" d="M645 1329h-252v232h252v-232zM260 1329h-252v232h252v-232z" />
<glyph unicode="&#xa9;" horiz-adv-x="1572" d="M1505 715q0 -309 -206.5 -522t-512.5 -213q-305 0 -511.5 213t-206.5 522t206.5 522t511.5 213t512 -211t207 -524zM1337 715q0 248 -160.5 427t-390.5 179q-229 0 -389.5 -179t-160.5 -427q0 -246 160.5 -425t389.5 -179t390 179t161 425zM1141 567l-35 -174 q-2 -16 -16 -24q-6 -4 -43 -17.5t-93.5 -26t-111.5 -12.5q-213 0 -334 101q-131 109 -131 315q0 207 127 313.5t338 106.5q78 0 129 -12q23 -6 88 -31q47 -14 47 -43v-158l-49 -24q-16 80 -62 127q-55 57 -153 57q-127 0 -189.5 -95.5t-62.5 -240.5q0 -152 57 -237 q66 -96 195 -97q90 0 148.5 46t94.5 126h56z" />
<glyph unicode="&#xaa;" horiz-adv-x="833" d="M827 717h-198l14 10l-88 174h-322l-81 -176l12 -8h-174l14 10l303 700l-10 11h186l-8 -11l338 -700zM502 1022l-117 240l-104 -240h221z" />
<glyph unicode="&#xac;" horiz-adv-x="1519" d="M1448 0h-119v496h-1296v118h1415v-614z" />
<glyph unicode="&#xad;" horiz-adv-x="884" d="M762 430h-725v279h725v-279z" />
<glyph unicode="&#xae;" horiz-adv-x="1572" d="M1505 715q0 -309 -206.5 -522t-512.5 -213q-305 0 -511.5 213t-206.5 522t206.5 522t511.5 213t512 -211t207 -524zM1337 715q0 248 -160.5 427t-390.5 179q-229 0 -389.5 -179t-160.5 -427q0 -246 160.5 -425t389.5 -179t390 179t161 425zM1167 330h-153q-35 0 -76 61 l-168 285h-82v-189q0 -51 25.5 -74.5t70.5 -23.5v-59h-352v59q90 0 90 98v471q0 98 -90 99v63h393q104 0 170 -52t66 -159q0 -84 -38 -137t-101 -78l112 -176q35 -55 72 -98q31 -37 61 -66v-24zM897 909q0 72 -37 107t-94 35h-78v-303h78q131 -1 131 161z" />
<glyph unicode="&#xaf;" d="M666 1372h-678v146h678v-146z" />
<glyph unicode="&#xb0;" horiz-adv-x="851" />
<glyph unicode="&#xb1;" horiz-adv-x="1169" />
<glyph unicode="&#xb2;" horiz-adv-x="1449" d="M1382 -31l-20 29h-1278l-27 -43v65q0 307 248 498q72 55 461 240q248 117 248 252q0 88 -75 141t-177 53q-31 0 -62 -6q-137 -20 -299 -129q-154 -102 -143 -139l8 -39l-227 260l37 -10q104 119 254 213q166 104 372 104q291 0 467 -129q168 -123 168 -309 q0 -227 -237 -389q-117 -80 -443 -213q-240 -98 -239 -166v-14h944l20 26v-295z" />
<glyph unicode="&#xb3;" horiz-adv-x="1517" d="M1460 420q0 -172 -151 -295q-190 -156 -557 -156q-236 0 -416 70l-262 131l-27 -18l141 290v-39q0 -25 164 -100q201 -94 387 -94q160 0 256 31q145 47 146 161q0 143 -140 207q-102 47 -266 47q-70 0 -112.5 -6t-49.5 -12l-28 -41v336l20 -31q6 -10 37 -16t80 -6 q137 0 240 36q131 47 131 136q0 88 -72 132t-190 44q-201 0 -369 -92q-145 -80 -135 -123l10 -39l-217 250l33 -13q90 90 256 166q184 86 430 86q268 0 422 -121q135 -106 135 -260q0 -86 -24.5 -134t-114.5 -140q-4 -4 -5 -14q2 -14 5 -15q121 -70 178 -147q65 -90 65 -211 z" />
<glyph unicode="&#xb4;" d="M651 1599l-286 -286h-201l184 286h303z" />
<glyph unicode="&#xb5;" horiz-adv-x="1226" />
<glyph unicode="&#xb7;" horiz-adv-x="512" d="M264 608q-68 0 -105.5 44t-37.5 102q0 55 34.5 95t100.5 40q68 0 105.5 -44t37.5 -102q0 -55 -34.5 -95t-100.5 -40z" />
<glyph unicode="&#x2219;" horiz-adv-x="512" d="M264 608q-68 0 -105.5 44t-37.5 102q0 55 34.5 95t100.5 40q68 0 105.5 -44t37.5 -102q0 -55 -34.5 -95t-100.5 -40z" />
<glyph unicode="&#xb8;" d="M539 -266q0 -90 -82 -142q-72 -45 -168 -45q-53 0 -100.5 12.5t-114.5 41.5l39 88l71 -19q49 -12 76 -12q43 0 76 16.5t33 51.5q0 33 -23.5 52t-56.5 19q-43 0 -88 -16l-41 41l114 178h105l-84 -123l67 6q74 0 125.5 -38.5t51.5 -110.5z" />
<glyph unicode="&#xb9;" horiz-adv-x="825" d="M643 -4h-358l32 18v969q0 47 -59 47q-10 0 -43 -6t-70 -33q-6 -4 -16 -14l-18 -39v348l18 -41q4 -10 27 -10q55 0 96 35q29 23 43 53.5t14 58.5q0 20 -8 29l-27 23h363l-23 -21v-1399z" />
<glyph unicode="&#xba;" horiz-adv-x="856" d="M827 1104q2 -12 2 -25v-22q0 -174 -120 -273q-111 -90 -281 -90q-172 0 -285 103q-121 111 -120 290q0 160 117.5 257.5t281.5 97.5q168 0 272 -78q119 -88 133 -260zM690 1067q0 106 -79 179t-189 73q-104 0 -180 -71.5t-76 -174.5q0 -106 79 -179t191 -73q104 0 179 71 t75 175z" />
<glyph unicode="&#xbf;" horiz-adv-x="995" d="M494 1176q-68 0 -105 40.5t-37 100.5q0 57 37 99t105 42t104.5 -41t36.5 -100t-36.5 -100t-104.5 -41zM977 174l-35 8q-98 -80 -215 -141q-129 -70 -242 -70q-188 0 -302.5 106.5t-114.5 276.5q0 168 160.5 329t160.5 288l-4 57l-43 23h317l-53 -21l2 -37 q0 -182 -67 -319l-185 -281q-4 -16 -4 -31q0 -55 35 -96q45 -53 135 -53q66 0 153 67.5t75 100.5l-15 35z" />
<glyph unicode="&#xc0;" horiz-adv-x="1658" d="M1647 0h-394l29 18l-178 349h-639l-164 -351l27 -16h-346l28 18l602 1395l-22 21h375l-21 -21l674 -1395zM1001 610l-235 475l-207 -475h442zM953 1491h-201l-287 286h303z" />
<glyph unicode="&#xc1;" horiz-adv-x="1658" d="M1647 0h-394l29 18l-178 349h-639l-164 -351l27 -16h-346l28 18l602 1395l-22 21h375l-21 -21l674 -1395zM1001 610l-235 475l-207 -475h442zM1075 1783l-286 -286h-201l184 286h303z" />
<glyph unicode="&#xc2;" horiz-adv-x="1658" d="M1647 0h-394l29 18l-178 349h-639l-164 -351l27 -16h-346l28 18l602 1395l-22 21h375l-21 -21l674 -1395zM1001 610l-235 475l-207 -475h442zM1125 1497h-221l-125 162l-125 -162h-223l225 286h246z" />
<glyph unicode="&#xc3;" horiz-adv-x="1658" d="M1647 0h-394l29 18l-178 349h-639l-164 -351l27 -16h-346l28 18l602 1395l-22 21h375l-21 -21l674 -1395zM1001 610l-235 475l-207 -475h442zM1159 1782q-25 -111 -65 -164q-55 -72 -154 -72q-47 0 -113 21q-143 45 -178 45t-56.5 -21.5t-31.5 -56.5h-121 q12 100 68.5 170t155.5 70q51 0 116 -23q152 -51 158 -51q35 0 59.5 22.5t34.5 59.5h127z" />
<glyph unicode="&#xc4;" horiz-adv-x="1658" d="M1647 0h-394l29 18l-178 349h-639l-164 -351l27 -16h-346l28 18l602 1395l-22 21h375l-21 -21l674 -1395zM1001 610l-235 475l-207 -475h442zM1096 1534h-252v232h252v-232zM711 1534h-252v232h252v-232z" />
<glyph unicode="&#xc5;" horiz-adv-x="1658" d="M1647 0h-394l29 18l-178 349h-639l-164 -351l27 -16h-346l28 18l602 1395l-22 21h375l-21 -21l674 -1395zM1001 610l-235 475l-207 -475h442zM975 1645q0 -86 -61.5 -147.5t-147.5 -61.5t-146.5 60.5t-60.5 148.5q0 84 59.5 145.5t147.5 61.5q86 0 147.5 -61.5 t61.5 -145.5zM880 1645q0 45 -33.5 79t-80.5 34t-80 -33t-33 -80q0 -49 33 -82t80 -33t80.5 34t33.5 81z" />
<glyph unicode="&#xc6;" horiz-adv-x="2480" d="M2427 -31l-19 29l-1341 2l29 18v349h-500l-289 -351l21 -16h-346l34 18l1080 1371v24l-23 21h1315l18 28v-268l-18 33h-1020v-371l2 -12h684l23 45v-301l-19 41h-690v-393h1040l19 28v-295zM1096 610v406l-320 -406h320z" />
<glyph unicode="&#xc7;" horiz-adv-x="1720" d="M1688 246l-25 4q-88 -104 -256 -184q-186 -88 -440 -89l-39 -57l67 6q74 0 125 -39t51 -110q0 -90 -81 -142q-72 -45 -168 -45q-53 0 -100.5 12.5t-114.5 41.5l38 88l72 -19q49 -12 76 -12q43 0 75.5 16.5t32.5 51.5q0 33 -23.5 52t-55.5 19q-43 0 -88 -16l-41 41l71 112 q-338 0 -563 185q-252 207 -252 563q0 340 245 550t636 210q190 0 368 -49l306 -109l34 2l-182 -293l-12 35q-10 39 -156 100q-176 74 -364 74q-270 0 -423 -146.5t-153 -381.5q0 -221 172 -361q166 -133 420 -133q176 0 326 68q217 98 229 188l4 29z" />
<glyph unicode="&#xc8;" horiz-adv-x="1544" d="M1454 -31l-18 29l-1342 2l29 18v1395l-23 21h1315l19 28v-268l-19 33h-1020v-383h686l23 45v-301l-19 41h-690v-393h1041l18 28v-295zM953 1491h-201l-287 286h303z" />
<glyph unicode="&#xc9;" horiz-adv-x="1544" d="M1454 -31l-18 29l-1342 2l29 18v1395l-23 21h1315l19 28v-268l-19 33h-1020v-383h686l23 45v-301l-19 41h-690v-393h1041l18 28v-295zM1013 1783l-286 -286h-201l184 286h303z" />
<glyph unicode="&#xca;" horiz-adv-x="1544" d="M1454 -31l-18 29l-1342 2l29 18v1395l-23 21h1315l19 28v-268l-19 33h-1020v-383h686l23 45v-301l-19 41h-690v-393h1041l18 28v-295zM1106 1497h-221l-125 162l-125 -162h-223l225 286h246z" />
<glyph unicode="&#xcb;" horiz-adv-x="1544" d="M1454 -31l-18 29l-1342 2l29 18v1395l-23 21h1315l19 28v-268l-19 33h-1020v-383h686l23 45v-301l-19 41h-690v-393h1041l18 28v-295zM1096 1534h-252v232h252v-232zM711 1534h-252v232h252v-232z" />
<glyph unicode="&#xcc;" horiz-adv-x="550" d="M457 0h-359l29 18v1395l-25 21h349l-23 -21v-1395zM523 1491h-201l-287 286h303z" />
<glyph unicode="&#xcd;" horiz-adv-x="550" d="M457 0h-359l29 18v1395l-25 21h349l-23 -21v-1395zM522 1783l-286 -286h-201l184 286h303z" />
<glyph unicode="&#xce;" horiz-adv-x="550" d="M457 0h-359l29 18v1395l-25 21h349l-23 -21v-1395zM621 1497h-221l-125 162l-125 -162h-223l225 286h246z" />
<glyph unicode="&#xcf;" horiz-adv-x="550" d="M457 0h-359l29 18v1395l-25 21h349l-23 -21v-1395zM598 1534h-252v232h252v-232zM213 1534h-252v232h252v-232z" />
<glyph unicode="&#xd1;" horiz-adv-x="1708" d="M1614 1430l-29 -17v-1393l23 -22h-355l31 27l-891 921v-928l29 -18h-328l29 18v1395l-25 21h301l-32 -25l938 -985v989l-29 17h338zM1159 1782q-25 -111 -65 -164q-55 -72 -154 -72q-47 0 -113 21q-143 45 -178 45t-56.5 -21.5t-31.5 -56.5h-121q12 100 68.5 170 t155.5 70q51 0 116 -23q152 -51 158 -51q35 0 59.5 22.5t34.5 59.5h127z" />
<glyph unicode="&#xd2;" horiz-adv-x="1701" d="M1649 797q0 -25 2 -51.5t2 -43.5q0 -346 -244 -540q-219 -176 -555 -176q-346 0 -571 204q-240 217 -240 578q0 322 242 518q225 184 555 184q334 0 542 -155q236 -174 267 -518zM1376 725q0 213 -158.5 357.5t-377.5 144.5q-209 0 -359.5 -142.5t-150.5 -345.5 q0 -211 159.5 -356t378.5 -145q207 0 357.5 140t150.5 347zM1045 1491h-201l-287 286h303z" />
<glyph unicode="&#xd3;" horiz-adv-x="1701" d="M1649 797q0 -25 2 -51.5t2 -43.5q0 -346 -244 -540q-219 -176 -555 -176q-346 0 -571 204q-240 217 -240 578q0 322 242 518q225 184 555 184q334 0 542 -155q236 -174 267 -518zM1376 725q0 213 -158.5 357.5t-377.5 144.5q-209 0 -359.5 -142.5t-150.5 -345.5 q0 -211 159.5 -356t378.5 -145q207 0 357.5 140t150.5 347zM1063 1783l-286 -286h-201l184 286h303z" />
<glyph unicode="&#xd4;" horiz-adv-x="1701" d="M1649 797q0 -25 2 -51.5t2 -43.5q0 -346 -244 -540q-219 -176 -555 -176q-346 0 -571 204q-240 217 -240 578q0 322 242 518q225 184 555 184q334 0 542 -155q236 -174 267 -518zM1376 725q0 213 -158.5 357.5t-377.5 144.5q-209 0 -359.5 -142.5t-150.5 -345.5 q0 -211 159.5 -356t378.5 -145q207 0 357.5 140t150.5 347zM1204 1497h-221l-125 162l-125 -162h-223l225 286h246z" />
<glyph unicode="&#xd5;" horiz-adv-x="1701" d="M1649 797q0 -25 2 -51.5t2 -43.5q0 -346 -244 -540q-219 -176 -555 -176q-346 0 -571 204q-240 217 -240 578q0 322 242 518q225 184 555 184q334 0 542 -155q236 -174 267 -518zM1376 725q0 213 -158.5 357.5t-377.5 144.5q-209 0 -359.5 -142.5t-150.5 -345.5 q0 -211 159.5 -356t378.5 -145q207 0 357.5 140t150.5 347zM1159 1782q-25 -111 -65 -164q-55 -72 -154 -72q-47 0 -113 21q-143 45 -178 45t-56.5 -21.5t-31.5 -56.5h-121q12 100 68.5 170t155.5 70q51 0 116 -23q152 -51 158 -51q35 0 59.5 22.5t34.5 59.5h127z" />
<glyph unicode="&#xd6;" horiz-adv-x="1701" d="M1649 797q0 -25 2 -51.5t2 -43.5q0 -346 -244 -540q-219 -176 -555 -176q-346 0 -571 204q-240 217 -240 578q0 322 242 518q225 184 555 184q334 0 542 -155q236 -174 267 -518zM1376 725q0 213 -158.5 357.5t-377.5 144.5q-209 0 -359.5 -142.5t-150.5 -345.5 q0 -211 159.5 -356t378.5 -145q207 0 357.5 140t150.5 347zM1182 1534h-252v232h252v-232zM797 1534h-252v232h252v-232z" />
<glyph unicode="&#xd7;" horiz-adv-x="0" />
<glyph unicode="&#x141;" horiz-adv-x="0" />
<glyph unicode="&#xfd;" horiz-adv-x="0" />
<glyph unicode="&#xd8;" horiz-adv-x="1701" d="M1649 797q0 -25 2 -51.5t2 -43.5q0 -346 -244 -540q-219 -176 -555 -176q-238 0 -426 98l-104 -131l24 -14h-229l33 14l161 205q-270 209 -270 610q0 322 242 518q225 184 555 184q123 0 229.5 -20t202.5 -70l90 117l-21 19h222l-29 -19l-148 -186q111 -84 180 -212 t83 -302zM1102 1165q-117 61 -262 62q-209 0 -359.5 -142.5t-150.5 -345.5q0 -106 40 -196t117 -162zM1376 725q0 219 -164 362l-614 -784q55 -31 126 -48t144 -17q207 0 357.5 140t150.5 347z" />
<glyph unicode="&#xd9;" horiz-adv-x="1718" d="M1618 1434l-23 -21v-958q0 -270 -223 -389q-178 -94 -504 -95q-356 0 -540 105q-205 117 -205 362v975l-23 21h342l-30 -21v-960q0 -135 170 -199q117 -43 264 -43q184 0 295 43q150 57 149 190v969l-22 21h350zM1082 1491h-201l-287 286h303z" />
<glyph unicode="&#xda;" horiz-adv-x="1718" d="M1618 1434l-23 -21v-958q0 -270 -223 -389q-178 -94 -504 -95q-356 0 -540 105q-205 117 -205 362v975l-23 21h342l-30 -21v-960q0 -135 170 -199q117 -43 264 -43q184 0 295 43q150 57 149 190v969l-22 21h350zM1075 1783l-286 -286h-201l184 286h303z" />
<glyph unicode="&#xdb;" horiz-adv-x="1718" d="M1618 1434l-23 -21v-958q0 -270 -223 -389q-178 -94 -504 -95q-356 0 -540 105q-205 117 -205 362v975l-23 21h342l-30 -21v-960q0 -135 170 -199q117 -43 264 -43q184 0 295 43q150 57 149 190v969l-22 21h350zM1217 1497h-221l-125 162l-125 -162h-223l225 286h246z " />
<glyph unicode="&#xdc;" horiz-adv-x="1718" d="M1618 1434l-23 -21v-958q0 -270 -223 -389q-178 -94 -504 -95q-356 0 -540 105q-205 117 -205 362v975l-23 21h342l-30 -21v-960q0 -135 170 -199q117 -43 264 -43q184 0 295 43q150 57 149 190v969l-22 21h350zM1157 1534h-252v232h252v-232zM772 1534h-252v232h252 v-232z" />
<glyph unicode="&#xdd;" horiz-adv-x="1525" d="M1147 1880l-286 -286h-201l184 286h303zM1520 1434l-31 -17l-565 -776v-623l28 -18h-340l29 18v623l-608 776l-31 17h397l-24 -21l405 -543l387 543l-22 21h375z" />
<glyph unicode="&#xdf;" horiz-adv-x="2600" d="M2558 1075l-148 -239v32q0 33 -135 90q-160 68 -319 68q-201 0 -285 -59q-53 -37 -53 -97q-10 -88 229 -114q377 -41 455 -66q250 -76 250 -284v-31q-2 -14 -2 -21q-20 -178 -144 -270q-147 -111 -452 -111q-174 0 -346 60l-277 119l-24 -17l143 234l-2 -31 q0 -25 137 -82q176 -74 373 -74q154 0 241 45t87 127q10 106 -226 133q-389 45 -448 64q-246 76 -246 301q0 166 153.5 266.5t442.5 100.5q170 0 322 -56l245 -100zM1257 1075l-147 -239v32q0 33 -135 90q-160 68 -320 68q-201 0 -284 -59q-53 -37 -54 -97q-10 -88 230 -114 q377 -41 454 -66q250 -76 250 -284v-31q-2 -14 -2 -21q-20 -178 -143 -270q-147 -111 -453 -111q-174 0 -346 60l-276 119l-25 -17l144 234l-3 -31q0 -25 138 -82q176 -74 372 -74q154 0 241 45t87 127q10 106 -225 133q-389 45 -449 64q-246 76 -245 301q0 166 153.5 266.5 t442.5 100.5q170 0 321 -56l246 -100z" />
<glyph unicode="&#xe0;" horiz-adv-x="1388" d="M1378 0h-329l24 16l-149 291h-535l-137 -293l22 -14h-290l24 16l504 1168l-18 16h313l-16 -16l563 -1168zM838 510l-197 399l-174 -399h371zM799 1313h-201l-287 286h303z" />
<glyph unicode="&#xe1;" horiz-adv-x="1388" d="M1378 0h-329l24 16l-149 291h-535l-137 -293l22 -14h-290l24 16l504 1168l-18 16h313l-16 -16l563 -1168zM838 510l-197 399l-174 -399h371zM970 1599l-286 -286h-201l184 286h303z" />
<glyph unicode="&#xe2;" horiz-adv-x="1388" d="M1378 0h-329l24 16l-149 291h-535l-137 -293l22 -14h-290l24 16l504 1168l-18 16h313l-16 -16l563 -1168zM838 510l-197 399l-174 -399h371zM1012 1313h-221l-125 162l-125 -162h-223l225 286h246z" />
<glyph unicode="&#xe3;" horiz-adv-x="1388" d="M1378 0h-329l24 16l-149 291h-535l-137 -293l22 -14h-290l24 16l504 1168l-18 16h313l-16 -16l563 -1168zM838 510l-197 399l-174 -399h371zM1005 1577q-25 -111 -65 -164q-55 -72 -154 -72q-47 0 -113 21q-143 45 -178 45t-56.5 -21.5t-31.5 -56.5h-121q12 100 68.5 170 t155.5 70q51 0 116 -23q152 -51 158 -51q35 0 59.5 22.5t34.5 59.5h127z" />
<glyph unicode="&#xe4;" horiz-adv-x="1388" d="M1378 0h-329l24 16l-149 291h-535l-137 -293l22 -14h-290l24 16l504 1168l-18 16h313l-16 -16l563 -1168zM838 510l-197 399l-174 -399h371zM971 1329h-252v232h252v-232zM586 1329h-252v232h252v-232z" />
<glyph unicode="&#xe5;" horiz-adv-x="1388" d="M1378 0h-329l24 16l-149 291h-535l-137 -293l22 -14h-290l24 16l504 1168l-18 16h313l-16 -16l563 -1168zM838 510l-197 399l-174 -399h371zM852 1491q0 -86 -61.5 -147.5t-147.5 -61.5t-146.5 60.5t-60.5 148.5q0 84 59.5 145.5t147.5 61.5q86 0 147.5 -61.5 t61.5 -145.5zM757 1491q0 45 -33.5 79t-80.5 34t-80 -33t-33 -80q0 -49 33 -82t80 -33t80.5 34t33.5 81z" />
<glyph unicode="&#xe6;" horiz-adv-x="1898" d="M1831 -27l-14 25l-1121 2l23 16v291h-363l-217 -293l19 -14h-291l31 16l823 1166l-43 18h1120l17 25v-226l-17 27h-852v-319h574l18 36v-251l-14 34h-578v-329h871l14 24v-248zM719 510v319l-232 -319h232z" />
<glyph unicode="&#xe7;" horiz-adv-x="1439" d="M1413 205l-20 4q-70 -86 -207 -152q-152 -74 -359 -73l-55 -80l62 6q66 0 111.5 -35t45.5 -100q0 -80 -73 -127q-63 -41 -152 -41q-43 0 -91 13t-102 36l35 78q45 -12 76 -19.5t57 -7.5q35 0 66 15.5t31 46.5q0 29 -19.5 46t-52.5 17q-14 0 -32.5 -3t-45.5 -11l-37 37 l82 127q-285 0 -477 153q-215 172 -215 471q0 285 205 461t532 176q158 0 307 -41l256 -92l31 2l-153 -244l-11 29q-8 35 -129 84q-147 61 -307 61q-225 0 -353 -121.5t-128 -320.5q0 -186 141 -300t354 -114q188 0 338 93q119 74 127 122l4 25z" />
<glyph unicode="&#xe8;" horiz-adv-x="1292" d="M1217 -27l-15 25l-1122 2l22 16v1168l-18 16h1100l16 25v-226l-16 27h-852v-319h573l19 36v-251l-15 34h-577v-329h870l15 24v-248zM836 1313h-201l-287 286h303z" />
<glyph unicode="&#xe9;" horiz-adv-x="1292" d="M1217 -27l-15 25l-1122 2l22 16v1168l-18 16h1100l16 25v-226l-16 27h-852v-319h573l19 36v-251l-15 34h-577v-329h870l15 24v-248zM903 1599l-286 -286h-201l184 286h303z" />
<glyph unicode="&#xea;" horiz-adv-x="1292" d="M1217 -27l-15 25l-1122 2l22 16v1168l-18 16h1100l16 25v-226l-16 27h-852v-319h573l19 36v-251l-15 34h-577v-329h870l15 24v-248zM1000 1313h-221l-125 162l-125 -162h-223l225 286h246z" />
<glyph unicode="&#xeb;" horiz-adv-x="1292" d="M1217 -27l-15 25l-1122 2l22 16v1168l-18 16h1100l16 25v-226l-16 27h-852v-319h573l19 36v-251l-15 34h-577v-329h870l15 24v-248zM958 1329h-252v232h252v-232zM573 1329h-252v232h252v-232z" />
<glyph unicode="&#xec;" horiz-adv-x="460" d="M383 0h-301l24 16v1168l-20 16h291l-19 -16v-1168zM467 1313h-201l-287 286h303z" />
<glyph unicode="&#xed;" horiz-adv-x="460" d="M383 0h-301l24 16v1168l-20 16h291l-19 -16v-1168zM473 1599l-286 -286h-201l184 286h303z" />
<glyph unicode="&#xee;" horiz-adv-x="460" d="M383 0h-301l24 16v1168l-20 16h291l-19 -16v-1168zM588 1313h-221l-125 162l-125 -162h-223l225 286h246z" />
<glyph unicode="&#xef;" horiz-adv-x="460" d="M383 0h-301l24 16v1168l-20 16h291l-19 -16v-1168zM577 1329h-252v232h252v-232zM192 1329h-252v232h252v-232z" />
<glyph unicode="&#xf1;" horiz-adv-x="1429" d="M1352 1196l-25 -12v-1168l19 -18h-297l26 22l-745 773v-777l22 -16h-272l22 16v1168l-20 16h252l-27 -20l785 -826v830l-25 12h285zM1046 1577q-25 -111 -65 -164q-55 -72 -154 -72q-47 0 -113 21q-143 45 -178 45t-56.5 -21.5t-31.5 -56.5h-121q12 100 68.5 170 t155.5 70q51 0 116 -23q152 -51 158 -51q35 0 59.5 22.5t34.5 59.5h127z" />
<glyph unicode="&#xf2;" horiz-adv-x="1425" d="M1380 668q2 -27 3 -46.5t1 -31.5q0 -291 -202 -455q-184 -147 -467 -147q-287 0 -477 172q-201 182 -201 483q0 268 201 432q190 156 464 156q279 0 455 -131q196 -145 223 -432zM1151 606q0 178 -133 299t-316 121q-172 0 -299 -119t-127 -289q0 -176 134.5 -297.5 t316.5 -121.5q172 0 298 117.5t126 289.5zM922 1313h-201l-287 286h303z" />
<glyph unicode="&#xf3;" horiz-adv-x="1425" d="M1380 668q2 -27 3 -46.5t1 -31.5q0 -291 -202 -455q-184 -147 -467 -147q-287 0 -477 172q-201 182 -201 483q0 268 201 432q190 156 464 156q279 0 455 -131q196 -145 223 -432zM1151 606q0 178 -133 299t-316 121q-172 0 -299 -119t-127 -289q0 -176 134.5 -297.5 t316.5 -121.5q172 0 298 117.5t126 289.5zM946 1599l-286 -286h-201l184 286h303z" />
<glyph unicode="&#xf4;" horiz-adv-x="1425" d="M1380 668q2 -27 3 -46.5t1 -31.5q0 -291 -202 -455q-184 -147 -467 -147q-287 0 -477 172q-201 182 -201 483q0 268 201 432q190 156 464 156q279 0 455 -131q196 -145 223 -432zM1151 606q0 178 -133 299t-316 121q-172 0 -299 -119t-127 -289q0 -176 134.5 -297.5 t316.5 -121.5q172 0 298 117.5t126 289.5zM1030 1313h-221l-125 162l-125 -162h-223l225 286h246z" />
<glyph unicode="&#xf5;" horiz-adv-x="1425" d="M1380 668q2 -27 3 -46.5t1 -31.5q0 -291 -202 -455q-184 -147 -467 -147q-287 0 -477 172q-201 182 -201 483q0 268 201 432q190 156 464 156q279 0 455 -131q196 -145 223 -432zM1151 606q0 178 -133 299t-316 121q-172 0 -299 -119t-127 -289q0 -176 134.5 -297.5 t316.5 -121.5q172 0 298 117.5t126 289.5zM1057 1577q-25 -111 -65 -164q-55 -72 -154 -72q-47 0 -113 21q-143 45 -178 45t-56.5 -21.5t-31.5 -56.5h-121q12 100 68.5 170t155.5 70q51 0 116 -23q152 -51 158 -51q35 0 59.5 22.5t34.5 59.5h127z" />
<glyph unicode="&#xf6;" horiz-adv-x="1425" d="M1380 668q2 -27 3 -46.5t1 -31.5q0 -291 -202 -455q-184 -147 -467 -147q-287 0 -477 172q-201 182 -201 483q0 268 201 432q190 156 464 156q279 0 455 -131q196 -145 223 -432zM1151 606q0 178 -133 299t-316 121q-172 0 -299 -119t-127 -289q0 -176 134.5 -297.5 t316.5 -121.5q172 0 298 117.5t126 289.5zM1026 1329h-252v232h252v-232zM641 1329h-252v232h252v-232z" />
<glyph unicode="&#xf7;" horiz-adv-x="1169" />
<glyph unicode="&#xf8;" horiz-adv-x="1425" d="M1380 668q2 -27 3 -46.5t1 -31.5q0 -291 -202 -455q-184 -147 -467 -147q-180 0 -328 67l-117 -155l27 -13h-229l30 13l170 227q-231 174 -231 516q0 268 201 432q190 156 464 156q197 0 342 -66l105 140l-23 16h222l-27 -16l-158 -209q90 -70 146.5 -177.5t70.5 -250.5z M907 981q-92 45 -205 45q-172 0 -299 -119t-127 -289q0 -88 34 -164.5t100 -136.5zM1151 606q0 88 -34 164t-95 133l-498 -661q92 -43 203 -43q172 0 298 117.5t126 289.5z" />
<glyph unicode="&#xf9;" horiz-adv-x="1437" d="M1354 1200l-19 -16v-803q0 -227 -186 -326q-150 -80 -422 -80q-297 0 -453 88q-172 98 -172 304v817l-18 16h287l-27 -16v-805q0 -115 143 -168q94 -35 222 -35q152 0 245 37q125 49 125 160v811l-18 16h293zM922 1313h-201l-287 286h303z" />
<glyph unicode="&#xfa;" horiz-adv-x="1437" d="M1354 1200l-19 -16v-803q0 -227 -186 -326q-150 -80 -422 -80q-297 0 -453 88q-172 98 -172 304v817l-18 16h287l-27 -16v-805q0 -115 143 -168q94 -35 222 -35q152 0 245 37q125 49 125 160v811l-18 16h293zM940 1599l-286 -286h-201l184 286h303z" />
<glyph unicode="&#xfb;" horiz-adv-x="1437" d="M1354 1200l-19 -16v-803q0 -227 -186 -326q-150 -80 -422 -80q-297 0 -453 88q-172 98 -172 304v817l-18 16h287l-27 -16v-805q0 -115 143 -168q94 -35 222 -35q152 0 245 37q125 49 125 160v811l-18 16h293zM1049 1313h-221l-125 162l-125 -162h-223l225 286h246z" />
<glyph unicode="&#xfc;" horiz-adv-x="1437" d="M1354 1200l-19 -16v-803q0 -227 -186 -326q-150 -80 -422 -80q-297 0 -453 88q-172 98 -172 304v817l-18 16h287l-27 -16v-805q0 -115 143 -168q94 -35 222 -35q152 0 245 37q125 49 125 160v811l-18 16h293zM1014 1329h-252v232h252v-232zM629 1329h-252v232h252v-232z " />
<glyph unicode="&#xff;" horiz-adv-x="1277" d="M1272 1200l-27 -14l-473 -649l2 -521l25 -16h-287l25 16v521l-510 649l-25 14h332l-21 -16l340 -455l324 455l-19 16h314zM958 1329h-252v232h252v-232zM573 1329h-252v232h252v-232z" />
<glyph unicode="&#x152;" horiz-adv-x="2797" d="M2710 -31l-19 29l-1341 2l28 18v121q-106 -76 -241.5 -114.5t-282.5 -38.5q-346 0 -571 204q-240 217 -240 578q0 322 242 518q225 184 555 184q156 0 294 -37.5t244 -115.5v96l-22 21h1315l18 28v-268l-18 33h-1020v-383h686l22 45v-301l-18 41h-690v-393h1040l19 28 v-295zM1376 725q0 213 -158.5 357.5t-377.5 144.5q-209 0 -359.5 -142.5t-150.5 -345.5q0 -211 159.5 -356t378.5 -145q207 0 357.5 140t150.5 347z" />
<glyph unicode="&#x153;" horiz-adv-x="2347" d="M2267 -27l-14 25l-1123 2l23 16v101q-182 -129 -438 -129q-287 0 -477 172q-201 182 -201 483q0 268 201 432q190 156 464 156q137 0 248 -30t203 -97v80l-18 16h1099l17 25v-226l-17 27h-852v-319h574l18 36v-251l-14 34h-578v-329h871l14 24v-248zM1151 606 q0 178 -133 299t-316 121q-172 0 -299 -119t-127 -289q0 -176 134.5 -297.5t316.5 -121.5q172 0 298 117.5t126 289.5z" />
<glyph unicode="&#x178;" horiz-adv-x="1525" d="M1520 1434l-31 -17l-565 -776v-623l28 -18h-340l29 18v623l-608 776l-31 17h397l-24 -21l405 -543l387 543l-22 21h375zM1083 1534h-252v232h252v-232zM698 1534h-252v232h252v-232z" />
<glyph unicode="&#x2c6;" d="M674 1313h-221l-125 162l-125 -162h-223l225 286h246z" />
<glyph unicode="&#x2da;" d="M535 1491q0 -86 -61.5 -147.5t-147.5 -61.5t-146.5 60.5t-60.5 148.5q0 84 59.5 145.5t147.5 61.5q86 0 147.5 -61.5t61.5 -145.5zM440 1491q0 45 -33.5 79t-80.5 34t-80 -33t-33 -80q0 -49 33 -82t80 -33t80.5 34t33.5 81z" />
<glyph unicode="&#x2dc;" d="M688 1577q-25 -111 -65 -164q-55 -72 -154 -72q-47 0 -113 21q-143 45 -178 45t-56.5 -21.5t-31.5 -56.5h-121q12 100 68.5 170t155.5 70q51 0 116 -23q152 -51 158 -51q35 0 59.5 22.5t34.5 59.5h127z" />
<glyph unicode="&#x2000;" horiz-adv-x="940" />
<glyph unicode="&#x2001;" horiz-adv-x="1880" />
<glyph unicode="&#x2002;" horiz-adv-x="940" />
<glyph unicode="&#x2003;" horiz-adv-x="1880" />
<glyph unicode="&#x2004;" horiz-adv-x="626" />
<glyph unicode="&#x2005;" horiz-adv-x="468" />
<glyph unicode="&#x2006;" horiz-adv-x="313" />
<glyph unicode="&#x2007;" horiz-adv-x="313" />
<glyph unicode="&#x2008;" horiz-adv-x="233" />
<glyph unicode="&#x2009;" horiz-adv-x="374" />
<glyph unicode="&#x200a;" horiz-adv-x="104" />
<glyph unicode="&#x2010;" horiz-adv-x="884" d="M762 430h-725v279h725v-279z" />
<glyph unicode="&#x2011;" horiz-adv-x="884" d="M762 430h-725v279h725v-279z" />
<glyph unicode="&#x2012;" horiz-adv-x="884" d="M762 430h-725v279h725v-279z" />
<glyph unicode="&#x2013;" horiz-adv-x="796" d="M762 430h-725v279h725v-279z" />
<glyph unicode="&#x2014;" horiz-adv-x="1579" d="M1497 430h-1444v279h1444v-279z" />
<glyph unicode="&#x2018;" horiz-adv-x="423" d="M330 1053q0 -53 -34 -88t-89 -39q-59 0 -101.5 33.5t-50.5 79.5t-8 75q0 135 93 236.5t179 91.5v-47q-63 -25 -112 -76t-49 -88q0 -35 49 -35q33 0 72 -33q51 -44 51 -110z" />
<glyph unicode="&#x2019;" horiz-adv-x="452" d="M354 1313q6 -31 6 -64q0 -133 -93 -234.5t-177 -90.5v45q61 25 110.5 76t49.5 90q0 35 -47 34q-37 0 -74 33q-49 43 -49 111q0 51 35 86t88 39q59 0 100 -33t51 -92z" />
<glyph unicode="&#x201c;" horiz-adv-x="845" d="M745 1042q0 -51 -34.5 -85.5t-87.5 -38.5q-59 0 -101.5 32.5t-50.5 78.5t-8 75q0 135 93 236.5t179 91.5v-48q-63 -23 -112.5 -73.5t-49.5 -89.5q0 -35 50 -35q33 0 71 -33q51 -45 51 -111zM313 1042q0 -51 -34.5 -85.5t-88.5 -38.5q-59 0 -101 32.5t-50 78.5t-8 75 q0 135 93 236.5t179 91.5v-48q-66 -23 -113 -72.5t-47 -90.5q0 -35 47 -35q37 0 74 -33q49 -43 49 -111z" />
<glyph unicode="&#x201d;" horiz-adv-x="845" d="M756 1292q6 -35 6 -63q0 -133 -93.5 -235.5t-176.5 -92.5v47q61 25 110 76t49 88q0 35 -47 35q-37 0 -74 33q-49 43 -49 110q0 51 35 88t88 37q59 0 100.5 -33t51.5 -90zM324 1292q6 -35 6 -63q0 -133 -93.5 -235.5t-177.5 -92.5v47q61 25 110.5 76t49.5 88q0 35 -47 35 q-37 0 -74 33q-49 43 -49 110q0 51 35 88t88 37q59 0 100.5 -33t51.5 -90z" />
<glyph unicode="&#x2022;" horiz-adv-x="514" d="M227 383q-90 0 -141 57.5t-51 134.5q0 80 50 137.5t142 57.5t143.5 -57.5t51.5 -137.5q0 -78 -51.5 -135t-143.5 -57z" />
<glyph unicode="&#x2026;" horiz-adv-x="1536" d="M1288 -23q-68 0 -105.5 44.5t-37.5 101.5q0 55 34.5 95t100.5 40q68 0 105.5 -44t37.5 -101q0 -55 -34.5 -95.5t-100.5 -40.5zM776 -23q-68 0 -105.5 44.5t-37.5 101.5q0 55 34.5 95t100.5 40q68 0 105.5 -44t37.5 -101q0 -55 -34.5 -95.5t-100.5 -40.5zM264 -23 q-68 0 -105.5 44.5t-37.5 101.5q0 55 34.5 95t100.5 40q68 0 105.5 -44t37.5 -101q0 -55 -34.5 -95.5t-100.5 -40.5z" />
<glyph unicode="&#x202f;" horiz-adv-x="374" />
<glyph unicode="&#x2039;" horiz-adv-x="1179" d="M1087 -8l-995 422v168l995 422v-195l-747 -311l747 -312v-194z" />
<glyph unicode="&#x203a;" horiz-adv-x="1179" d="M1087 414l-995 -422v194l748 312l-748 311v195l995 -422v-168z" />
<glyph unicode="&#x205f;" horiz-adv-x="468" />
<glyph unicode="&#x2122;" horiz-adv-x="1945" d="M727 1235h-70q-10 57 -38.5 91t-86.5 34h-61v-557q0 -57 20.5 -75.5t75.5 -18.5v-72h-381v72q61 0 81 17t20 77v557h-64q-53 0 -83.5 -35t-41.5 -90h-71v197h700v-197zM1892 1360q-63 0 -84.5 -21.5t-21.5 -74.5v-461q0 -59 19.5 -76.5t78.5 -17.5v-72h-373v72 q53 0 70.5 17t17.5 77v354l-262 -522h-47l-264 512l-4 -309q0 -76 17.5 -102.5t82.5 -26.5v-72h-274v72q57 0 72.5 26.5t15.5 102.5v426q-10 47 -44 71.5t-81 24.5v72h268l279 -568l280 568h254v-72z" />
<glyph unicode="&#xe000;" horiz-adv-x="1200" d="M0 1200h1200v-1200h-1200v1200z" />
<glyph unicode="&#xfb01;" horiz-adv-x="1685" d="M1608 0h-301l24 16v1168l-20 16h291l-19 -16v-1168zM1163 993l-12 27h-805v-295h537l20 37v-262l-18 32h-541v-516l25 -16h-289l22 16v1168l-20 16h1069l12 25v-232z" />
<glyph unicode="&#xfb02;" horiz-adv-x="2469" d="M2419 -25l-29 25h-1085l22 16v1168l-18 16h297l-19 -16v-981h803l29 22v-250zM1163 993l-12 27h-805v-295h537l20 37v-262l-18 32h-541v-516l25 -16h-289l22 16v1168l-20 16h1069l12 25v-232z" />
<glyph unicode="&#xfb03;" horiz-adv-x="2910" d="M2832 0h-301l24 16v1168l-20 16h291l-19 -16v-1168zM2388 993l-12 27h-805v-295h537l20 37v-262l-18 32h-541v-516l25 -16h-289l22 16v1168l-20 16h1069l12 25v-232zM1163 993l-12 27h-805v-295h537l20 37v-262l-18 32h-541v-516l25 -16h-289l22 16v1168l-20 16h1069 l12 25v-232z" />
<glyph unicode="&#xfb04;" horiz-adv-x="3694" d="M3643 -25l-29 25h-1085l22 16v1168l-18 16h297l-19 -16v-981h803l29 22v-250zM2388 993l-12 27h-805v-295h537l20 37v-262l-18 32h-541v-516l25 -16h-289l22 16v1168l-20 16h1069l12 25v-232zM1163 993l-12 27h-805v-295h537l20 37v-262l-18 32h-541v-516l25 -16h-289 l22 16v1168l-20 16h1069l12 25v-232z" />
</font>
</defs>
</svg>
