<?xml version="1.0" standalone="no"?>
<!DOCTYPE svg PUBLIC "-//W3C//DTD SVG 1.1//EN" "http://www.w3.org/Graphics/SVG/1.1/DTD/svg11.dtd" >
<svg xmlns="http://www.w3.org/2000/svg">
<metadata>
This is a custom SVG webfont generated by Font Squirrel.
Copyright   : Gonts98 
</metadata>
<defs>
<font id="webfontOYOKeJJx" horiz-adv-x="1040" >
<font-face units-per-em="2048" ascent="1638" descent="-410" />
<missing-glyph horiz-adv-x="595" />
<glyph unicode=" "  horiz-adv-x="595" />
<glyph unicode="&#x09;" horiz-adv-x="595" />
<glyph unicode="&#xa0;" horiz-adv-x="595" />
<glyph unicode="!" horiz-adv-x="623" d="M216 313v905h174v-905h-174zM295 -92l-133 174l130 171l135 -164z" />
<glyph unicode="&#x22;" horiz-adv-x="817" d="M610 803h-106l-66 437l120 70l117 -70zM312 803h-106l-66 437l120 70l117 -70z" />
<glyph unicode="#" horiz-adv-x="933" d="M832 630h-205l-55 -180h216l-37 -134h-214l-77 -281h-121l84 281h-133l-80 -281h-118l77 281h-183l34 134h189l49 180h-196l30 136h207l76 287h119l-78 -287h131l78 287h118l-80 -287h202zM376 628l-49 -181h131l48 181h-130z" />
<glyph unicode="$" d="M575 -25v-100h-149v100q-281 24 -375 302l176 76q0 -113 82 -176q55 -43 117 -59v449l-166 60q-182 93 -182 262q0 142 106 232q94 81 242 97v96h149v-91q266 -28 354 -243l-169 -69q-35 126 -185 164v-389l189 -65q182 -95 182 -286q0 -322 -371 -360zM426 1077 q-62 -14 -107 -57q-51 -47 -51 -107q0 -113 158 -175v339zM591 508l-16 5v-397q185 40 185 213q0 123 -169 179z" />
<glyph unicode="%" horiz-adv-x="1873" d="M1265 -20q-142 0 -228 83t-86 225q0 145 81 230.5t225 85.5q146 0 233.5 -85t87.5 -231q0 -142 -85.5 -225t-227.5 -83zM578 -56h-158l841 1316h157zM557 591q-145 0 -229 82t-84 226q0 143 81.5 228.5t225.5 85.5q148 0 233.5 -83.5t85.5 -231.5q0 -143 -85 -225 t-228 -82zM1272 492q-191 0 -191 -197q0 -204 184 -205q189 0 188 198q0 204 -181 204zM564 1103q-190 0 -190 -198q0 -204 183 -204q189 0 189 197q0 205 -182 205z" />
<glyph unicode="&#x26;" horiz-adv-x="1355" d="M1091 -6l-139 146q-170 -162 -423 -162q-157 0 -281 85q-139 96 -143 247q-7 247 312 372q-153 141 -158 267q-3 125 99 194q89 62 218 62q135 0 227 -60q109 -68 113 -195q6 -194 -272 -299l315 -316q88 88 169 194l126 -106q-75 -126 -190 -188l258 -241h-231z M611 1066q-171 0 -167 -117q2 -71 115 -205q180 85 177 198q-5 124 -125 124zM516 568q-230 -110 -225 -255q7 -204 252 -204q126 0 300 119z" />
<glyph unicode="'" horiz-adv-x="484" d="M312 803h-106l-66 437l120 70l117 -70z" />
<glyph unicode="(" horiz-adv-x="623" d="M280 437q0 -358 262 -757l-122 -51q-280 435 -280 813q0 359 277 828l130 -43q-267 -412 -267 -790z" />
<glyph unicode=")" horiz-adv-x="623" d="M183 -371l-125 48q259 395 260 780q0 376 -260 766l125 51q280 -383 280 -817q0 -402 -280 -828z" />
<glyph unicode="*" horiz-adv-x="718" d="M470 911l119 -133l-142 -62l-77 137l-92 -175l-98 133l90 100l-177 23l81 142l136 -63l-20 186l154 -34l-14 -152l170 81l14 -163z" />
<glyph unicode="+" horiz-adv-x="1080" d="M611 417v-371h-138v371h-343v126h343v365h142v-365h330v-126h-334z" />
<glyph unicode="," horiz-adv-x="520" d="M429 71l-204 -361l-119 40l111 281l-68 73l157 183l151 -178z" />
<glyph unicode="-" horiz-adv-x="731" d="M119 318v138h471v-138h-471z" />
<glyph unicode="." horiz-adv-x="520" d="M250 -104l-121 186l119 183l122 -186z" />
<glyph unicode="/" horiz-adv-x="836" d="M182 -25h-156l607 1273h153z" />
<glyph unicode="0" d="M873 217q-115 -239 -361 -239q-452 0 -452 637q0 249 85 411q118 225 367 225q231 0 351 -218q93 -169 93 -394q0 -249 -83 -422zM286 300l355 747q-53 45 -129 45q-152 0 -222 -186q-49 -130 -48 -298q0 -195 44 -308zM726 911l-354 -750q57 -52 140 -52q254 0 254 527 q0 150 -40 275z" />
<glyph unicode="1" d="M425 -6v898h-285l380 326h90v-1224h-185z" />
<glyph unicode="2" d="M416 139h480v-145h-840v29q686 606 687 853q0 99 -61.5 161.5t-160.5 62.5q-127 0 -196.5 -76.5t-69.5 -204.5h-188q0 204 116.5 315.5t320.5 111.5q185 0 299 -79q134 -90 134 -268q0 -280 -521 -760z" />
<glyph unicode="3" d="M488 -25q-439 0 -439 351h190l-4 -36q0 -88 79 -133q64 -36 159 -37q116 0 190 50q87 58 87 169q0 132 -125 218q-113 77 -250 77l-3 16l77 4q106 6 189 67q94 68 94 168q0 98 -67 155.5t-166 57.5q-102 0 -169 -50q-75 -56 -75 -155h-184q15 172 132 262q107 83 285 82 q179 0 294 -78q136 -90 136 -260q0 -210 -190 -273q204 -46 204 -275q0 -192 -130 -291q-116 -89 -314 -89z" />
<glyph unicode="4" d="M771 250v-256h-166v256h-584v67l642 914h112v-840h152v-141h-156zM617 926l-379 -543h379v543z" />
<glyph unicode="5" d="M439 -22q-266 0 -406 184l117 105q78 -147 294 -147q140 0 216 82t76 223q0 122 -94 194q-84 65 -211 65q-129 0 -284 -84l-31 11l107 597h643v-142h-494l-50 -276q83 41 169 41q186 0 302 -99q125 -105 125 -288q0 -223 -127.5 -344.5t-351.5 -121.5z" />
<glyph unicode="6" d="M503 -25q-180 0 -298 93q-129 102 -129 277q0 182 115 321l474 574h212l-478 -556q63 32 137 32q173 0 284 -96q117 -100 117 -271q0 -177 -133 -279q-120 -95 -301 -95zM518 575q-107 0 -183 -62q-81 -66 -80 -171q0 -103 72 -167q68 -62 172 -61q255 0 255 235 q0 105 -65 165.5t-171 60.5z" />
<glyph unicode="7" d="M972 1158l-261 -474h132v-133h-206l-310 -554h-189l316 554h-160v133h233l213 382h-648v142h889z" />
<glyph unicode="8" d="M503 -25q-183 0 -303 97q-130 106 -130 284q0 105 70 189q66 79 170 114q-178 52 -178 281q0 149 118 225q99 65 256 65q160 0 262 -66q120 -78 120 -230q0 -194 -182 -275q111 -28 176.5 -109.5t65.5 -196.5q0 -182 -135 -286q-122 -92 -310 -92zM518 1088 q-214 0 -215 -179q0 -89 62 -140q57 -47 149 -47q203 0 203 192q1 174 -199 174zM514 573q-106 0 -181 -60q-82 -64 -81 -167q0 -106 79 -174q75 -66 183 -66q114 0 182.5 65t68.5 179q0 104 -75 165q-70 58 -176 58z" />
<glyph unicode="9" d="M868 585q-18 -23 -81 -116q-166 -238 -362 -478h-208l426 543q-76 -39 -166 -39q-173 0 -282 95q-115 99 -114 271q0 181 123 282q115 95 299 95q198 0 314 -86q131 -97 131 -288q-1 -173 -80 -279zM501 1092q-106 0 -172 -64.5t-66 -170.5q0 -223 251 -223q107 0 173 58 q71 61 71 165q0 110 -75 175q-71 60 -182 60z" />
<glyph unicode=":" horiz-adv-x="623" d="M299 393l-121 185l119 183l121 -185zM303 -104l-121 186l119 183l122 -186z" />
<glyph unicode=";" horiz-adv-x="623" d="M323 397l-121 186l119 183l121 -186zM429 71l-204 -361l-119 40l111 281l-68 73l157 183l151 -178z" />
<glyph unicode="&#x3c;" horiz-adv-x="1080" d="M57 354l-1 129l965 341l1 -172l-690 -233l690 -233v-173z" />
<glyph unicode="=" horiz-adv-x="1080" d="M57 480l-1 157h965l1 -157h-965zM57 203l-1 157h965l1 -157h-965z" />
<glyph unicode="&#x3e;" horiz-adv-x="1080" d="M57 15l-1 171l688 233l-688 233v173l965 -341l1 -128z" />
<glyph unicode="?" d="M817 849q-6 -11 -60 -67l-195 -198q-47 -49 -48 -76v-206h-181v214h2q7 58 26 95q8 14 68 75q106 105 229 239q7 22 6 52q0 103 -143 102q-173 0 -173 -160h-173q0 302 339 303q132 0 222 -60q104 -68 104 -195q0 -72 -23 -118zM416 -92l-132 174l130 171l134 -164z" />
<glyph unicode="@" horiz-adv-x="1492" d="M1302 407q-107 -175 -302 -181q-82 -2 -112 91q-109 -96 -241 -101q-134 -4 -232 82t-106 220q-10 174 90 289t274 121q172 6 266 -92q38 -39 52 -108q7 -32 30 -231l-10 -95q3 -40 35 -39q77 2 130 124q46 105 41 185q-13 213 -162 324q-138 105 -355 99 q-233 -7 -377 -145q-151 -145 -138 -374q13 -235 197 -367q168 -122 409 -116q238 7 340 91l166 -106q-131 -68 -222 -93q-129 -36 -292 -42q-300 -9 -517 155q-248 189 -248 519q0 282 202 456q190 163 477 171q247 7 448 -124q237 -153 238 -422q0 -160 -81 -291zM884 625 q-10 162 -191 156q-104 -3 -165.5 -73t-55.5 -174q4 -79 55 -126t131 -45q206 7 226 225q1 15 0 37z" />
<glyph unicode="A" horiz-adv-x="1355" d="M1097 -6l-172 365h-547l-164 -365h-199l610 1257h58l628 -1257h-214zM646 957l-206 -460h418z" />
<glyph unicode="B" horiz-adv-x="1145" d="M666 -6h-498v1224h436q150 0 251 -81q111 -88 112 -234q0 -192 -176 -257q231 -61 231 -304q0 -157 -99 -252.5t-257 -95.5zM533 1076h-189v-389h244q84 0 138 54.5t54 137.5q0 96 -78 149q-69 48 -169 48zM596 552h-252v-425h282q88 0 147 59.5t59 148.5q0 102 -68 160 q-64 57 -168 57z" />
<glyph unicode="C" horiz-adv-x="1355" d="M843 -25q-303 0 -512 160q-228 175 -228 471q0 289 221 474q210 174 505 175q126 0 278 -42q52 -14 137 -47v-182q-189 121 -382 122q-235 0 -395 -131q-171 -139 -171 -369q0 -227 177 -364q162 -125 397 -125q157 0 374 127v-192q-200 -77 -401 -77z" />
<glyph unicode="D" horiz-adv-x="1462" d="M694 -6h-526v1224h591q248 0 421 -207q156 -188 155 -414q0 -279 -183 -445q-176 -158 -458 -158zM1035 909q-116 157 -287 157h-400v-923h343q204 0 331 148q116 135 116 321q0 158 -103 297z" />
<glyph unicode="E" d="M160 -6v1224h760v-149h-572v-371h441v-142h-445v-413h576v-149h-760z" />
<glyph unicode="F" horiz-adv-x="907" d="M366 1073v-378h438v-142h-441v-559h-181v1224h753v-145h-569z" />
<glyph unicode="G" horiz-adv-x="1665" d="M1299 867q-182 238 -468 239q-234 0 -382 -136q-153 -141 -153 -373q0 -216 173 -352q160 -125 384 -125q102 0 200 55q115 64 114 156q0 115 -230 153l-240 2l-2 152h738v-151h-132q70 -85 69 -175q0 -164 -193 -262q-154 -78 -335 -79q-320 0 -519 157 q-217 172 -217 484q0 295 213 473q200 167 500 166q438 0 621 -276z" />
<glyph unicode="H" horiz-adv-x="1462" d="M1086 -6v602h-738v-602h-180v1224h180v-476h733v476h185v-1224h-180z" />
<glyph unicode="I" horiz-adv-x="520" d="M168 -6v1224h173v-1224h-173z" />
<glyph unicode="J" horiz-adv-x="836" d="M523 22q-85 -47 -203 -47q-182 0 -303 125l119 114q86 -97 192 -97q49 0 85 37.5t36 86.5v977h180v-1026q0 -110 -106 -170z" />
<glyph unicode="K" horiz-adv-x="1152" d="M190 1218v1h130v-484l522 483h252l-620 -543l676 -681h-262l-568 596v-589h-38v-7h-140v1224h48z" />
<glyph unicode="L" horiz-adv-x="932" d="M182 -6v1224h190v-1075h501v-149h-691z" />
<glyph unicode="M" horiz-adv-x="1729" d="M1416 -6l5 883l-510 -883h-115l-478 887l-8 -887h-190v1257h182l562 -989l586 989h160l4 -1257h-198z" />
<glyph unicode="N" horiz-adv-x="1556" d="M1325 -32l-984 952v-926h-173v1254h52l975 -953v923h178v-1250h-48z" />
<glyph unicode="O" horiz-adv-x="1768" d="M1386 137q-215 -175 -511 -176q-297 0 -517 166q-242 182 -242 471q0 290 229 478q215 175 511 175q298 0 518 -165q243 -183 243 -471q0 -290 -231 -478zM1247 974q-166 128 -391 128q-236 0 -388 -130q-162 -139 -162 -371q0 -217 178 -355q167 -128 391 -128 q234 0 388 131q163 139 164 369q0 217 -180 356z" />
<glyph unicode="P" d="M633 535h-278v-541h-187v1224h454q151 0 251 -98t100 -249q0 -141 -99.5 -238.5t-240.5 -97.5zM566 1073h-211v-395h265q63 0 115 75q45 66 45 126q0 85 -66 141q-62 53 -148 53z" />
<glyph unicode="Q" horiz-adv-x="1768" d="M1379 128l171 -157l-130 -89l-172 164q-156 -85 -365 -85q-312 0 -530 161q-243 180 -243 480q0 292 235 478q216 171 516 171q312 0 527 -169q234 -183 234 -488q0 -274 -243 -466zM886 1099q-232 0 -399 -130q-183 -142 -184 -367q0 -212 160 -357q154 -141 369 -141 h23q21 0 38 3q151 13 233 46l-209 191l117 98l222 -212q180 124 180 369q0 234 -160 371q-152 129 -390 129z" />
<glyph unicode="R" horiz-adv-x="1145" d="M856 -6l-496 599v-599h-192v1224h517q147 0 242 -92.5t95 -239.5q0 -110 -72 -207q-82 -110 -200 -111h-159l515 -574h-250zM609 1076h-249v-385h293q78 0 127 53.5t49 131.5q0 200 -220 200z" />
<glyph unicode="S" d="M491 -25q-343 0 -440 298l171 76q0 -96 94 -172q77 -63 187 -63q108 0 177 56q74 60 74 165q0 116 -166 180l-322 122q-179 94 -179 266q0 170 136 260q116 78 295 78q134 0 240 -63q115 -66 161 -185l-164 -68q-23 86 -101 132q-70 42 -163 42q-84 0 -147 -44 q-71 -49 -70 -129q0 -119 164 -180l320 -115q179 -95 179 -289q0 -190 -134 -285q-116 -82 -312 -82z" />
<glyph unicode="T" d="M610 1073v-1079h-190v1079h-392v145h975v-145h-393z" />
<glyph unicode="U" horiz-adv-x="1462" d="M1271 388q0 -211 -186 -326q-157 -97 -381 -97q-216 0 -369 103q-175 119 -175 327v823h184v-823q0 -141 124 -217q104 -64 255 -64q137 0 243 71q120 82 120 210v823h187z" />
<glyph unicode="V" horiz-adv-x="1249" d="M668 -21h-109l-551 1239h209l403 -960l398 960h205z" />
<glyph unicode="W" horiz-adv-x="1873" d="M1386 -21h-108l-349 908l-332 -908h-117l-479 1239h209l328 -941l343 932h100l346 -930l315 939h197z" />
<glyph unicode="X" horiz-adv-x="1145" d="M888 -6l-337 512l-318 -512h-213l435 644l-415 580h229l294 -446l289 446h210l-397 -580l452 -644h-229z" />
<glyph unicode="Y" horiz-adv-x="1145" d="M663 542v-548h-186v548l-474 676h230l344 -528l328 528h215z" />
<glyph unicode="Z" horiz-adv-x="1097" d="M65 -6v138l717 933h-672v153h896v-142l-712 -928h716v-154h-945z" />
<glyph unicode="[" horiz-adv-x="623" d="M190 -341v1589h324v-129h-172v-1333h172v-127h-324z" />
<glyph unicode="\" horiz-adv-x="751" d="M600 -29l-570 1082h138l554 -1082h-122z" />
<glyph unicode="]" horiz-adv-x="623" d="M98 -341v127h168v1333h-163v129h317v-1589h-322z" />
<glyph unicode="^" horiz-adv-x="520" d="M372 884l-126 152l-122 -152h-142l178 260h188l181 -260h-157z" />
<glyph unicode="_" horiz-adv-x="1134" d="M-6 -252v94h1146v-94h-1146z" />
<glyph unicode="`" horiz-adv-x="520" d="M343 905l-233 237l44 98l103 9l153 -296z" />
<glyph unicode="a" horiz-adv-x="1145" d="M826 -6v126q-105 -146 -327 -145q-184 0 -303.5 114t-119.5 297q0 177 126 292q122 111 301 111q198 0 320 -142v121h162v-774h-159zM536 647q-122 0 -204 -77q-85 -78 -85 -199t85 -194q81 -70 204 -70q125 0 203.5 71.5t78.5 195.5q0 126 -77.5 199.5t-204.5 73.5z" />
<glyph unicode="b" horiz-adv-x="1145" d="M604 -25q-177 0 -297 139l-4 -120h-165v1258h165v-606q108 147 323 146q178 0 292.5 -113t114.5 -291q0 -192 -118 -302.5t-311 -110.5zM604 651q-131 0 -213 -72q-87 -75 -88 -204q0 -120 78.5 -193t198.5 -73q116 0 195.5 73.5t79.5 189.5q0 119 -65 196 q-69 83 -186 83z" />
<glyph unicode="c" horiz-adv-x="932" d="M719 -12q-43 -7 -151 -7q-210 0 -338 101q-142 110 -143 314q0 190 147 298q131 98 327 98q158 0 270 -55v-144q-41 0 -122 30t-122 30q-135 0 -224 -66q-100 -74 -100 -204q0 -128 99 -199q88 -64 221 -64q79 0 128 23q111 54 134 55v-151q-40 -46 -126 -59z" />
<glyph unicode="d" horiz-adv-x="1145" d="M810 -6v126q-100 -142 -307 -142q-184 0 -303 104q-127 109 -127 290q0 190 127 308q124 116 314 116q152 0 296 -137v630h162v-1295h-162zM544 651q-121 0 -202 -74q-84 -75 -84 -195q0 -122 66 -197q70 -78 190 -78q137 0 215 68q84 72 84 207q0 119 -75 194t-194 75z " />
<glyph unicode="e" d="M518 -22q-193 0 -312 105q-122 109 -122 300q0 185 123 300q120 113 307 113q214 0 327 -123q109 -118 109 -333h-695q4 -105 84 -169q75 -61 182 -61q201 0 299 116l139 -76q-145 -172 -441 -172zM510 660q-85 0 -155 -62q-64 -56 -88 -142h510q-23 94 -96.5 149 t-170.5 55z" />
<glyph unicode="f" horiz-adv-x="564" d="M477 1160q-94 0 -112 -76v-278h198v-133h-202v-679h-171v679h-125v133h127v285q0 100 83 158q73 51 177 51q57 0 144 -28v-149q-69 37 -119 37z" />
<glyph unicode="g" horiz-adv-x="1145" d="M787 -342q-128 -47 -321 -50h-8q-197 0 -372 114l128 99q127 -73 259 -78q12 0 25 -1q107 0 196 35q126 50 126 158v164q-106 -121 -302 -121q-189 0 -312 99q-134 107 -133 292q0 180 128 301.5t309 121.5q195 0 310 -146v122h160v-881q0 -157 -193 -229zM540 647 q-120 0 -204 -78t-84 -197q0 -126 82 -198q78 -68 206 -68q125 0 201.5 69.5t76.5 193.5t-77 201t-201 77z" />
<glyph unicode="h" d="M707 -6v485q0 174 -184 174q-74 0 -138 -52q-74 -60 -74 -135v-472h-173v1258h169v-580q99 114 251 114q143 0 230 -73q93 -77 93 -219v-500h-174z" />
<glyph unicode="i" horiz-adv-x="520" d="M254 936l-122 184l120 183l121 -185zM166 -6v774h169v-774h-169z" />
<glyph unicode="j" horiz-adv-x="488" d="M235 936l-121 185l119 183l121 -185zM28 -340q-146 0 -292 83l106 103q64 -41 105 -52q29 -8 88 -8q54 0 92.5 39t38.5 93v838h162v-887q0 -106 -103 -163q-83 -46 -197 -46z" />
<glyph unicode="k" d="M726 -6l-415 376v-376h-170v1258h173v-818l386 324h252l-450 -353l499 -411h-275z" />
<glyph unicode="l" horiz-adv-x="520" d="M171 -6v1258h166v-1258h-166z" />
<glyph unicode="m" horiz-adv-x="1556" d="M1201 -6v554q0 46 -49 78q-43 28 -93 27q-67 0 -133 -48q-73 -52 -73 -116v-495h-175v517q0 66 -53 106q-47 36 -116 36q-58 0 -123 -41q-72 -44 -72 -99v-519h-165v774h162v-106q89 121 234 121q202 0 274 -149q82 148 289 148q93 0 169 -47q85 -52 101 -138v-603h-177z " />
<glyph unicode="n" d="M704 -6v536q0 46 -65 86q-56 34 -110 34q-63 0 -136 -44q-82 -50 -82 -105v-507h-170v774h166v-109q100 125 262 124q120 0 211 -67q100 -74 101 -190v-532h-177z" />
<glyph unicode="o" horiz-adv-x="1145" d="M558 -30q-195 0 -327 104q-145 114 -145 303q0 193 138 308q129 107 326 107q201 0 334 -106q146 -116 146 -311q0 -186 -146 -300q-135 -105 -326 -105zM568 651q-127 0 -216 -68q-99 -75 -99 -198q0 -127 91 -203q85 -72 214 -72q124 0 214 70q99 75 100 195 q0 126 -91 203q-85 73 -213 73z" />
<glyph unicode="p" horiz-adv-x="1145" d="M942 109q-117 -138 -316 -138q-212 0 -315 139v-481h-173v1139h169v-137q107 156 319 156h22q17 -3 24 -4q166 -28 264 -133q102 -109 101 -275q0 -155 -95 -266zM605 640q-125 0 -208 -75q-86 -77 -86 -201q0 -119 80 -191q76 -70 196 -69q8 0 23.5 1.5t22.5 1.5 q217 36 218 275q0 117 -65 187.5t-181 70.5z" />
<glyph unicode="q" horiz-adv-x="1145" d="M810 -374v462q-73 -114 -289 -113q-193 0 -311 97q-129 105 -129 293q0 180 115.5 303.5t294.5 123.5q207 0 321 -150v119h168v-1135h-170zM540 640q-125 0 -203.5 -75t-78.5 -200q0 -124 77 -190q73 -63 198 -62q266 0 266 256q0 117 -71 194t-188 77z" />
<glyph unicode="r" horiz-adv-x="731" d="M619 605q-57 45 -99 45q-68 0 -133 -62.5t-65 -130.5v-463h-170v767h159v-132q77 160 246 160q74 0 162 -62z" />
<glyph unicode="s" horiz-adv-x="836" d="M406 -22q-227 0 -359 154l147 89q66 -120 208 -121q159 0 159 99q0 62 -111 99l-233 79q-130 65 -130 181q0 120 111 185q90 53 219 53q190 0 309 -164l-141 -75q-19 55 -84 87q-57 29 -121 29q-46 0 -84 -29q-41 -31 -41 -76q0 -51 118 -90q201 -68 227 -82 q124 -64 124 -172q0 -246 -318 -246z" />
<glyph unicode="t" horiz-adv-x="520" d="M333 692v-698h-169v698h-132v133h132v239h169v-239h151v-133h-151z" />
<glyph unicode="u" d="M518 -29q-145 0 -252 63q-128 75 -128 213v521h176v-455q0 -90 53 -149.5t143 -59.5q14 2 23 2q71 8 121 50q57 47 58 114v498h176v-504q0 -141 -119 -222q-103 -71 -251 -71z" />
<glyph unicode="v" horiz-adv-x="932" d="M513 -10h-94l-404 778h202l257 -540l238 540h193z" />
<glyph unicode="w" horiz-adv-x="1462" d="M1025 -7h-65l-250 538l-258 -541h-57l-383 778h172l236 -537l264 534h62l246 -537l254 540h174z" />
<glyph unicode="x" horiz-adv-x="932" d="M553 386l344 -392h-222l-220 282l-223 -282h-217l343 383l-343 391h223l220 -282l225 282h217z" />
<glyph unicode="y" horiz-adv-x="932" d="M316 -371h-189l256 489l-374 650h208l252 -493l235 493h190z" />
<glyph unicode="z" horiz-adv-x="932" d="M52 -6v51l530 598h-504v125h753v-56l-513 -592h516v-126h-782z" />
<glyph unicode="{" horiz-adv-x="623" d="M391 1075q-25 0 -26 -10v-449q0 -92 -103 -156q104 -72 103 -160v-431q0 -22 11 -22h169v-102h-191q-164 0 -164 124v473q0 88 -173 119q173 51 173 151v419q0 72 56 115q52 41 126 41h181v-112h-162z" />
<glyph unicode="|" horiz-adv-x="1145" d="M480 -25v1078h164v-1078h-164z" />
<glyph unicode="}" horiz-adv-x="623" d="M415 342v-473q0 -124 -163 -124h-189v102h167q14 0 14 22v431q0 88 100 160q-100 66 -100 156v449q0 10 -27 10h-161v112h180q72 0 125.5 -43t53.5 -113v-419q0 -62 37 -93q29 -24 135 -58q-89 -17 -130.5 -48.5t-41.5 -70.5z" />
<glyph unicode="~" horiz-adv-x="932" d="M615 316q-51 0 -184 81l-132 82q-1 2 2 4q-62 -9 -138 -141l-113 84q68 103 107 141q67 67 141 67q65 0 192 -81l127 -82q0 -2 -3 -4q40 9 72 53q11 15 57 94l119 -92q-108 -206 -247 -206z" />
<glyph unicode="&#xa1;" horiz-adv-x="623" d="M306 570l-133 174l130 171l135 -164zM216 -392v902h177v-902h-177z" />
<glyph unicode="&#xa2;" d="M540 -20q-60 0 -122 9l-54 -132h-115l72 161q-237 131 -237 401q0 195 119.5 313.5t315.5 118.5q30 0 128 -8l45 123h108l-54 -151q178 -90 201 -265h-181q0 79 -79 125l-40 23q-43 19 -95 19q-18 0 -42 -3q-116 -15 -181 -99q-63 -79 -63 -199q0 -179 122 -266 q55 -40 145 -40q94 0 163 53.5t85 145.5h173q-61 -329 -414 -329z" />
<glyph unicode="&#xa3;" horiz-adv-x="1309" d="M1009 647l-607 -9l29 122l615 5zM1174 979q-135 127 -320 127q-195 0 -333 -156q-122 -138 -123 -342q0 -211 117 -337q120 -130 329 -130q166 0 348 104l-6 -171q-167 -93 -342 -93q-286 0 -451.5 170.5t-165.5 457.5q0 275 172 453q191 196 452 196q180 0 355 -120z M938 489l-522 -5l-14 123l591 5zM221 642l-146 8l30 122l133 -13zM52 489l25 127l148 -4l5 -123h-178z" />
<glyph unicode="&#xa8;" horiz-adv-x="677" d="M478 1052l-133 151l131 149l134 -142zM158 1052l-133 151l131 149l134 -142z" />
<glyph unicode="&#xaa;" horiz-adv-x="1368" />
<glyph unicode="&#xad;" horiz-adv-x="731" d="M119 318v138h471v-138h-471z" />
<glyph unicode="&#xb2;" d="M416 139h480v-145h-840v29q686 606 687 853q0 99 -61.5 161.5t-160.5 62.5q-127 0 -196.5 -76.5t-69.5 -204.5h-188q0 204 116.5 315.5t320.5 111.5q185 0 299 -79q134 -90 134 -268q0 -280 -521 -760z" />
<glyph unicode="&#xb3;" d="M488 -25q-439 0 -439 351h190l-4 -36q0 -88 79 -133q64 -36 159 -37q116 0 190 50q87 58 87 169q0 132 -125 218q-113 77 -250 77l-3 16l77 4q106 6 189 67q94 68 94 168q0 98 -67 155.5t-166 57.5q-102 0 -169 -50q-75 -56 -75 -155h-184q15 172 132 262q107 83 285 82 q179 0 294 -78q136 -90 136 -260q0 -210 -190 -273q204 -46 204 -275q0 -192 -130 -291q-116 -89 -314 -89z" />
<glyph unicode="&#xb4;" horiz-adv-x="475" d="M154 905l-67 48l154 296l103 -9l44 -98z" />
<glyph unicode="&#xb7;" horiz-adv-x="414" d="M206 393l-121 185l119 183l122 -185z" />
<glyph unicode="&#x2219;" horiz-adv-x="414" d="M206 393l-121 185l119 183l122 -185z" />
<glyph unicode="&#xb9;" d="M425 -6v898h-285l380 326h90v-1224h-185z" />
<glyph unicode="&#xba;" horiz-adv-x="1145" d="M558 -30q-195 0 -327 104q-145 114 -145 303q0 193 138 308q129 107 326 107q201 0 334 -106q146 -116 146 -311q0 -186 -146 -300q-135 -105 -326 -105zM568 651q-127 0 -216 -68q-99 -75 -99 -198q0 -127 91 -203q85 -72 214 -72q124 0 214 70q99 75 100 195 q0 126 -91 203q-85 73 -213 73z" />
<glyph unicode="&#xbf;" d="M579 584l-134 162l132 181l133 -173zM479 -386q-132 0 -222 59q-104 68 -104 196q0 72 24 118q6 11 59 66l195 199q47 49 48 76v205h181v-214h-2q-7 -58 -26 -95q-6 -11 -68 -75l-195 -200q-22 -22 -34 -38q-7 -22 -6 -52q0 -103 143 -103q173 0 174 160h172 q0 -152 -96 -230q-87 -72 -243 -72z" />
<glyph unicode="&#xc0;" horiz-adv-x="1355" d="M1097 -6l-172 365h-547l-164 -365h-199l610 1257h58l628 -1257h-214zM646 957l-206 -460h418zM710 1298l-233 237l44 98l103 9l153 -296z" />
<glyph unicode="&#xc1;" horiz-adv-x="1355" d="M1097 -6l-172 365h-547l-164 -365h-199l610 1257h58l628 -1257h-214zM646 957l-206 -460h418zM600 1282l-67 48l154 296l103 -9l44 -98z" />
<glyph unicode="&#xc2;" horiz-adv-x="1355" d="M1097 -6l-172 365h-547l-164 -365h-199l610 1257h58l628 -1257h-214zM646 957l-206 -460h418zM821 1273l-161 197l-160 -192h-143l217 301h187l219 -306h-159z" />
<glyph unicode="&#xc3;" horiz-adv-x="1355" d="M1097 -6l-172 365h-547l-164 -365h-199l610 1257h58l628 -1257h-214zM646 957l-206 -460h418zM781 1314q-44 0 -155 57l-108 57q-56 -1 -115 -96l-99 63q78 96 110 117q45 30 101 29q57 0 126 -36l140 -75q33 1 62 36q4 7 45 63l104 -66q-94 -149 -211 -149z" />
<glyph unicode="&#xc4;" horiz-adv-x="1355" d="M1097 -6l-172 365h-547l-164 -365h-199l610 1257h58l628 -1257h-214zM646 957l-206 -460h418zM813 1273l-133 151l131 149l134 -142zM493 1273l-133 151l131 149l134 -142z" />
<glyph unicode="&#xc8;" d="M160 -6v1224h760v-149h-572v-371h441v-142h-445v-413h576v-149h-760zM576 1290l-233 237l44 98l103 9l153 -296z" />
<glyph unicode="&#xc9;" d="M160 -6v1224h760v-149h-572v-371h441v-142h-445v-413h576v-149h-760zM521 1257l-67 48l154 296l103 -9l44 -98z" />
<glyph unicode="&#xca;" d="M160 -6v1224h760v-149h-572v-371h441v-142h-445v-413h576v-149h-760zM700 1257l-161 197l-160 -192h-143l217 301h187l219 -306h-159z" />
<glyph unicode="&#xcb;" d="M160 -6v1224h760v-149h-572v-371h441v-142h-445v-413h576v-149h-760zM711 1257l-133 151l131 149l134 -142zM391 1257l-133 151l131 149l134 -142z" />
<glyph unicode="&#xcc;" horiz-adv-x="520" d="M168 -6v1224h173v-1224h-173zM320 1298l-233 237l44 98l103 9l153 -296z" />
<glyph unicode="&#xcd;" horiz-adv-x="520" d="M168 -6v1224h173v-1224h-173zM190 1314l-67 48l154 296l103 -9l44 -98z" />
<glyph unicode="&#xce;" horiz-adv-x="520" d="M168 -6v1224h173v-1224h-173zM410 1248l-161 197l-160 -192h-143l217 301h187l219 -306h-159z" />
<glyph unicode="&#xcf;" horiz-adv-x="520" d="M168 -6v1224h173v-1224h-173zM413 1265l-133 151l131 149l134 -142zM93 1265l-133 151l131 149l134 -142z" />
<glyph unicode="&#xd1;" horiz-adv-x="1556" d="M1325 -32l-984 952v-926h-173v1254h52l975 -953v923h178v-1250h-48zM903 1259q-44 0 -155 57l-108 57q-56 -1 -115 -96l-99 63q78 96 110 117q45 30 101 29q57 0 126 -36l140 -75q33 1 62 36q4 7 45 63l104 -66q-94 -149 -211 -149z" />
<glyph unicode="&#xd2;" horiz-adv-x="1768" d="M1386 137q-215 -175 -511 -176q-297 0 -517 166q-242 182 -242 471q0 290 229 478q215 175 511 175q298 0 518 -165q243 -183 243 -471q0 -290 -231 -478zM1247 974q-166 128 -391 128q-236 0 -388 -130q-162 -139 -162 -371q0 -217 178 -355q167 -128 391 -128 q234 0 388 131q163 139 164 369q0 217 -180 356zM921 1298l-233 237l44 98l103 9l153 -296z" />
<glyph unicode="&#xd3;" horiz-adv-x="1768" d="M1386 137q-215 -175 -511 -176q-297 0 -517 166q-242 182 -242 471q0 290 229 478q215 175 511 175q298 0 518 -165q243 -183 243 -471q0 -290 -231 -478zM1247 974q-166 128 -391 128q-236 0 -388 -130q-162 -139 -162 -371q0 -217 178 -355q167 -128 391 -128 q234 0 388 131q163 139 164 369q0 217 -180 356zM833 1290l-67 48l154 296l103 -9l44 -98z" />
<glyph unicode="&#xd4;" horiz-adv-x="1768" d="M1386 137q-215 -175 -511 -176q-297 0 -517 166q-242 182 -242 471q0 290 229 478q215 175 511 175q298 0 518 -165q243 -183 243 -471q0 -290 -231 -478zM1247 974q-166 128 -391 128q-236 0 -388 -130q-162 -139 -162 -371q0 -217 178 -355q167 -128 391 -128 q234 0 388 131q163 139 164 369q0 217 -180 356zM1044 1290l-161 197l-160 -192h-143l217 301h187l219 -306h-159z" />
<glyph unicode="&#xd5;" horiz-adv-x="1768" d="M1386 137q-215 -175 -511 -176q-297 0 -517 166q-242 182 -242 471q0 290 229 478q215 175 511 175q298 0 518 -165q243 -183 243 -471q0 -290 -231 -478zM1247 974q-166 128 -391 128q-236 0 -388 -130q-162 -139 -162 -371q0 -217 178 -355q167 -128 391 -128 q234 0 388 131q163 139 164 369q0 217 -180 356zM995 1267q-44 0 -155 57l-108 57q-56 -1 -115 -96l-99 63q78 96 110 117q45 30 101 29q57 0 126 -36l140 -75q33 1 62 36q4 7 45 63l104 -66q-94 -149 -211 -149z" />
<glyph unicode="&#xd6;" horiz-adv-x="1768" d="M1386 137q-215 -175 -511 -176q-297 0 -517 166q-242 182 -242 471q0 290 229 478q215 175 511 175q298 0 518 -165q243 -183 243 -471q0 -290 -231 -478zM1247 974q-166 128 -391 128q-236 0 -388 -130q-162 -139 -162 -371q0 -217 178 -355q167 -128 391 -128 q234 0 388 131q163 139 164 369q0 217 -180 356zM1024 1265l-133 151l131 149l134 -142zM704 1265l-133 151l131 149l134 -142z" />
<glyph unicode="&#xd9;" horiz-adv-x="1462" d="M1271 388q0 -211 -186 -326q-157 -97 -381 -97q-216 0 -369 103q-175 119 -175 327v823h184v-823q0 -141 124 -217q104 -64 255 -64q137 0 243 71q120 82 120 210v823h187zM734 1282l-233 237l44 98l103 9l153 -296z" />
<glyph unicode="&#xda;" horiz-adv-x="1462" d="M1271 388q0 -211 -186 -326q-157 -97 -381 -97q-216 0 -369 103q-175 119 -175 327v823h184v-823q0 -141 124 -217q104 -64 255 -64q137 0 243 71q120 82 120 210v823h187zM676 1266l-67 48l154 296l103 -9l44 -98z" />
<glyph unicode="&#xdb;" horiz-adv-x="1462" d="M1271 388q0 -211 -186 -326q-157 -97 -381 -97q-216 0 -369 103q-175 119 -175 327v823h184v-823q0 -141 124 -217q104 -64 255 -64q137 0 243 71q120 82 120 210v823h187zM868 1265l-161 197l-160 -192h-143l217 301h187l219 -306h-159z" />
<glyph unicode="&#xdc;" horiz-adv-x="1462" d="M1271 388q0 -211 -186 -326q-157 -97 -381 -97q-216 0 -369 103q-175 119 -175 327v823h184v-823q0 -141 124 -217q104 -64 255 -64q137 0 243 71q120 82 120 210v823h187zM887 1241l-133 151l131 149l134 -142zM567 1241l-133 151l131 149l134 -142z" />
<glyph unicode="&#xdd;" horiz-adv-x="1145" d="M663 542v-548h-186v548l-474 676h230l344 -528l328 528h215zM541 1266l-67 48l154 296l103 -9l44 -98z" />
<glyph unicode="&#xe0;" horiz-adv-x="1145" d="M826 -6v126q-105 -146 -327 -145q-184 0 -303.5 114t-119.5 297q0 177 126 292q122 111 301 111q198 0 320 -142v121h162v-774h-159zM536 647q-122 0 -204 -77q-85 -78 -85 -199t85 -194q81 -70 204 -70q125 0 203.5 71.5t78.5 195.5q0 126 -77.5 199.5t-204.5 73.5z M554 891l-233 237l44 98l103 9l153 -296z" />
<glyph unicode="&#xe1;" horiz-adv-x="1145" d="M826 -6v126q-105 -146 -327 -145q-184 0 -303.5 114t-119.5 297q0 177 126 292q122 111 301 111q198 0 320 -142v121h162v-774h-159zM536 647q-122 0 -204 -77q-85 -78 -85 -199t85 -194q81 -70 204 -70q125 0 203.5 71.5t78.5 195.5q0 126 -77.5 199.5t-204.5 73.5z M438 881l-67 48l154 296l103 -9l44 -98z" />
<glyph unicode="&#xe2;" horiz-adv-x="1145" d="M826 -6v126q-105 -146 -327 -145q-184 0 -303.5 114t-119.5 297q0 177 126 292q122 111 301 111q198 0 320 -142v121h162v-774h-159zM536 647q-122 0 -204 -77q-85 -78 -85 -199t85 -194q81 -70 204 -70q125 0 203.5 71.5t78.5 195.5q0 126 -77.5 199.5t-204.5 73.5z M605 851l-126 152l-122 -152h-142l178 260h188l181 -260h-157z" />
<glyph unicode="&#xe3;" horiz-adv-x="1145" d="M826 -6v126q-105 -146 -327 -145q-184 0 -303.5 114t-119.5 297q0 177 126 292q122 111 301 111q198 0 320 -142v121h162v-774h-159zM536 647q-122 0 -204 -77q-85 -78 -85 -199t85 -194q81 -70 204 -70q125 0 203.5 71.5t78.5 195.5q0 126 -77.5 199.5t-204.5 73.5z M661 883q-44 0 -155 57l-108 57q-56 -1 -115 -96l-99 63q78 96 110 117q45 30 101 29q57 0 126 -36l140 -75q33 1 62 36q4 7 45 63l104 -66q-94 -149 -211 -149z" />
<glyph unicode="&#xe4;" horiz-adv-x="1145" d="M826 -6v126q-105 -146 -327 -145q-184 0 -303.5 114t-119.5 297q0 177 126 292q122 111 301 111q198 0 320 -142v121h162v-774h-159zM536 647q-122 0 -204 -77q-85 -78 -85 -199t85 -194q81 -70 204 -70q125 0 203.5 71.5t78.5 195.5q0 126 -77.5 199.5t-204.5 73.5z M692 856l-133 151l131 149l134 -142zM372 856l-133 151l131 149l134 -142z" />
<glyph unicode="&#xe8;" d="M518 -22q-193 0 -312 105q-122 109 -122 300q0 185 123 300q120 113 307 113q214 0 327 -123q109 -118 109 -333h-695q4 -105 84 -169q75 -61 182 -61q201 0 299 116l139 -76q-145 -172 -441 -172zM510 660q-85 0 -155 -62q-64 -56 -88 -142h510q-23 94 -96.5 149 t-170.5 55zM566 875l-233 237l44 98l103 9l153 -296z" />
<glyph unicode="&#xe9;" d="M518 -22q-193 0 -312 105q-122 109 -122 300q0 185 123 300q120 113 307 113q214 0 327 -123q109 -118 109 -333h-695q4 -105 84 -169q75 -61 182 -61q201 0 299 116l139 -76q-145 -172 -441 -172zM510 660q-85 0 -155 -62q-64 -56 -88 -142h510q-23 94 -96.5 149 t-170.5 55zM456 871l-67 48l154 296l103 -9l44 -98z" />
<glyph unicode="&#xea;" d="M518 -22q-193 0 -312 105q-122 109 -122 300q0 185 123 300q120 113 307 113q214 0 327 -123q109 -118 109 -333h-695q4 -105 84 -169q75 -61 182 -61q201 0 299 116l139 -76q-145 -172 -441 -172zM510 660q-85 0 -155 -62q-64 -56 -88 -142h510q-23 94 -96.5 149 t-170.5 55zM690 866l-161 197l-160 -192h-143l217 301h187l219 -306h-159z" />
<glyph unicode="&#xeb;" d="M518 -22q-193 0 -312 105q-122 109 -122 300q0 185 123 300q120 113 307 113q214 0 327 -123q109 -118 109 -333h-695q4 -105 84 -169q75 -61 182 -61q201 0 299 116l139 -76q-145 -172 -441 -172zM510 660q-85 0 -155 -62q-64 -56 -88 -142h510q-23 94 -96.5 149 t-170.5 55zM701 846l-133 151l131 149l134 -142zM381 846l-133 151l131 149l134 -142z" />
<glyph unicode="&#xec;" horiz-adv-x="520" d="M168 -6v771h165v-771h-165zM309 905l-233 237l44 98l103 9l153 -296z" />
<glyph unicode="&#xed;" horiz-adv-x="520" d="M168 -6v771h165v-771h-165zM172 875l-67 48l154 296l103 -9l44 -98z" />
<glyph unicode="&#xee;" horiz-adv-x="520" d="M168 -6v771h165v-771h-165zM411 862l-161 197l-160 -192h-143l217 301h187l219 -306h-159z" />
<glyph unicode="&#xef;" horiz-adv-x="520" d="M168 -6v771h165v-771h-165zM416 880l-133 151l131 149l134 -142zM96 880l-133 151l131 149l134 -142z" />
<glyph unicode="&#xf1;" d="M704 -6v536q0 46 -65 86q-56 34 -110 34q-63 0 -136 -44q-82 -50 -82 -105v-507h-170v774h166v-109q100 125 262 124q120 0 211 -67q100 -74 101 -190v-532h-177zM672 860q-44 0 -155 57l-108 57q-56 -1 -115 -96l-99 63q78 96 110 117q45 30 101 29q57 0 126 -36 l140 -75q33 1 62 36q4 7 45 63l104 -66q-94 -149 -211 -149z" />
<glyph unicode="&#xf2;" horiz-adv-x="1145" d="M558 -30q-195 0 -327 104q-145 114 -145 303q0 193 138 308q129 107 326 107q201 0 334 -106q146 -116 146 -311q0 -186 -146 -300q-135 -105 -326 -105zM568 651q-127 0 -216 -68q-99 -75 -99 -198q0 -127 91 -203q85 -72 214 -72q124 0 214 70q99 75 100 195 q0 126 -91 203q-85 73 -213 73zM566 881l-233 237l44 98l103 9l153 -296z" />
<glyph unicode="&#xf3;" horiz-adv-x="1145" d="M558 -30q-195 0 -327 104q-145 114 -145 303q0 193 138 308q129 107 326 107q201 0 334 -106q146 -116 146 -311q0 -186 -146 -300q-135 -105 -326 -105zM568 651q-127 0 -216 -68q-99 -75 -99 -198q0 -127 91 -203q85 -72 214 -72q124 0 214 70q99 75 100 195 q0 126 -91 203q-85 73 -213 73zM467 861l-67 48l154 296l103 -9l44 -98z" />
<glyph unicode="&#xf4;" horiz-adv-x="1145" d="M558 -30q-195 0 -327 104q-145 114 -145 303q0 193 138 308q129 107 326 107q201 0 334 -106q146 -116 146 -311q0 -186 -146 -300q-135 -105 -326 -105zM568 651q-127 0 -216 -68q-99 -75 -99 -198q0 -127 91 -203q85 -72 214 -72q124 0 214 70q99 75 100 195 q0 126 -91 203q-85 73 -213 73zM708 848l-161 197l-160 -192h-143l217 301h187l219 -306h-159z" />
<glyph unicode="&#xf5;" horiz-adv-x="1145" d="M558 -30q-195 0 -327 104q-145 114 -145 303q0 193 138 308q129 107 326 107q201 0 334 -106q146 -116 146 -311q0 -186 -146 -300q-135 -105 -326 -105zM568 651q-127 0 -216 -68q-99 -75 -99 -198q0 -127 91 -203q85 -72 214 -72q124 0 214 70q99 75 100 195 q0 126 -91 203q-85 73 -213 73zM705 850q-44 0 -155 57l-108 57q-56 -1 -115 -96l-99 63q78 96 110 117q45 30 101 29q57 0 126 -36l140 -75q33 1 62 36q4 7 45 63l104 -66q-94 -149 -211 -149z" />
<glyph unicode="&#xf6;" horiz-adv-x="1145" d="M558 -30q-195 0 -327 104q-145 114 -145 303q0 193 138 308q129 107 326 107q201 0 334 -106q146 -116 146 -311q0 -186 -146 -300q-135 -105 -326 -105zM568 651q-127 0 -216 -68q-99 -75 -99 -198q0 -127 91 -203q85 -72 214 -72q124 0 214 70q99 75 100 195 q0 126 -91 203q-85 73 -213 73zM713 856l-133 151l131 149l134 -142zM393 856l-133 151l131 149l134 -142z" />
<glyph unicode="&#xf9;" d="M518 -29q-145 0 -252 63q-128 75 -128 213v521h176v-455q0 -90 53 -149.5t143 -59.5q14 2 23 2q71 8 121 50q57 47 58 114v498h176v-504q0 -141 -119 -222q-103 -71 -251 -71zM549 871l-233 237l44 98l103 9l153 -296z" />
<glyph unicode="&#xfa;" d="M518 -29q-145 0 -252 63q-128 75 -128 213v521h176v-455q0 -90 53 -149.5t143 -59.5q14 2 23 2q71 8 121 50q57 47 58 114v498h176v-504q0 -141 -119 -222q-103 -71 -251 -71zM456 847l-67 48l154 296l103 -9l44 -98z" />
<glyph unicode="&#xfb;" d="M518 -29q-145 0 -252 63q-128 75 -128 213v521h176v-455q0 -90 53 -149.5t143 -59.5q14 2 23 2q71 8 121 50q57 47 58 114v498h176v-504q0 -141 -119 -222q-103 -71 -251 -71zM668 862l-161 197l-160 -192h-143l217 301h187l219 -306h-159z" />
<glyph unicode="&#xfc;" d="M518 -29q-145 0 -252 63q-128 75 -128 213v521h176v-455q0 -90 53 -149.5t143 -59.5q14 2 23 2q71 8 121 50q57 47 58 114v498h176v-504q0 -141 -119 -222q-103 -71 -251 -71zM684 836l-133 151l131 149l134 -142zM364 836l-133 151l131 149l134 -142z" />
<glyph unicode="&#xfd;" horiz-adv-x="932" d="M316 -371h-189l256 489l-374 650h208l252 -493l235 493h190zM395 855l-67 48l154 296l103 -9l44 -98z" />
<glyph unicode="&#xff;" horiz-adv-x="932" d="M316 -371h-189l256 489l-374 650h208l252 -493l235 493h190zM629 831l-133 151l131 149l134 -142zM309 831l-133 151l131 149l134 -142z" />
<glyph unicode="&#x131;" horiz-adv-x="520" d="M168 -6v771h165v-771h-165z" />
<glyph unicode="&#x152;" horiz-adv-x="2809" d="M1929 -6v1224h760v-149h-572v-371h441v-142h-445v-413h576v-149h-760zM1386 137q-215 -175 -511 -176q-297 0 -517 166q-242 182 -242 471q0 290 229 478q215 175 511 175q298 0 518 -165q243 -183 243 -471q0 -290 -231 -478zM1247 974q-166 128 -391 128 q-236 0 -388 -130q-162 -139 -162 -371q0 -217 178 -355q167 -128 391 -128q234 0 388 131q163 139 164 369q0 217 -180 356z" />
<glyph unicode="&#x153;" horiz-adv-x="2185" d="M1663 -22q-193 0 -312 105q-122 109 -122 300q0 185 123 300q120 113 307 113q214 0 327 -123q109 -118 109 -333h-695q4 -105 84 -169q75 -61 182 -61q201 0 299 116l139 -76q-145 -172 -441 -172zM1655 660q-85 0 -155 -62q-64 -56 -88 -142h510q-23 94 -96.5 149 t-170.5 55zM558 -30q-195 0 -327 104q-145 114 -145 303q0 193 138 308q129 107 326 107q201 0 334 -106q146 -116 146 -311q0 -186 -146 -300q-135 -105 -326 -105zM568 651q-127 0 -216 -68q-99 -75 -99 -198q0 -127 91 -203q85 -72 214 -72q124 0 214 70q99 75 100 195 q0 126 -91 203q-85 73 -213 73z" />
<glyph unicode="&#x178;" horiz-adv-x="1145" d="M663 542v-548h-186v548l-474 676h230l344 -528l328 528h215zM730 1208l-133 151l131 149l134 -142zM410 1208l-133 151l131 149l134 -142z" />
<glyph unicode="&#x2c6;" horiz-adv-x="677" d="M467 970l-161 197l-160 -192h-143l217 301h187l219 -306h-159z" />
<glyph unicode="&#x2dc;" horiz-adv-x="804" d="M521 1046q-44 0 -155 57l-108 57q-56 -1 -115 -96l-99 63q78 96 110 117q45 30 101 29q57 0 126 -36l140 -75q33 1 62 36q4 7 45 63l104 -66q-94 -149 -211 -149z" />
<glyph unicode="&#x2000;" horiz-adv-x="828" />
<glyph unicode="&#x2001;" horiz-adv-x="1658" />
<glyph unicode="&#x2002;" horiz-adv-x="828" />
<glyph unicode="&#x2003;" horiz-adv-x="1658" />
<glyph unicode="&#x2004;" horiz-adv-x="552" />
<glyph unicode="&#x2005;" horiz-adv-x="413" />
<glyph unicode="&#x2006;" horiz-adv-x="275" />
<glyph unicode="&#x2007;" horiz-adv-x="275" />
<glyph unicode="&#x2008;" horiz-adv-x="206" />
<glyph unicode="&#x2009;" horiz-adv-x="331" />
<glyph unicode="&#x200a;" horiz-adv-x="91" />
<glyph unicode="&#x2010;" horiz-adv-x="731" d="M119 318v138h471v-138h-471z" />
<glyph unicode="&#x2011;" horiz-adv-x="731" d="M119 318v138h471v-138h-471z" />
<glyph unicode="&#x2012;" horiz-adv-x="731" d="M119 318v138h471v-138h-471z" />
<glyph unicode="&#x2013;" horiz-adv-x="1024" d="M204 512v204h616v-204h-616z" />
<glyph unicode="&#x2014;" horiz-adv-x="2048" d="M204 512v204h1640v-204h-1640z" />
<glyph unicode="&#x2018;" horiz-adv-x="549" d="M318 1006l68 -72l-156 -184l-152 179l28 38l204 360l119 -39z" />
<glyph unicode="&#x2019;" horiz-adv-x="363" d="M373 1117l-204 -361l-119 40l111 281l-68 73l156 183l152 -178z" />
<glyph unicode="&#x201a;" horiz-adv-x="455" d="M396 71l-204 -361l-119 40l111 281l-68 73l157 183l151 -178z" />
<glyph unicode="&#x201c;" horiz-adv-x="884" d="M659 1011l68 -73l-157 -183l-150 179l27 37l204 361l119 -40zM306 1011l68 -73l-157 -183l-150 179l27 37l204 361l119 -40z" />
<glyph unicode="&#x201d;" horiz-adv-x="660" d="M693 1117l-205 -361l-119 40l111 281l-67 73l156 183l150 -178zM340 1117l-205 -361l-120 40l112 281l-67 73l156 183l150 -178z" />
<glyph unicode="&#x201e;" horiz-adv-x="822" d="M738 71l-204 -361l-119 40l111 281l-68 73l157 183l151 -178zM385 71l-204 -361l-119 40l111 281l-68 73l157 183l151 -178z" />
<glyph unicode="&#x2026;" horiz-adv-x="1787" d="M1564 -115l-122 186l119 183l122 -186zM935 -115l-122 186l119 183l122 -186zM317 -115l-122 186l119 183l122 -186z" />
<glyph unicode="&#x202f;" horiz-adv-x="331" />
<glyph unicode="&#x2039;" horiz-adv-x="1080" d="M375 135l-344 389l344 405l118 -79l-271 -326l272 -310z" />
<glyph unicode="&#x203a;" horiz-adv-x="1080" d="M57 15l-1 171l688 233l-688 233v173l965 -341l1 -128z" />
<glyph unicode="&#x205f;" horiz-adv-x="413" />
<glyph unicode="&#x2122;" horiz-adv-x="2769" d="M2457 -6l5 883l-510 -883h-115l-478 887l-8 -887h-190v1257h182l562 -989l586 989h160l4 -1257h-198zM610 1073v-1079h-190v1079h-392v145h975v-145h-393z" />
<glyph unicode="&#xe000;" horiz-adv-x="770" d="M0 770h770v-770h-770v770z" />
<glyph unicode="&#xfb01;" horiz-adv-x="1085" d="M819 936l-122 184l120 183l121 -185zM731 -6v774h169v-774h-169zM477 1160q-94 0 -112 -76v-278h198v-133h-202v-679h-171v679h-125v133h127v285q0 100 83 158q73 51 177 51q57 0 144 -28v-149q-69 37 -119 37z" />
<glyph unicode="&#xfb02;" horiz-adv-x="1085" d="M736 -6v1258h166v-1258h-166zM477 1160q-94 0 -112 -76v-278h198v-133h-202v-679h-171v679h-125v133h127v285q0 100 83 158q73 51 177 51q57 0 144 -28v-149q-69 37 -119 37z" />
<glyph unicode="&#xfb03;" horiz-adv-x="1650" d="M1384 936l-122 184l120 183l121 -185zM1296 -6v774h169v-774h-169zM1042 1160q-94 0 -112 -76v-278h198v-133h-202v-679h-171v679h-125v133h127v285q0 100 83 158q73 51 177 51q57 0 144 -28v-149q-69 37 -119 37zM477 1160q-94 0 -112 -76v-278h198v-133h-202v-679h-171 v679h-125v133h127v285q0 100 83 158q73 51 177 51q57 0 144 -28v-149q-69 37 -119 37z" />
<glyph unicode="&#xfb04;" horiz-adv-x="1650" d="M1301 -6v1258h166v-1258h-166zM1042 1160q-94 0 -112 -76v-278h198v-133h-202v-679h-171v679h-125v133h127v285q0 100 83 158q73 51 177 51q57 0 144 -28v-149q-69 37 -119 37zM477 1160q-94 0 -112 -76v-278h198v-133h-202v-679h-171v679h-125v133h127v285q0 100 83 158 q73 51 177 51q57 0 144 -28v-149q-69 37 -119 37z" />
</font>
</defs>
</svg>
