<?xml version="1.0" standalone="no"?>
<!DOCTYPE svg PUBLIC "-//W3C//DTD SVG 1.1//EN" "http://www.w3.org/Graphics/SVG/1.1/DTD/svg11.dtd" >
<svg xmlns="http://www.w3.org/2000/svg">
<metadata>
This is a custom SVG webfont generated by Font Squirrel.
Copyright   : Generated by Metamorphosis Professional 202
</metadata>
<defs>
<font id="webfontqXUUCrkG" horiz-adv-x="157" >
<font-face units-per-em="2048" ascent="1638" descent="-410" />
<missing-glyph horiz-adv-x="344" />
<glyph unicode=" "  horiz-adv-x="344" />
<glyph unicode="&#x09;" horiz-adv-x="344" />
<glyph unicode="&#xa0;" horiz-adv-x="344" />
<glyph unicode="!" d="M0 1436h27v-1291h-27v1291zM0 53h27v-53h-27v53z" />
<glyph unicode="$" horiz-adv-x="1030" d="M512 -8v-168h-25v162l-49 -2l-59 2v-162h-25v168q-131 25 -226 111.5t-132 220.5l20 8q29 -119 121 -205t217 -111v873q-90 31 -151 110q-57 82 -58 168q0 96 58.5 172t150.5 111v133h25v-129l59 4q39 0 49 -4v129h25v-133q76 -14 136.5 -79.5t76.5 -145.5l-27 -4 q-31 154 -186 202v-530q109 -12 196 -75.5t138 -162t51 -213.5q0 -168 -109.5 -293.5t-275.5 -156.5zM487 14v856l-49 4q-37 0 -59 7v-867q18 -6 59 -6q31 0 49 6zM512 16q152 25 255 150t103 276q0 170 -104 287t-254 137v-850zM487 897v530l-49 5q-45 0 -59 -5v-522l59 -4 q33 0 49 -4zM354 915v504q-78 -20 -130 -96t-52 -156q0 -92 50 -155.5t132 -96.5z" />
<glyph unicode="&#x26;" horiz-adv-x="1153" d="M459 1427q-78 0 -140.5 -37.5t-93 -99t-30.5 -127.5q0 -111 66.5 -177t158.5 -85v-31q-57 0 -107.5 -18t-118 -66.5t-117.5 -142.5t-50 -205q0 -184 129 -309t303 -125q127 0 225 60.5t153.5 159t55.5 214.5q0 59 -12.5 110.5t-40.5 100.5l-265 -145l-14 22l447 238 l14 -23l-160 -82q57 -115 58 -221q0 -190 -136.5 -325.5t-324.5 -135.5q-182 0 -320.5 136.5t-138.5 324.5q0 160 104.5 288t257.5 163q-86 31 -140 107.5t-54 166.5q0 121 87 206t204 85q129 0 217 -100l-17 -15q-81 88 -200 88z" />
<glyph unicode="(" horiz-adv-x="702" d="M786 1546q-211 -100 -363.5 -265t-232 -311.5t-121.5 -319.5t-42 -345q0 -223 67 -438l-22 -8q-72 227 -72 446q0 406 209 742.5t563 521.5z" />
<glyph unicode=")" horiz-adv-x="694" d="M-180 -115q217 102 488.5 401.5t271.5 839.5q0 225 -68 439l23 10q72 -231 71 -449q0 -399 -210 -740t-564 -523z" />
<glyph unicode="+" horiz-adv-x="645" d="M66 504h-66v26h80q47 92 136 147.5t196 55.5h30v-24h-30q-100 0 -175 -48.5t-122 -130.5h397v-26h-410q-31 -61 -30 -137q0 -150 105.5 -245t236.5 -95h28v-27h-30q-53 0 -94.5 10t-106 48t-115.5 124t-51 185q1 63 21 137z" />
<glyph unicode="," horiz-adv-x="202" d="M-55 -145l-21 12l119 213l23 -14z" />
<glyph unicode="-" horiz-adv-x="610" d="M0 649h477v-26h-477v26z" />
<glyph unicode="." d="M0 53h27v-53h-27v53z" />
<glyph unicode="0" horiz-adv-x="1636" d="M752 1473q154 0 292 -56.5t242.5 -163t160.5 -244t56 -288.5q0 -205 -99 -378t-274.5 -273.5t-377.5 -100.5q-205 0 -378 99.5t-273.5 274.5t-100.5 378q0 154 55.5 290t162 240.5t209.5 148.5t173 58.5t152 14.5zM752 1446q-211 0 -378 -102.5t-257 -269.5t-90 -353 q0 -209 99 -376t267 -258t359 -91q209 0 374.5 98.5t258 266t92.5 360.5q0 160 -57.5 293t-162 230t-238.5 149.5t-267 52.5z" />
<glyph unicode="1" horiz-adv-x="456" d="M324 0h-27v1397l-281 -264l-16 16l324 305v-1454z" />
<glyph unicode="2" horiz-adv-x="870" d="M305 1432q-137 0 -239 -76l-17 18q113 84 256 84q123 0 220.5 -58.5t158.5 -158.5q29 -51 43 -102.5t14 -116.5q0 -162 -100 -283l-584 -712h660v-27h-717l618 756q98 127 99 266q0 123 -62.5 216t-157 143.5t-192.5 50.5z" />
<glyph unicode="3" horiz-adv-x="813" d="M96 0h-73v27h73q170 0 297 80.5t193.5 212t66.5 264.5q0 135 -56 247.5t-150.5 186.5t-208.5 104l274 287h-512v27h575l-288 -301q178 -57 285.5 -210t107.5 -341q0 -158 -77 -292t-212 -213t-295 -79z" />
<glyph unicode="4" horiz-adv-x="985" d="M711 287v-287h-25v287h-686l569 1159l23 -10l-553 -1123h647v465h25v-465h141v-26h-141z" />
<glyph unicode="5" horiz-adv-x="755" d="M0 8v23q14 -2 28 -2h27q88 0 192.5 37.5t202 135t124 206t26.5 170.5q0 74 -28.5 174t-133.5 209q-88 84 -191.5 120.5t-230.5 36.5l64 318h450v-27h-428l-53 -268q61 0 113.5 -8.5t130.5 -39t161 -113.5t125 -185.5t42 -221.5t-40 -216t-124 -183t-172 -118.5 t-149.5 -40t-135.5 -7.5z" />
<glyph unicode="6" horiz-adv-x="1294" d="M158 946q176 186 426 187q156 0 290 -78t213.5 -213t79.5 -293q0 -160 -78.5 -294t-213 -212t-291.5 -78q-117 0 -222.5 44t-188.5 125t-128 189.5t-45 225.5q0 125 49 233q47 127 153.5 272.5t235.5 254t260 172.5l11 -23q-150 -61 -297.5 -198.5t-253.5 -313.5z M584 1104q-160 0 -292 -80t-198.5 -207t-66.5 -268q0 -246 172 -401.5t385 -155.5q170 0 296 81t193.5 211t67.5 265q0 168 -81 295t-212 193.5t-264 66.5z" />
<glyph unicode="7" horiz-adv-x="800" d="M164 0l-27 8l492 1401h-629v27h668z" />
<glyph unicode="8" horiz-adv-x="1048" d="M561 889q152 -37 255.5 -162t103.5 -289q0 -190 -136.5 -325.5t-324.5 -135.5q-182 0 -320.5 136.5t-138.5 324.5q0 160 104.5 288t257.5 163q-86 31 -140 107.5t-54 166.5q0 121 87 206t204 85q78 0 143 -39q66 -35 108 -103.5t42 -148.5q0 -94 -52.5 -165.5 t-138.5 -108.5zM459 1427q-78 0 -140.5 -37.5t-93 -99t-30.5 -127.5q0 -119 82.5 -192.5t181.5 -73.5q121 0 193.5 82t72.5 184q0 76 -38 138.5t-101.5 94t-126.5 31.5zM459 870q-184 0 -308 -128t-124 -304q0 -184 129 -309t303 -125q127 0 225 60.5t153.5 159t55.5 214.5 q0 98 -34 177t-92 135.5t-142 88t-166 31.5z" />
<glyph unicode="9" horiz-adv-x="1083" d="M477 1442q-205 0 -327.5 -139.5t-122.5 -311.5q0 -211 139 -331.5t311 -120.5q141 0 242.5 66.5t155 171t53.5 214.5q0 123 -60 223q-55 104 -159.5 166t-231.5 62zM371 -45l-17 22q223 182 353.5 356.5t185.5 414.5q-61 -104 -145 -153.5t-143.5 -66t-127.5 -16.5 q-133 0 -239.5 64.5t-172 174t-65.5 240.5q0 133 63.5 239.5t174 171t239.5 64.5q131 0 239.5 -62.5t173 -171t64.5 -241.5v-39q0 -23 -15 -134t-85 -273t-157 -269.5t-160.5 -177t-165.5 -143.5z" />
<glyph unicode=":" horiz-adv-x="202" d="M0 801h27v-53h-27v53zM0 53h27v-53h-27v53z" />
<glyph unicode=";" horiz-adv-x="202" d="M-55 -145l-21 12l119 213l23 -14zM-6 801h29v-53h-29v53z" />
<glyph unicode="=" horiz-adv-x="630" d="M500 694q-78 -18 -116 -52t-65 -95l-51 -193q-25 -152 -86 -237.5t-174 -116.5l-8 27q178 37 244 331l49 193q18 53 64 101t132 69z" />
<glyph unicode="?" horiz-adv-x="708" d="M27 291v-141h-27v167q242 0 395.5 165t153.5 384q0 119 -43 220.5t-122 176t-154.5 103.5t-125 39t-104.5 10v27q117 0 226.5 -45t181 -118t122.5 -187q20 -51 32.5 -108.5t12.5 -117.5q0 -236 -117.5 -360.5t-214.5 -169.5t-216 -45zM0 53h27v-53h-27v53z" />
<glyph unicode="A" horiz-adv-x="1028" d="M795 291h-680l-88 -291l-27 8l88 283h-88v26h96l355 1137l464 -1446l-26 -8zM451 1362l335 -1045zM125 317h661l-335 1045z" />
<glyph unicode="B" horiz-adv-x="729" d="M27 0h-27v1436h39q68 0 113 -47q47 -43 47 -111q0 -86 -84 -143q139 -25 249.5 -103t172 -198.5t61.5 -264.5q0 -152 -74.5 -282.5t-208.5 -208.5t-288 -78zM27 27q162 0 283.5 74.5t190 198.5t68.5 269q0 123 -44 223.5t-119.5 171t-174 110.5t-204.5 40v-1087zM27 1145 q61 0 103 42t42 91q0 55 -35 93t-98 38h-12v-264z" />
<glyph unicode="C" horiz-adv-x="794" d="M664 0q-86 0 -168 28.5t-199 105.5t-184.5 198t-90 207t-22.5 178q0 141 52 266t142.5 218t185.5 143.5t159.5 69t124.5 18.5v-27q-61 0 -124 -17.5t-157 -64.5t-175 -138t-131 -215t-50 -253q0 -276 184 -471t453 -219v-27z" />
<glyph unicode="D" horiz-adv-x="870" d="M27 27q168 0 330.5 98t261 252.5t98.5 331.5q0 197 -93.5 353.5t-252 245.5t-344.5 89v-1370zM27 0h-27v1423h27q100 0 186 -22.5t210 -95t221 -237.5t97 -359q0 -176 -103 -343t-271 -266.5t-340 -99.5z" />
<glyph unicode="E" horiz-adv-x="866" d="M80 1122h-80v27h80v287h653v-27h-627v-260h627v-27h-627v-477q0 -178 87.5 -319.5t232.5 -220t303 -78.5v-27q-176 0 -325.5 86t-236.5 236.5t-87 322.5v477z" />
<glyph unicode="F" horiz-adv-x="817" d="M686 1122h-580v-1122h-26v1122h-80v27h80v287h606v-27h-580v-260h580v-27z" />
<glyph unicode="G" horiz-adv-x="870" d="M717 1114h-350v27h374v-1141h-24q-184 0 -351 101.5t-266.5 267.5t-99.5 348q0 201 103.5 364.5t272.5 257t341 93.5h24v-27h-24q-178 0 -340 -90t-256 -250t-94 -348q0 -168 89 -328t252.5 -261t348.5 -101v1087z" />
<glyph unicode="H" horiz-adv-x="976" d="M821 1122h-719v-1122h-26v1122h-76v27h76v287h26v-287h719v287h29v-1436h-29v1122z" />
<glyph unicode="I" d="M0 1436h27v-1436h-27v1436z" />
<glyph unicode="J" horiz-adv-x="606" d="M451 504v932h26v-932q0 -223 -99 -324.5t-187.5 -140.5t-190.5 -39v27q96 0 177 35.5t177.5 140t96.5 301.5z" />
<glyph unicode="K" horiz-adv-x="888" d="M27 1110v-1110h-27v1436h27v-295l565 291l14 -23l-332 -172l482 -1233l-27 -8l-477 1229z" />
<glyph unicode="L" horiz-adv-x="729" d="M27 27h573v-27h-600v1436h27v-1409z" />
<glyph unicode="M" horiz-adv-x="1312" d="M27 0l-27 4l279 1442l319 -324l313 324l273 -1442l-27 -4l-264 1393l-295 -306l-301 306z" />
<glyph unicode="N" horiz-adv-x="915" d="M756 1104q-86 78 -223.5 148.5t-264.5 107.5t-241 49v-1409h-27v1436q84 0 183.5 -23.5t263 -87t309.5 -184.5v295h26v-1436h-26v1104z" />
<glyph unicode="O" horiz-adv-x="1630" d="M752 1473q154 0 292 -56.5t242.5 -163t160.5 -244t56 -288.5q0 -205 -99 -378t-274.5 -273.5t-377.5 -100.5q-205 0 -378 99.5t-273.5 274.5t-100.5 378q0 154 55.5 290t162 240.5t209.5 148.5t173 58.5t152 14.5zM752 1446q-211 0 -378 -102.5t-257 -269.5t-90 -353 q0 -209 99 -376t267 -258t359 -91q209 0 374.5 98.5t258 266t92.5 360.5q0 160 -57.5 293t-162 230t-238.5 149.5t-267 52.5z" />
<glyph unicode="P" horiz-adv-x="729" d="M27 1409v-1077v1077zM27 305v-305h-27v1436h14h21q147 0 280.5 -75t209 -209t75.5 -282q0 -150 -73.5 -278.5t-209 -207.5t-282.5 -79h-8zM27 1409v-1077h8q150 0 274.5 71.5t195 195.5t70.5 271q0 152 -71 271q-68 123 -195 195.5t-274 72.5h-8z" />
<glyph unicode="Q" horiz-adv-x="1636" d="M1233 141l186 -186l-18 -16l-187 186q-74 -68 -202 -115q-127 -41 -260 -41q-205 0 -378 99.5t-273.5 274.5t-100.5 378q0 154 55.5 290t162 240.5t209.5 148.5t173 58.5t152 14.5q154 0 292 -56.5t242.5 -163t160.5 -244t56 -288.5q0 -86 -16.5 -163t-71.5 -194 t-182 -223zM752 1446q-211 0 -378 -102.5t-257 -269.5t-90 -353q0 -209 99 -376t267 -258t359 -91q258 0 446 145l-213 207l19 19l210 -209q123 106 193 256.5t70 306.5q0 160 -57.5 293t-162 230t-238.5 149.5t-267 52.5z" />
<glyph unicode="R" horiz-adv-x="729" d="M27 1409v-1077v1077zM27 1409v-1077h8q150 0 274.5 71.5t195 195.5t70.5 271q0 152 -71 271q-68 123 -195 195.5t-274 72.5h-8zM592 -4l-139 47l-170 82l-80 41l-66 45l-98 72l-12 14v-297h-27v1436h14h21q147 0 280.5 -75t209 -209t75.5 -282q0 -152 -70.5 -277.5 t-168 -185t-165 -81t-139.5 -21.5q166 -117 269 -174q96 -47 274 -108z" />
<glyph unicode="S" horiz-adv-x="561" d="M260 1409q-59 -14 -117.5 -60t-87 -103.5t-28.5 -123.5q0 -86 38.5 -130t145 -136t162 -179t55.5 -218q0 -178 -116.5 -307t-297.5 -152l-6 23q104 12 194.5 72.5t144.5 159.5t54 204q0 127 -53 207q-47 78 -153.5 170t-150.5 146t-44 140q0 117 80 203t172 111z" />
<glyph unicode="T" horiz-adv-x="919" d="M379 0v1409h-379v27h786v-27h-378v-1409h-29z" />
<glyph unicode="U" horiz-adv-x="972" d="M27 401q0 -109 55 -197.5t147 -144.5q43 -23 93.5 -37t97.5 -14q102 0 192 53.5t145.5 143.5t55.5 196v1035h27v-1035q0 -111 -55.5 -207t-154 -153t-210.5 -57q-111 0 -208 56t-154.5 154.5t-57.5 206.5v1035h27v-1035z" />
<glyph unicode="V" horiz-adv-x="1048" d="M465 76l424 1360l26 -9l-450 -1443l-465 1443l27 9z" />
<glyph unicode="W" horiz-adv-x="1630" d="M752 1092l-293 -1123l-459 1458l27 9l432 -1364l293 1126l286 -1126l435 1364l24 -9l-459 -1458z" />
<glyph unicode="X" horiz-adv-x="1064" d="M469 778l-446 -778l-23 14l451 787l-349 614l23 12l344 -600l340 600l22 -12l-344 -610l445 -791l-21 -14z" />
<glyph unicode="Y" horiz-adv-x="835" d="M340 1102l-340 317l16 17l338 -314l336 314l19 -17l-342 -317v-1102h-27v1102z" />
<glyph unicode="Z" horiz-adv-x="851" d="M0 0l676 1409h-623v27h668l-676 -1409h680v-27h-725z" />
<glyph unicode="[" horiz-adv-x="1048" d="M451 1362l-74 -248h153zM539 1087h-172l-340 -1087l-27 8l336 1079h-100v27h110l105 340l464 -1446l-26 -8z" />
<glyph unicode="\" horiz-adv-x="1083" d="M489 473l183 -420l252 664l26 -8l-278 -732l-199 461l-194 -461l-279 732l27 8l252 -664l178 420l-99 236l27 8l88 -209l92 209l27 -8z" />
<glyph unicode="]" horiz-adv-x="827" d="M53 309q66 -100 204 -198.5t272.5 -156.5t202 -76.5t126.5 -18.5v-27q-57 0 -124.5 17.5t-192.5 68.5t-272.5 152.5t-229.5 212.5l-12 -17v-266h-27v1436h27v-1123l645 1123l22 -13z" />
<glyph unicode="a" horiz-adv-x="671" d="M268 496q-109 0 -175 -76t-66 -168q0 -111 76.5 -177.5t164.5 -66.5q111 0 177.5 76t66.5 168q0 111 -76 177.5t-168 66.5zM279 711q-88 0 -142 -47l-18 22q70 53 160 53q74 0 131 -33.5t93 -94t36 -134.5v-477h-27v133q-31 -66 -100.5 -107.5t-143.5 -41.5 q-104 0 -186 79.5t-82 188.5t78 188.5t190 79.5q80 0 146.5 -41t97.5 -108v106q0 104 -69.5 169t-163.5 65z" />
<glyph unicode="b" horiz-adv-x="882" d="M0 358v1180h27v-1038q43 111 136 172t214 61q102 0 187 -50t136.5 -137t51.5 -188q0 -100 -50.5 -187t-136.5 -137t-188 -50q-158 0 -267.5 110t-109.5 264zM377 709q-154 0 -252 -99.5t-98 -251.5q0 -68 24.5 -131t74.5 -115.5t115.5 -78t135.5 -25.5q147 0 247.5 98.5 t100.5 251.5q0 145 -99 248t-249 103z" />
<glyph unicode="c" horiz-adv-x="499" d="M367 0q-98 0 -182.5 49t-134.5 134t-50 184q0 150 108.5 258t258.5 108v-24q-152 0 -246 -106.5t-94 -235.5q0 -150 105.5 -245t234.5 -95v-27z" />
<glyph unicode="d" horiz-adv-x="882" d="M752 1538v-1538h-27v217q-43 -111 -136 -172t-212 -61q-158 0 -267.5 110.5t-109.5 263.5q0 156 108.5 265.5t268.5 109.5q121 0 212 -59.5t136 -173.5v1038h27zM377 709q-154 0 -252 -99.5t-98 -251.5q0 -68 24.5 -131t74.5 -115.5t115.5 -78t135.5 -25.5 q147 0 247.5 98.5t100.5 251.5q0 145 -99 248t-249 103z" />
<glyph unicode="e" horiz-adv-x="901" d="M416 709q-102 0 -183 -49.5t-131 -139.5h623q-92 189 -309 189zM88 496q-10 -35 -16 -70t-6 -68q0 -100 46 -180t128 -125t176 -45t172 46t129 118l22 -14q-49 -76 -138 -125t-185 -49q-158 0 -267.5 110.5t-109.5 263.5q0 41 3 75t19 63h-61v24h72q37 92 136 152.5 t208 60.5q246 0 354 -237h-682z" />
<glyph unicode="f" horiz-adv-x="512" d="M49 721v446q0 141 95.5 247t232.5 124l2 -27q-127 -12 -215 -110t-88 -234v-446h211v-27h-211v-694h-27v694h-84v27h84z" />
<glyph unicode="g" horiz-adv-x="808" d="M305 133q-164 0 -274 -129l-17 12q74 98 193 129q-59 23 -103.5 65t-74.5 103q-25 59 -25 121q0 123 86 211t215 88h318v-24h-195q82 -33 130 -110t48 -165q0 -98 -59.5 -178t-157.5 -111q129 -37 208 -134t79 -224q0 -100 -49 -182t-136.5 -133.5t-185.5 -51.5 q-94 0 -174 46.5t-135 125.5l20 15q49 -74 129 -117t160 -43q154 0 249 101.5t95 238.5q0 104 -50 180t-132 121t-162 45zM305 709q-117 0 -195.5 -74t-78.5 -201q0 -119 77.5 -197.5t196.5 -78.5q115 0 195 77.5t80 198.5q0 117 -74 196t-201 79z" />
<glyph unicode="h" horiz-adv-x="663" d="M266 711q-96 0 -170 -68q-70 -70 -69 -170v-473h-27v1538h27v-954q31 70 95 112.5t144 42.5q66 0 130.5 -37.5t99 -95t34.5 -133.5v-473h-26v473q0 98 -69 168t-169 70z" />
<glyph unicode="i" d="M0 717h27v-717h-27v717zM0 905h27v-47h-27v47z" />
<glyph unicode="j" d="M-307 -733v24q59 0 110.5 23.5t119 91.5t67.5 197v1114h26v-1114q0 -84 -43 -161t-102 -114t-96 -49t-82 -12zM-10 905h26v-47h-26v47z" />
<glyph unicode="k" horiz-adv-x="557" d="M27 1538v-1278l374 461l23 -19l-385 -464q135 -131 270 -201t322 -94v-27q-106 12 -201.5 42t-194 90.5t-208.5 168.5v-217h-27v1538h27z" />
<glyph unicode="l" d="M0 1538h27v-1538h-27v1538z" />
<glyph unicode="m" horiz-adv-x="1167" d="M770 709q-102 0 -171 -70t-69 -170v-469h-26v469q0 94 -68.5 167t-169.5 73q-102 0 -170.5 -70t-68.5 -170v-469h-27v717h27v-137q31 68 92 110.5t147 42.5q84 0 155 -50t97 -130q25 82 97.5 131t154.5 49q61 0 104.5 -19.5t81 -56t58 -84t20.5 -104.5v-469h-26v469 q0 94 -69 167t-169 73z" />
<glyph unicode="n" horiz-adv-x="663" d="M266 709q-102 0 -170.5 -70t-68.5 -170v-469h-27v717h27v-137q31 68 92 110.5t147 42.5q61 0 104.5 -19.5t81 -56t58 -84t20.5 -104.5v-469h-26v469q0 94 -69 167t-169 73z" />
<glyph unicode="o" horiz-adv-x="882" d="M377 733q102 0 187 -50t136.5 -137t51.5 -188q0 -100 -50.5 -187t-136.5 -137t-188 -50q-158 0 -267.5 110.5t-109.5 263.5q0 156 108.5 265.5t268.5 109.5zM377 709q-154 0 -252 -99.5t-98 -251.5q0 -68 24.5 -131t74.5 -115.5t115.5 -78t135.5 -25.5q147 0 247.5 98.5 t100.5 251.5q0 145 -99 248t-249 103z" />
<glyph unicode="p" horiz-adv-x="882" d="M0 -680v1397h27v-217q25 68 76 121t125.5 82.5t148.5 29.5q102 0 187 -50t136.5 -137t51.5 -188q0 -100 -50.5 -187t-136.5 -137t-188 -50q-254 0 -350 233v-897h-27zM377 8q147 0 247.5 98.5t100.5 251.5q0 145 -99.5 248t-248.5 103q-154 0 -252 -99.5t-98 -251.5 q0 -68 24.5 -131t74.5 -115.5t115.5 -78t135.5 -25.5z" />
<glyph unicode="q" horiz-adv-x="882" d="M752 -680h-27v897q-43 -111 -135 -172t-213 -61q-158 0 -267.5 110.5t-109.5 263.5q0 156 108.5 265.5t268.5 109.5q117 0 210 -62.5t138 -170.5v217h27v-1397zM377 8q147 0 247.5 98.5t100.5 251.5q0 145 -99.5 248t-248.5 103q-154 0 -252 -99.5t-98 -251.5 q0 -68 24.5 -131t74.5 -115.5t115.5 -78t135.5 -25.5z" />
<glyph unicode="r" horiz-adv-x="389" d="M0 0v717h27v-129q76 137 229 137v-27q-111 0 -170 -70.5t-59 -158.5v-469h-27z" />
<glyph unicode="s" horiz-adv-x="358" d="M0 31q68 6 133.5 59t65.5 139q0 61 -26 99.5t-66.5 73t-67.5 69.5q-23 35 -23 86q0 53 36 100.5t81 59.5l8 -23q-96 -35 -96 -137q0 -43 13.5 -69.5t90 -89t76.5 -169.5q0 -84 -65.5 -150.5t-155.5 -74.5z" />
<glyph unicode="t" horiz-adv-x="456" d="M115 225q0 -94 59 -148t143 -54v-27q-92 0 -163 67q-66 70 -66 162v465h-88v27h88v276h27v-276h209v-27h-209v-465z" />
<glyph unicode="u" horiz-adv-x="663" d="M266 -16q-53 0 -98 18t-106.5 77.5t-61.5 168.5v469h27v-469q0 -100 69.5 -170t169.5 -70q98 0 168 69.5t70 170.5v469h26v-469q0 -111 -79 -187.5t-185 -76.5z" />
<glyph unicode="v" horiz-adv-x="671" d="M539 709l-271 -740l-268 740l27 8l241 -668l244 668z" />
<glyph unicode="w" horiz-adv-x="1071" d="M938 709l-274 -725l-195 450l-195 -450l-274 725l27 8l247 -660l195 447l195 -447l247 660z" />
<glyph unicode="x" horiz-adv-x="659" d="M266 393l221 324l21 -15l-229 -331l247 -357l-22 -14l-238 348l-243 -348l-23 14l252 357l-236 331l23 15z" />
<glyph unicode="y" horiz-adv-x="724" d="M592 709l-531 -1407l-26 8l262 690l-297 709l27 8l282 -682l256 682z" />
<glyph unicode="z" horiz-adv-x="649" d="M508 717l-459 -690h469v-27h-518l459 690h-410v27h459z" />
<glyph unicode="{" horiz-adv-x="733" d="M27 1409v-1077v1077zM27 1409v-1077h8q150 0 274.5 71.5t195 195.5t70.5 271q0 152 -71 271q-68 123 -195 195.5t-274 72.5h-8zM57 305q104 -147 297 -257.5t300.5 -149.5t203.5 -39v-27q-57 0 -124.5 17.5t-192.5 68.5t-272.5 152.5t-229.5 212.5l-12 22v-305h-27v1436 h14h21q147 0 280.5 -75t209 -209t75.5 -282q0 -152 -70.5 -277.5t-168 -185t-165 -81t-139.5 -21.5z" />
<glyph unicode="|" horiz-adv-x="1613" d="M741 870l-282 -893l-459 1450l27 9l432 -1364l266 848l-160 512l27 10l149 -473l148 473l26 -10l-159 -512l266 -848l432 1364l27 -9l-459 -1450z" />
<glyph unicode="}" horiz-adv-x="1042" d="M483 672q-16 -88 -30.5 -148.5t-34.5 -115.5q-31 -98 -80 -178t-131 -144q-80 -55 -199 -86l-8 27q164 43 255 145t127 219t77 320l45 235q18 104 59 202.5t122 174.5t216 119l10 -27q-127 -37 -201.5 -111.5t-113.5 -167t-64 -212.5z" />
<glyph unicode="&#xa3;" horiz-adv-x="786" d="M686 1409q-72 0 -143.5 -25.5t-170 -86t-182.5 -196.5t-84 -310v-353h455v-26h-455v-99h455v-26h-455v-260h592v-27h-618v287h-80v26h80v99h-80v26h80v353q0 258 133 398t242.5 193.5t230.5 53.5v-27z" />
<glyph unicode="&#xaa;" horiz-adv-x="671" d="M268 496q-109 0 -175 -76t-66 -168q0 -111 76.5 -177.5t164.5 -66.5q111 0 177.5 76t66.5 168q0 111 -76 177.5t-168 66.5zM279 711q-88 0 -142 -47l-18 22q70 53 160 53q74 0 131 -33.5t93 -94t36 -134.5v-477h-27v133q-31 -66 -100.5 -107.5t-143.5 -41.5 q-104 0 -186 79.5t-82 188.5t78 188.5t190 79.5q80 0 146.5 -41t97.5 -108v106q0 104 -69.5 169t-163.5 65z" />
<glyph unicode="&#xab;" horiz-adv-x="323" d="M31 287l119 -279l-25 -8l-125 287l119 274l26 -8zM119 287l119 -279l-25 -8l-125 287l119 274l29 -8z" />
<glyph unicode="&#xad;" horiz-adv-x="610" d="M0 649h477v-26h-477v26z" />
<glyph unicode="&#xb0;" horiz-adv-x="290" d="M102 1436q43 0 72 -29t29 -72t-30 -72.5t-71 -29.5q-37 0 -69.5 30.5t-32.5 71.5t29.5 71t72.5 30zM102 1409q-76 0 -75 -74q0 -76 75 -75q74 0 74 75q0 74 -74 74z" />
<glyph unicode="&#xb2;" horiz-adv-x="870" d="M305 1432q-137 0 -239 -76l-17 18q113 84 256 84q123 0 220.5 -58.5t158.5 -158.5q29 -51 43 -102.5t14 -116.5q0 -162 -100 -283l-584 -712h660v-27h-717l618 756q98 127 99 266q0 123 -62.5 216t-157 143.5t-192.5 50.5z" />
<glyph unicode="&#xb3;" horiz-adv-x="813" d="M96 0h-73v27h73q170 0 297 80.5t193.5 212t66.5 264.5q0 135 -56 247.5t-150.5 186.5t-208.5 104l274 287h-512v27h575l-288 -301q178 -57 285.5 -210t107.5 -341q0 -158 -77 -292t-212 -213t-295 -79z" />
<glyph unicode="&#xb9;" horiz-adv-x="456" d="M324 0h-27v1397l-281 -264l-16 16l324 305v-1454z" />
<glyph unicode="&#xba;" horiz-adv-x="882" d="M377 733q102 0 187 -50t136.5 -137t51.5 -188q0 -100 -50.5 -187t-136.5 -137t-188 -50q-158 0 -267.5 110.5t-109.5 263.5q0 156 108.5 265.5t268.5 109.5zM377 709q-154 0 -252 -99.5t-98 -251.5q0 -68 24.5 -131t74.5 -115.5t115.5 -78t135.5 -25.5q147 0 247.5 98.5 t100.5 251.5q0 145 -99 248t-249 103z" />
<glyph unicode="&#xbb;" horiz-adv-x="323" d="M207 287l-113 266l25 8l119 -274l-123 -287l-27 8zM119 287l-115 266l27 8l119 -274l-123 -287l-27 8z" />
<glyph unicode="&#xc5;" horiz-adv-x="1028" d="M450 1669q43 0 72 -29t29 -72t-30 -72.5t-71 -29.5q-37 0 -69.5 30.5t-32.5 71.5t29.5 71t72.5 30zM450 1642q-76 0 -75 -74q0 -76 75 -75q74 0 74 75q0 74 -74 74zM795 291h-680l-88 -291l-27 8l88 283h-88v26h96l355 1137l464 -1446l-26 -8zM451 1362l335 -1045z M125 317h661l-335 1045z" />
<glyph unicode="&#xdf;" horiz-adv-x="866" d="M348 1225q-74 0 -128 -37t-89 -96.5t-35 -118.5v-1247h-24v964h-72v27h72v256q0 111 83 194.5t193 83.5q123 0 210 -80.5t87 -197.5q0 -86 -49 -153.5t-137 -102.5q76 -18 137 -69.5t99 -126.5t38 -159q0 -94 -49 -178t-133 -134t-180 -50h-39v27h39q141 0 239.5 99 t98.5 236q0 90 -47.5 168t-106.5 111t-101 45t-83 12h-25h-10v27h10q117 0 194.5 72.5t77.5 175.5q0 106 -82 179t-188 73z" />
<glyph unicode="&#xe5;" horiz-adv-x="671" d="M278 1065q43 0 72 -29t29 -72t-30 -72.5t-71 -29.5q-37 0 -69.5 30.5t-32.5 71.5t29.5 71t72.5 30zM278 1038q-76 0 -75 -74q0 -76 75 -75q74 0 74 75q0 74 -74 74zM268 496q-109 0 -175 -76t-66 -168q0 -111 76.5 -177.5t164.5 -66.5q111 0 177.5 76t66.5 168 q0 111 -76 177.5t-168 66.5zM279 711q-88 0 -142 -47l-18 22q70 53 160 53q74 0 131 -33.5t93 -94t36 -134.5v-477h-27v133q-31 -66 -100.5 -107.5t-143.5 -41.5q-104 0 -186 79.5t-82 188.5t78 188.5t190 79.5q80 0 146.5 -41t97.5 -108v106q0 104 -69.5 169t-163.5 65z " />
<glyph unicode="&#x152;" horiz-adv-x="2496" d="M1710 1122h-80v27h80v287h653v-27h-627v-260h627v-27h-627v-477q0 -178 87.5 -319.5t232.5 -220t303 -78.5v-27q-176 0 -325.5 86t-236.5 236.5t-87 322.5v477zM752 1473q154 0 292 -56.5t242.5 -163t160.5 -244t56 -288.5q0 -205 -99 -378t-274.5 -273.5t-377.5 -100.5 q-205 0 -378 99.5t-273.5 274.5t-100.5 378q0 154 55.5 290t162 240.5t209.5 148.5t173 58.5t152 14.5zM752 1446q-211 0 -378 -102.5t-257 -269.5t-90 -353q0 -209 99 -376t267 -258t359 -91q209 0 374.5 98.5t258 266t92.5 360.5q0 160 -57.5 293t-162 230t-238.5 149.5 t-267 52.5z" />
<glyph unicode="&#x153;" horiz-adv-x="1783" d="M1299 709q-102 0 -183 -49.5t-131 -139.5h623q-92 189 -309 189zM971 496q-10 -35 -16 -70t-6 -68q0 -100 46 -180t128 -125t176 -45t172 46t129 118l22 -14q-49 -76 -138 -125t-185 -49q-158 0 -267.5 110.5t-109.5 263.5q0 41 3 75t19 63h-61v24h72q37 92 136 152.5 t208 60.5q246 0 354 -237h-682zM377 733q102 0 187 -50t136.5 -137t51.5 -188q0 -100 -50.5 -187t-136.5 -137t-188 -50q-158 0 -267.5 110.5t-109.5 263.5q0 156 108.5 265.5t268.5 109.5zM377 709q-154 0 -252 -99.5t-98 -251.5q0 -68 24.5 -131t74.5 -115.5t115.5 -78 t135.5 -25.5q147 0 247.5 98.5t100.5 251.5q0 145 -99 248t-249 103z" />
<glyph unicode="&#x2000;" horiz-adv-x="833" />
<glyph unicode="&#x2001;" horiz-adv-x="1669" />
<glyph unicode="&#x2002;" horiz-adv-x="833" />
<glyph unicode="&#x2003;" horiz-adv-x="1669" />
<glyph unicode="&#x2004;" horiz-adv-x="555" />
<glyph unicode="&#x2005;" horiz-adv-x="415" />
<glyph unicode="&#x2006;" horiz-adv-x="276" />
<glyph unicode="&#x2007;" horiz-adv-x="276" />
<glyph unicode="&#x2008;" horiz-adv-x="206" />
<glyph unicode="&#x2009;" horiz-adv-x="333" />
<glyph unicode="&#x200a;" horiz-adv-x="92" />
<glyph unicode="&#x2010;" horiz-adv-x="610" d="M0 649h477v-26h-477v26z" />
<glyph unicode="&#x2011;" horiz-adv-x="610" d="M0 649h477v-26h-477v26z" />
<glyph unicode="&#x2012;" horiz-adv-x="610" d="M0 649h477v-26h-477v26z" />
<glyph unicode="&#x2013;" horiz-adv-x="1042" d="M0 649h954v-26h-954v26z" />
<glyph unicode="&#x2014;" horiz-adv-x="2007" d="M0 649h1919v-26h-1919v26z" />
<glyph unicode="&#x2026;" horiz-adv-x="362" d="M0 53h27v-53h-27v53zM102 53h25v-53h-25v53zM203 53h26v-53h-26v53z" />
<glyph unicode="&#x202f;" horiz-adv-x="333" />
<glyph unicode="&#x205f;" horiz-adv-x="415" />
<glyph unicode="&#x2122;" horiz-adv-x="2232" d="M947 0l-27 4l279 1442l319 -324l313 324l273 -1442l-27 -4l-264 1393l-295 -306l-301 306zM379 0v1409h-379v27h786v-27h-378v-1409h-29z" />
<glyph unicode="&#xe000;" horiz-adv-x="715" d="M0 715h715v-715h-715v715z" />
<glyph unicode="&#xfb01;" horiz-adv-x="669" d="M512 717h27v-717h-27v717zM512 905h27v-47h-27v47zM49 721v446q0 141 95.5 247t232.5 124l2 -27q-127 -12 -215 -110t-88 -234v-446h211v-27h-211v-694h-27v694h-84v27h84z" />
<glyph unicode="&#xfb02;" horiz-adv-x="669" d="M512 1538h27v-1538h-27v1538zM49 721v446q0 141 95.5 247t232.5 124l2 -27q-127 -12 -215 -110t-88 -234v-446h211v-27h-211v-694h-27v694h-84v27h84z" />
<glyph unicode="&#xfb03;" horiz-adv-x="1181" d="M1024 717h27v-717h-27v717zM1024 905h27v-47h-27v47zM561 721v446q0 141 95.5 247t232.5 124l2 -27q-127 -12 -215 -110t-88 -234v-446h211v-27h-211v-694h-27v694h-84v27h84zM49 721v446q0 141 95.5 247t232.5 124l2 -27q-127 -12 -215 -110t-88 -234v-446h211v-27h-211 v-694h-27v694h-84v27h84z" />
<glyph unicode="&#xfb04;" horiz-adv-x="1181" d="M1024 1538h27v-1538h-27v1538zM561 721v446q0 141 95.5 247t232.5 124l2 -27q-127 -12 -215 -110t-88 -234v-446h211v-27h-211v-694h-27v694h-84v27h84zM49 721v446q0 141 95.5 247t232.5 124l2 -27q-127 -12 -215 -110t-88 -234v-446h211v-27h-211v-694h-27v694h-84v27 h84z" />
</font>
</defs>
</svg>
